<svg width="460" height="426" viewBox="0 0 460 426" fill="none" xmlns="http://www.w3.org/2000/svg">
<path d="M230.197 425.741C357.046 425.741 459.877 370.491 459.877 302.336C459.877 234.181 357.046 178.93 230.197 178.93C103.347 178.93 0.515625 234.181 0.515625 302.336C0.515625 370.491 103.347 425.741 230.197 425.741Z" fill="#E1E8F2"/>
<path d="M388.809 350.253C387.477 344.547 380.859 340.015 373.355 337.675C370.026 333.827 363.914 329.471 353.479 324.727C330.363 314.239 317.89 308.819 311.49 306.128C309.392 305.287 307.118 304.896 304.835 304.982C302.553 305.069 300.32 305.631 298.302 306.627L245.262 335.881C244.537 336.207 243.742 336.377 242.937 336.377C242.131 336.377 241.336 336.207 240.611 335.881C240.46 335.802 240.323 335.702 240.204 335.585C240.315 335.47 240.446 335.373 240.591 335.298C260.05 324.727 293.482 306.516 298.72 303.316C301.333 301.707 301.264 299.616 300.33 298.22C297.736 294.308 285.104 291.357 279.599 294.326L212.019 330.637C209.733 331.867 208.481 333.679 208.6 335.603C208.73 337.666 210.369 339.478 213.112 340.588C222.593 344.417 239.041 351.326 263.549 362.443C268.866 364.725 273.87 367.591 278.456 370.98C277.999 370.915 277.542 370.869 277.084 370.822C259.653 369.241 250.251 375.04 248.92 381.098C247.846 385.944 251.672 390.411 258.659 392.483C268.468 395.396 284.349 391.641 287.788 383.669C288.649 381.681 288.737 379.477 288.036 377.435C292.22 379.59 295.52 382.587 296.305 385.953C297.378 390.578 293.492 395.433 285.065 399.965C260.766 413.015 242.331 404.996 214.891 390.254C210.976 388.145 183.447 373.477 135.287 347.839C132.187 346.185 129.611 343.798 127.819 340.92C126.027 338.043 125.082 334.776 125.08 331.451V319.806C125.047 319.39 124.845 319.001 124.516 318.717C124.187 318.432 123.755 318.275 123.306 318.275C122.857 318.275 122.425 318.432 122.096 318.717C121.767 319.001 121.566 319.39 121.532 319.806V331.46C121.535 335.367 122.645 339.203 124.752 342.583C126.858 345.962 129.885 348.764 133.528 350.706C181.688 376.344 209.207 391.012 213.122 393.112C231.081 402.758 245.839 409.815 261.034 409.815C269.313 409.815 277.71 407.725 286.873 402.823C299.376 396.108 300.787 389.57 299.793 385.25C298.461 379.507 292.23 374.966 285.194 372.561C281.904 368.686 275.773 364.284 265.169 359.474C240.601 348.329 224.104 341.402 214.593 337.555C213.162 336.981 212.248 336.158 212.208 335.409C212.168 334.66 212.775 334.068 213.858 333.485L281.437 297.166C284.19 295.686 290.729 296.509 294.744 298.229C296.861 299.154 297.418 299.912 297.458 300.023C297.497 300.134 297.368 300.227 296.841 300.551C291.674 303.714 258.301 321.887 238.872 332.449C238.221 332.719 237.667 333.159 237.278 333.715C236.89 334.272 236.683 334.921 236.683 335.585C236.683 336.248 236.89 336.898 237.278 337.454C237.667 338.011 238.221 338.45 238.872 338.72C240.143 339.34 241.557 339.664 242.991 339.664C244.426 339.664 245.84 339.34 247.111 338.72L300.151 309.457C301.684 308.739 303.366 308.338 305.081 308.281C306.796 308.223 308.504 308.511 310.089 309.124C316.469 311.816 328.902 317.217 351.988 327.686C357.304 329.971 362.308 332.837 366.896 336.223C366.428 336.158 365.971 336.112 365.514 336.066C348.083 334.484 338.681 340.283 337.359 346.341C336.286 351.187 340.112 355.654 347.099 357.726C356.908 360.64 372.789 356.885 376.218 348.912C377.124 346.819 377.177 344.491 376.367 342.364C381.008 344.501 384.695 347.553 385.49 350.956C386.543 355.497 382.399 360.427 373.494 365.208L365.405 369.555C365.217 369.403 365.014 369.266 364.799 369.148C364.547 368.976 364.25 368.87 363.939 368.84C363.627 368.811 363.314 368.86 363.03 368.982L359.502 370.832C359.188 370.652 358.832 370.547 358.464 370.526C358.097 370.505 357.729 370.568 357.395 370.711L344.137 377.842C343.791 378.061 343.516 378.364 343.341 378.717C343.166 379.071 343.098 379.462 343.143 379.849C343.147 380.106 343.17 380.363 343.213 380.617L342.726 380.913L339.744 382.651L339.168 382.994L336.187 384.769L335.65 385.084L332.609 386.887L332.122 387.174L327.978 388.691C327.915 388.726 327.858 388.77 327.809 388.82L326.686 389.745C326.567 389.86 326.476 389.997 326.418 390.147C326.359 390.296 326.336 390.456 326.348 390.615C326.38 391.142 326.544 391.655 326.827 392.112C327.11 392.57 327.504 392.96 327.978 393.25C328.123 393.339 328.285 393.4 328.456 393.429C328.627 393.457 328.802 393.453 328.972 393.417L330.403 393.01C330.482 392.992 330.559 392.964 330.631 392.927L334.119 390.346L337.826 388.543L338.383 388.275L341.523 386.749L342.13 386.453L345.23 384.945L345.767 384.686C345.981 384.849 346.207 384.997 346.443 385.13C346.778 385.356 347.172 385.495 347.585 385.532C347.997 385.569 348.412 385.504 348.788 385.343L352.763 383.225L362.085 378.212C362.17 378.167 362.247 378.111 362.314 378.046C362.546 377.843 362.732 377.598 362.858 377.326C362.985 377.054 363.05 376.761 363.049 376.464L366.568 374.568C366.81 374.439 367.001 374.241 367.114 374.004C367.251 373.713 367.319 373.397 367.313 373.079C367.311 372.849 367.284 372.62 367.233 372.395C367.233 372.395 367.233 372.395 367.233 372.33L375.303 367.992C388.213 361.019 389.793 354.489 388.809 350.253Z" fill="#E0E0E0"/>
<path d="M260.944 404.987C245.749 404.987 230.991 397.931 213.032 388.284C208.063 385.611 167.009 363.747 133.438 345.879C129.795 343.937 126.768 341.135 124.662 337.755C122.555 334.376 121.445 330.539 121.442 326.632V314.923C121.476 314.507 121.677 314.118 122.006 313.833C122.335 313.549 122.768 313.391 123.216 313.391C123.665 313.391 124.097 313.549 124.426 313.833C124.755 314.118 124.957 314.507 124.99 314.923V326.632C124.993 329.957 125.938 333.222 127.73 336.098C129.522 338.973 132.098 341.358 135.197 343.012C168.768 360.889 209.832 382.781 214.801 385.426C242.261 400.178 260.676 408.187 284.975 395.137C293.402 390.606 297.288 385.759 296.215 381.126C295.43 377.768 292.14 374.763 287.946 372.608C288.644 374.652 288.556 376.859 287.698 378.85C284.269 386.814 268.378 390.569 258.569 387.664C251.612 385.593 247.756 381.116 248.83 376.279C250.171 370.212 259.553 364.413 276.995 366.004C277.452 366.004 277.909 366.096 278.376 366.161C273.786 362.776 268.782 359.907 263.469 357.615C238.971 346.517 222.523 339.599 213.032 335.761C210.29 334.66 208.65 332.838 208.521 330.776C208.391 328.713 209.654 327.076 211.939 325.809L279.519 289.499C285.025 286.539 297.656 289.499 300.25 293.392C301.184 294.807 301.244 296.888 298.64 298.488C293.422 301.679 259.98 319.899 240.512 330.48C240.367 330.553 240.237 330.646 240.124 330.757C240.24 330.877 240.378 330.977 240.531 331.053C241.256 331.38 242.051 331.549 242.857 331.549C243.662 331.549 244.457 331.38 245.182 331.053L298.222 301.79C300.241 300.796 302.474 300.236 304.756 300.149C307.038 300.063 309.311 300.453 311.41 301.291C317.801 303.982 330.293 309.393 353.399 319.89C363.874 324.644 369.986 329.009 373.275 332.838C380.739 335.178 387.398 339.71 388.729 345.426C389.723 349.662 388.143 356.182 375.044 363.22L359.213 371.729C358.806 371.947 358.322 372.006 357.868 371.892C357.414 371.779 357.028 371.502 356.793 371.123C356.558 370.744 356.495 370.294 356.617 369.872C356.739 369.449 357.037 369.089 357.444 368.871L373.275 360.362C382.22 355.581 386.324 350.66 385.271 346.119C384.476 342.707 380.789 339.645 376.148 337.527C376.958 339.654 376.905 341.983 375.999 344.075C372.57 352.038 356.689 355.793 346.88 352.889C339.923 350.818 336.067 346.341 337.14 341.504C338.482 335.437 347.864 329.638 365.295 331.229C365.752 331.229 366.209 331.321 366.676 331.377C362.089 327.99 357.085 325.125 351.769 322.84C328.673 312.371 316.24 306.969 309.87 304.287C308.287 303.668 306.579 303.376 304.863 303.432C303.147 303.488 301.464 303.89 299.932 304.611L246.892 333.874C245.621 334.494 244.207 334.818 242.772 334.818C241.338 334.818 239.924 334.494 238.653 333.874C238.017 333.581 237.477 333.135 237.089 332.582C236.701 332.029 236.48 331.389 236.447 330.729C236.478 330.074 236.697 329.439 237.079 328.888C237.461 328.337 237.994 327.89 238.623 327.594C272.194 309.356 292.776 297.998 296.593 295.695C297.119 295.372 297.209 295.168 297.209 295.168C297.209 295.168 296.612 294.243 294.496 293.374C290.52 291.654 283.941 290.84 281.188 292.32L213.609 328.63C212.526 329.213 211.919 329.916 211.959 330.554C211.999 331.192 212.953 332.126 214.344 332.699C223.865 336.556 240.372 343.483 264.92 354.619C275.524 359.428 281.656 363.868 284.945 367.715C291.981 370.11 298.213 374.652 299.544 380.395C300.538 384.696 299.117 391.234 286.625 397.968C277.621 402.897 269.223 404.987 260.944 404.987ZM271.35 369.028C259.961 369.028 253.222 372.728 252.298 376.945C251.603 380.071 254.425 382.975 259.642 384.52C267.722 386.915 281.705 383.882 284.408 377.62C285.333 375.475 284.776 373.079 282.858 370.545C280.845 369.907 278.762 369.482 276.647 369.278C274.778 369.112 273.009 369.028 271.35 369.028ZM359.73 334.253C348.351 334.253 341.612 337.953 340.688 342.17C339.993 345.296 342.805 348.2 348.033 349.745C356.112 352.14 370.095 349.107 372.798 342.845C373.733 340.672 373.146 338.221 371.169 335.668C369.171 335.093 367.117 334.702 365.037 334.503C363.168 334.336 361.399 334.253 359.73 334.253Z" fill="#455A64"/>
<path d="M362.89 364.136C363.174 364.016 363.487 363.968 363.798 363.997C364.109 364.027 364.406 364.132 364.659 364.302C365.387 364.744 365.993 365.34 366.428 366.04C366.863 366.741 367.115 367.527 367.163 368.335C367.196 368.627 367.145 368.921 367.013 369.188C366.882 369.455 366.676 369.684 366.418 369.852L356.41 375.225L352.882 369.51L362.89 364.136Z" fill="#37474F"/>
<path opacity="0.1" d="M366.865 366.92C367.047 367.373 367.148 367.851 367.164 368.335C367.197 368.627 367.145 368.921 367.014 369.188C366.883 369.455 366.677 369.684 366.418 369.852L356.41 375.225L355.158 373.2L366.865 366.92Z" fill="black"/>
<path d="M357.156 373.718C357.109 372.91 356.858 372.123 356.423 371.423C355.988 370.722 355.381 370.127 354.652 369.685C354.401 369.516 354.106 369.41 353.798 369.38C353.489 369.349 353.177 369.394 352.893 369.51C352.634 369.677 352.428 369.906 352.297 370.173C352.166 370.44 352.114 370.735 352.147 371.026C352.195 371.834 352.446 372.621 352.881 373.321C353.316 374.022 353.923 374.617 354.652 375.059C354.89 375.258 355.19 375.382 355.509 375.413C355.827 375.444 356.148 375.381 356.426 375.232C356.704 375.083 356.924 374.857 357.055 374.585C357.186 374.313 357.222 374.01 357.156 373.718Z" fill="#37474F"/>
<path d="M357.255 365.921C357.631 365.759 358.046 365.693 358.459 365.73C358.871 365.768 359.265 365.907 359.6 366.134C360.567 366.72 361.372 367.511 361.949 368.441C362.525 369.372 362.858 370.416 362.919 371.489C362.964 371.876 362.895 372.267 362.72 372.62C362.545 372.973 362.271 373.276 361.926 373.496L348.658 380.617L343.987 373.043L357.255 365.921Z" fill="#455A64"/>
<path opacity="0.1" d="M362.522 369.611C362.767 370.202 362.902 370.828 362.92 371.461C362.964 371.848 362.895 372.239 362.72 372.592C362.545 372.945 362.271 373.248 361.926 373.468L348.659 380.589L347.009 377.916L362.522 369.611Z" fill="black"/>
<path d="M349.642 378.619C349.581 377.548 349.249 376.505 348.672 375.576C348.095 374.646 347.29 373.858 346.322 373.274C346.013 372.991 345.612 372.81 345.182 372.758C344.751 372.707 344.315 372.788 343.938 372.989C343.562 373.19 343.267 373.501 343.098 373.873C342.929 374.245 342.896 374.658 343.003 375.049C343.067 376.122 343.4 377.165 343.977 378.095C344.553 379.025 345.357 379.816 346.322 380.404C346.632 380.689 347.034 380.871 347.466 380.923C347.898 380.975 348.336 380.893 348.713 380.69C349.09 380.487 349.386 380.175 349.553 379.801C349.721 379.426 349.752 379.011 349.642 378.619Z" fill="#37474F"/>
<path d="M346.323 374.809C346.134 374.681 345.912 374.602 345.679 374.58C345.447 374.559 345.212 374.597 345.001 374.689L332.002 382.384L327.857 383.891L330.511 388.192L333.999 385.612L347.654 378.999C347.848 378.875 348.002 378.705 348.1 378.506C348.198 378.307 348.236 378.088 348.211 377.87C348.177 377.258 347.989 376.661 347.661 376.129C347.333 375.597 346.874 375.145 346.323 374.809Z" fill="#BA68C8"/>
<path opacity="0.7" d="M346.323 374.809C346.134 374.681 345.912 374.602 345.679 374.58C345.447 374.559 345.212 374.597 345.001 374.689L332.002 382.384L327.857 383.891L330.511 388.192L333.999 385.612L347.654 378.999C347.848 378.875 348.002 378.705 348.1 378.506C348.198 378.307 348.236 378.088 348.211 377.87C348.177 377.258 347.989 376.661 347.661 376.129C347.333 375.597 346.874 375.145 346.323 374.809Z" fill="white"/>
<path d="M329.18 384.021C328.991 383.893 328.769 383.814 328.537 383.791C328.305 383.769 328.071 383.803 327.858 383.891L327.689 384.021L326.596 384.992L328.881 388.691L330.313 388.294C330.393 388.272 330.47 388.241 330.541 388.201C330.735 388.076 330.89 387.904 330.988 387.704C331.086 387.503 331.124 387.282 331.098 387.064C331.059 386.451 330.865 385.857 330.531 385.328C330.198 384.799 329.735 384.351 329.18 384.021Z" fill="#BA68C8"/>
<path opacity="0.5" d="M329.18 384.021C328.991 383.893 328.769 383.814 328.537 383.791C328.305 383.769 328.071 383.803 327.858 383.891L327.689 384.021L326.596 384.992L328.881 388.691L330.313 388.294C330.393 388.272 330.47 388.241 330.541 388.201C330.735 388.076 330.89 387.904 330.988 387.704C331.086 387.503 331.124 387.282 331.098 387.064C331.059 386.451 330.865 385.857 330.531 385.328C330.198 384.799 329.735 384.351 329.18 384.021Z" fill="white"/>
<path d="M329.507 387.628C329.475 387.099 329.31 386.586 329.025 386.128C328.74 385.67 328.344 385.281 327.867 384.992C327.711 384.864 327.516 384.785 327.309 384.766C327.102 384.747 326.893 384.789 326.713 384.886C326.533 384.983 326.391 385.13 326.305 385.307C326.22 385.484 326.196 385.681 326.238 385.87C326.269 386.398 326.432 386.911 326.715 387.369C326.999 387.827 327.393 388.216 327.867 388.506C328.023 388.638 328.22 388.72 328.429 388.741C328.638 388.762 328.849 388.721 329.031 388.623C329.214 388.526 329.358 388.377 329.444 388.198C329.529 388.019 329.551 387.819 329.507 387.628Z" fill="#BA68C8"/>
<path d="M332.002 382.384C332.162 382.316 332.338 382.289 332.512 382.305C332.687 382.322 332.854 382.381 332.996 382.476C333.405 382.727 333.746 383.063 333.992 383.458C334.237 383.853 334.379 384.296 334.407 384.751C334.428 384.915 334.401 385.082 334.329 385.233C334.258 385.384 334.144 385.515 334 385.611L334.516 385.362C334.658 385.259 334.77 385.125 334.842 384.971C334.913 384.818 334.941 384.65 334.924 384.483C334.896 384.025 334.753 383.58 334.506 383.183C334.259 382.786 333.915 382.449 333.503 382.199C333.359 382.106 333.194 382.048 333.02 382.029C332.847 382.01 332.672 382.03 332.509 382.088L332.002 382.384Z" fill="#BA68C8"/>
<path d="M335.54 380.293C335.713 380.221 335.903 380.192 336.091 380.21C336.28 380.228 336.46 380.292 336.613 380.395C337.062 380.668 337.436 381.035 337.703 381.468C337.971 381.9 338.125 382.385 338.154 382.883C338.174 383.059 338.144 383.238 338.067 383.4C337.991 383.562 337.87 383.703 337.717 383.808L338.273 383.531C338.424 383.423 338.545 383.282 338.623 383.121C338.701 382.959 338.734 382.782 338.72 382.606C338.69 382.109 338.534 381.626 338.267 381.196C337.999 380.766 337.627 380.399 337.18 380.127C337.023 380.021 336.839 379.953 336.646 379.93C336.453 379.908 336.257 379.931 336.077 379.998L335.54 380.293Z" fill="#BA68C8"/>
<path d="M339.059 378.203C339.246 378.125 339.452 378.095 339.656 378.114C339.86 378.134 340.055 378.203 340.221 378.314C340.707 378.609 341.111 379.007 341.401 379.474C341.691 379.942 341.859 380.466 341.891 381.006C341.914 381.198 341.881 381.392 341.798 381.569C341.714 381.746 341.582 381.899 341.414 382.014L342.02 381.718C342.188 381.597 342.32 381.439 342.404 381.258C342.487 381.076 342.519 380.878 342.497 380.682C342.465 380.143 342.298 379.618 342.008 379.151C341.718 378.683 341.313 378.286 340.828 377.99C340.657 377.877 340.458 377.805 340.249 377.783C340.041 377.76 339.829 377.787 339.635 377.861L339.059 378.203Z" fill="#BA68C8"/>
<path d="M342.587 376.113C342.789 376.03 343.011 375.998 343.23 376.019C343.45 376.04 343.66 376.114 343.839 376.233C344.362 376.55 344.798 376.978 345.11 377.481C345.423 377.984 345.603 378.548 345.638 379.128C345.662 379.337 345.626 379.548 345.534 379.74C345.441 379.932 345.295 380.097 345.111 380.219L345.777 379.896C345.957 379.767 346.098 379.597 346.187 379.403C346.275 379.208 346.309 378.996 346.284 378.786C346.251 378.207 346.071 377.643 345.76 377.14C345.45 376.637 345.016 376.209 344.495 375.891C344.311 375.766 344.096 375.687 343.87 375.661C343.644 375.636 343.414 375.664 343.203 375.743L342.587 376.113Z" fill="#BA68C8"/>
<g opacity="0.1">
<path opacity="0.1" d="M332.002 382.383C332.162 382.316 332.338 382.289 332.512 382.305C332.687 382.321 332.854 382.38 332.996 382.476C333.405 382.726 333.747 383.063 333.992 383.458C334.237 383.853 334.379 384.296 334.407 384.751C334.428 384.915 334.401 385.082 334.329 385.233C334.258 385.384 334.144 385.515 334 385.611L334.516 385.362C334.659 385.259 334.771 385.125 334.842 384.971C334.913 384.818 334.941 384.65 334.924 384.483C334.896 384.025 334.753 383.58 334.506 383.183C334.259 382.786 333.916 382.449 333.503 382.198C333.359 382.106 333.194 382.048 333.02 382.029C332.847 382.009 332.672 382.029 332.509 382.088L332.002 382.383Z" fill="black"/>
<path opacity="0.1" d="M335.54 380.293C335.713 380.221 335.903 380.192 336.091 380.209C336.28 380.227 336.46 380.291 336.613 380.395C337.062 380.668 337.436 381.035 337.703 381.467C337.971 381.9 338.125 382.385 338.154 382.883C338.174 383.059 338.144 383.237 338.067 383.399C337.991 383.562 337.87 383.702 337.716 383.808L338.273 383.53C338.424 383.423 338.545 383.282 338.623 383.121C338.701 382.959 338.734 382.782 338.72 382.605C338.689 382.109 338.534 381.626 338.267 381.196C337.999 380.765 337.627 380.399 337.18 380.127C337.023 380.02 336.839 379.953 336.646 379.93C336.453 379.907 336.257 379.931 336.077 379.997L335.54 380.293Z" fill="black"/>
<path opacity="0.1" d="M339.059 378.203C339.246 378.125 339.452 378.095 339.656 378.114C339.86 378.134 340.055 378.203 340.221 378.314C340.707 378.609 341.111 379.007 341.401 379.474C341.691 379.942 341.859 380.466 341.891 381.006C341.914 381.198 341.881 381.392 341.798 381.569C341.714 381.746 341.582 381.899 341.414 382.014L342.02 381.718C342.188 381.597 342.32 381.439 342.404 381.258C342.487 381.076 342.519 380.878 342.497 380.682C342.465 380.143 342.298 379.618 342.008 379.151C341.718 378.683 341.313 378.286 340.828 377.99C340.657 377.877 340.458 377.805 340.249 377.783C340.041 377.76 339.829 377.787 339.635 377.861L339.059 378.203Z" fill="black"/>
<path opacity="0.1" d="M342.585 376.113C342.787 376.03 343.009 375.998 343.228 376.019C343.448 376.04 343.658 376.114 343.837 376.233C344.36 376.55 344.796 376.978 345.108 377.481C345.421 377.984 345.601 378.548 345.636 379.128C345.66 379.337 345.624 379.548 345.532 379.74C345.439 379.932 345.293 380.097 345.109 380.219L345.775 379.896C345.955 379.767 346.096 379.597 346.185 379.403C346.273 379.208 346.307 378.996 346.282 378.786C346.249 378.207 346.069 377.643 345.759 377.14C345.448 376.637 345.014 376.209 344.493 375.891C344.309 375.766 344.094 375.687 343.868 375.661C343.642 375.635 343.412 375.663 343.201 375.743L342.585 376.113Z" fill="black"/>
</g>
<path d="M216.391 148.521C216.023 148.66 215.656 148.789 215.308 148.956C214.96 149.122 214.741 149.233 214.473 149.372C214.205 149.511 213.797 149.733 213.479 149.927C213.161 150.121 212.952 150.269 212.694 150.454C212.436 150.639 212.088 150.898 211.79 151.138C211.492 151.379 211.313 151.536 211.084 151.749C210.855 151.961 210.528 152.276 210.259 152.553C209.991 152.831 209.832 153.025 209.623 153.266C209.414 153.506 209.126 153.876 208.888 154.19C208.649 154.505 208.52 154.69 208.351 154.949L208.232 155.134C208.043 155.43 207.864 155.735 207.695 156.059C207.636 156.151 207.586 156.244 207.536 156.336C207.397 156.586 207.258 156.845 207.139 157.104C207.019 157.363 206.92 157.566 206.821 157.797C206.721 158.029 206.681 158.084 206.622 158.241L206.443 158.657C206.324 158.953 206.214 159.259 206.115 159.582C206.016 159.906 205.926 160.119 205.847 160.387C205.698 160.877 205.549 161.377 205.429 161.895C205.336 162.24 205.257 162.591 205.191 162.949C205.191 163.143 205.111 163.328 205.071 163.532C205.032 163.735 204.992 163.948 204.962 164.17C204.873 164.688 204.813 165.233 204.753 165.779C204.753 166.038 204.684 166.288 204.664 166.547C204.664 166.648 204.664 166.741 204.664 166.843C204.594 167.767 204.555 168.637 204.555 169.571C204.583 173.337 205.067 177.087 205.996 180.753C209.693 195.874 220.257 211.504 233.177 220.448C234.69 221.514 236.27 222.496 237.907 223.389L238.583 223.731C238.961 223.925 239.338 224.129 239.716 224.305L240.581 224.702L241.515 225.118L242.459 225.498L243.284 225.812C243.612 225.932 243.93 226.043 244.278 226.145L245.063 226.395L246.007 226.672L246.842 226.876L247.696 227.079L248.829 227.283L249.356 227.375L249.803 227.421L256.581 223.796C252.381 223.169 248.349 221.797 244.705 219.754C226.22 209.84 211.313 185.701 211.313 165.908C211.313 157.871 213.777 151.786 217.931 148.031L217.276 148.206C216.967 148.299 216.679 148.41 216.391 148.521Z" fill="#263238"/>
<path d="M222.374 141.825C221.342 142.16 220.344 142.581 219.393 143.083L212.645 146.708C215.615 145.144 218.961 144.301 222.374 144.257V141.825Z" fill="#0F2446"/>
<path d="M249.366 227.375L248.839 227.283L247.706 227.079L246.852 226.876L246.295 226.746L246.017 226.672L245.103 226.395L244.318 226.145L243.324 225.812L242.499 225.498L241.555 225.118L240.621 224.702L239.756 224.305C239.378 224.129 238.991 223.925 238.603 223.722C238.394 223.611 238.176 223.518 237.957 223.398C236.379 222.534 234.853 221.589 233.386 220.568C229.178 217.651 225.364 214.272 222.026 210.505C219.143 207.272 216.557 203.82 214.294 200.184C210.557 194.222 207.775 187.785 206.036 181.076L205.976 180.762C205.048 177.102 204.565 173.358 204.535 169.598C204.535 168.729 204.535 167.887 204.634 167.055C204.634 166.935 204.634 166.814 204.634 166.694C204.63 166.611 204.63 166.528 204.634 166.444C204.694 165.751 204.774 165.066 204.883 164.401L204.943 163.975C204.943 163.753 205.032 163.55 205.072 163.328C205.111 163.106 205.201 162.717 205.27 162.403C205.34 162.088 205.41 161.755 205.489 161.478C205.569 161.2 205.688 160.812 205.797 160.479C205.797 160.35 205.867 160.22 205.907 160.1C205.946 159.98 205.907 159.998 205.956 159.952C206.046 159.684 206.135 159.406 206.234 159.138C206.334 158.87 206.493 158.509 206.632 158.213C206.771 157.917 206.97 157.408 207.169 157.02C207.367 156.632 207.457 156.484 207.606 156.215L207.785 155.901C207.944 155.623 208.113 155.355 208.282 155.087C208.451 154.819 208.61 154.615 208.779 154.384L209.007 154.079C209.126 153.903 209.256 153.737 209.385 153.58L209.693 153.219C209.782 153.117 209.862 153.006 209.961 152.904L210.508 152.322L210.697 152.146C210.925 151.924 211.154 151.702 211.402 151.489C211.512 151.397 211.641 151.314 211.75 151.23C212.048 150.99 212.346 150.759 212.655 150.546C212.963 150.333 213.171 150.185 213.44 150.019C213.708 149.852 214.096 149.64 214.433 149.464C214.771 149.288 214.98 149.177 215.268 149.048C215.556 148.918 215.984 148.752 216.352 148.613C216.719 148.474 216.928 148.391 217.226 148.298C217.524 148.206 217.673 148.169 217.902 148.104L218.409 147.984C218.707 147.919 219.005 147.836 219.313 147.781C219.621 147.725 220.188 147.651 220.625 147.605C221.062 147.559 221.211 147.522 221.519 147.503C221.827 147.485 222.056 147.503 222.334 147.503V144.396C218.922 144.44 215.576 145.282 212.605 146.846C212.187 147.078 211.78 147.318 211.373 147.577L211.164 147.707C210.002 148.477 208.933 149.36 207.974 150.342L207.646 150.675C207.357 150.981 207.079 151.295 206.801 151.6L206.562 151.924C206.102 152.501 205.674 153.1 205.28 153.718C205.141 153.949 204.992 154.181 204.853 154.421C204.714 154.662 204.505 155.032 204.336 155.346C204.167 155.66 204.018 155.984 203.859 156.271C203.7 156.558 203.561 156.918 203.422 157.251C203.203 157.769 203.005 158.306 202.816 158.851C202.736 159.11 202.647 159.378 202.567 159.647C202.428 160.109 202.299 160.572 202.17 161.062C202.11 161.302 202.051 161.533 202.001 161.774C201.835 162.477 201.696 163.198 201.583 163.938C201.583 164.123 201.534 164.308 201.514 164.484C201.424 165.113 201.355 165.742 201.305 166.334C201.305 166.565 201.305 166.796 201.255 167.027C201.196 167.85 201.166 168.683 201.166 169.534C201.247 175.02 202.188 180.466 203.959 185.7C204.868 188.473 205.95 191.193 207.198 193.849C207.861 195.193 208.524 196.521 209.186 197.835C211.336 201.783 213.833 205.56 216.65 209.127C222.245 216.203 228.993 222.205 236.248 226.099C239.128 227.695 242.218 228.938 245.441 229.798L249.774 227.486L249.366 227.375Z" fill="#455A64"/>
<path d="M283.374 195.976C283.374 177.885 269.729 155.892 252.894 146.847C244.446 142.315 236.814 141.899 231.298 144.886C229.619 145.811 218.378 151.832 216.659 152.729C211.114 155.679 207.715 162.042 207.715 171.115C207.715 189.206 221.36 211.199 238.195 220.245C246.623 224.776 254.255 225.193 259.771 222.214C261.46 221.29 272.79 215.241 274.489 214.325C279.965 211.366 283.374 205.012 283.374 195.976Z" fill="#FD7702"/>
<path opacity="0.3" d="M283.374 195.976C283.374 177.885 269.729 155.892 252.894 146.847C244.446 142.315 236.814 141.899 231.298 144.886C229.619 145.811 218.378 151.832 216.659 152.729C211.114 155.679 207.715 162.042 207.715 171.115C207.715 189.206 221.36 211.199 238.195 220.245C246.623 224.776 254.255 225.193 259.771 222.214C261.46 221.29 272.79 215.241 274.489 214.325C279.965 211.366 283.374 205.012 283.374 195.976Z" fill="black"/>
<path d="M238.147 154.736C254.973 163.781 268.618 185.784 268.618 203.865C268.618 221.946 255.042 229.29 238.147 220.244C221.252 211.199 207.667 189.206 207.667 171.115C207.667 153.025 221.332 145.691 238.147 154.736Z" fill="#FD7702"/>
<path d="M251.066 227.56H251.215C251.732 227.56 252.209 227.616 252.745 227.625H252.994C253.725 227.627 254.455 227.587 255.18 227.505H255.26C255.868 227.43 256.472 227.325 257.068 227.19C257.317 227.144 257.575 227.088 257.824 227.024C258.291 226.903 258.758 226.765 259.215 226.608C259.672 226.45 259.901 226.349 260.209 226.201C260.378 226.136 260.527 226.062 260.686 225.988C262.148 225.3 263.488 224.408 264.661 223.343C262.015 224.022 259.246 224.176 256.532 223.796L249.754 227.421C250.231 227.477 250.648 227.532 251.066 227.56Z" fill="#263238"/>
<path d="M246.385 149.372C246.558 151.796 247.683 154.078 249.545 155.781C264.065 168.202 274.679 188.364 274.679 205.446C274.679 217.877 269.074 226.718 259.911 229.687C261.082 229.332 262.205 228.854 263.26 228.263L270.008 224.637C277.183 220.79 281.457 212.614 281.457 201.802C281.457 184.729 270.833 164.558 256.313 152.146C254.456 150.439 253.332 148.16 253.153 145.737V120.571L246.385 124.215L243.046 122.421L246.385 124.215V149.372Z" fill="#0F2446"/>
<path d="M249.545 155.781C247.683 154.078 246.558 151.797 246.385 149.372V124.215L243.046 122.421V150.879C243.055 151.259 243.101 151.636 243.185 152.008L243.245 152.285C243.34 152.681 243.463 153.07 243.612 153.45C243.855 154.04 244.151 154.609 244.497 155.152L244.775 155.531C245.034 155.914 245.326 156.276 245.65 156.613C245.847 156.824 246.059 157.022 246.286 157.205C247.091 157.862 247.876 158.546 248.651 159.24L249.267 159.804C249.943 160.433 250.609 161.071 251.255 161.737L251.553 162.024C252.288 162.773 253.004 163.541 253.719 164.336L254.256 164.946C254.842 165.612 255.419 166.297 255.975 166.981L256.383 167.481C257.049 168.304 257.695 169.155 258.321 170.006L258.758 170.625C259.275 171.337 259.752 172.068 260.259 172.799L260.676 173.428C261.263 174.352 261.819 175.222 262.366 176.137L262.674 176.683C263.121 177.451 263.558 178.228 263.976 179.014L264.363 179.744C264.854 180.675 265.321 181.619 265.765 182.575C265.814 182.704 265.874 182.824 265.924 182.954C266.311 183.795 266.679 184.646 267.037 185.506C267.136 185.765 267.245 186.015 267.345 186.274C267.732 187.199 268.1 188.226 268.428 189.197C268.756 190.168 269.064 191.157 269.342 192.138L269.521 192.767C269.78 193.691 270.018 194.672 270.227 195.624L270.316 196.105C270.502 196.981 270.661 197.85 270.793 198.714C270.793 198.871 270.843 199.037 270.873 199.194C271.002 200.119 271.111 201.044 271.181 201.969C271.181 202.173 271.181 202.376 271.231 202.58C271.29 203.504 271.34 204.485 271.34 205.419C271.34 210.968 270.157 215.592 268.04 219.209C267.586 219.983 267.071 220.725 266.5 221.428C266.222 221.771 265.933 222.104 265.635 222.418C265.337 222.732 265.029 223.028 264.711 223.343C263.538 224.408 262.198 225.3 260.736 225.988C260.587 226.062 260.428 226.136 260.259 226.201C259.931 226.349 259.593 226.487 259.265 226.608C258.937 226.728 258.41 226.885 257.983 226.996H257.874C257.625 227.061 257.377 227.116 257.118 227.163L256.671 227.274C256.224 227.357 255.767 227.422 255.31 227.477H255.23C254.505 227.56 253.774 227.6 253.044 227.597H252.477C252.08 227.597 251.672 227.597 251.265 227.533H251.066C250.649 227.533 250.231 227.459 249.804 227.403L245.471 229.715C247.875 230.36 250.363 230.697 252.865 230.714C253.203 230.714 253.531 230.714 253.859 230.668C254.187 230.622 254.763 230.668 255.18 230.603L255.946 230.501C256.433 230.437 256.939 230.372 257.367 230.289C257.595 230.289 257.824 230.196 258.053 230.141L258.331 230.067C258.758 229.965 259.185 229.872 259.603 229.743L259.901 229.66C269.064 226.719 274.669 217.849 274.669 205.419C274.679 188.364 264.065 168.202 249.545 155.781Z" fill="#455A64"/>
<path d="M231.189 148.003L231.329 147.947C231.41 147.92 231.486 147.883 231.557 147.836L238.335 144.192C238.771 143.934 239.124 143.571 239.357 143.141C239.589 142.711 239.693 142.231 239.657 141.751V113.292L232.889 116.936V145.395C232.937 145.941 232.799 146.487 232.494 146.955C232.188 147.424 231.732 147.79 231.189 148.003Z" fill="#0F2446"/>
<path d="M223.021 144.248C224.648 144.254 226.271 144.396 227.871 144.673C228.068 144.723 228.275 144.729 228.474 144.69C228.674 144.651 228.861 144.569 229.02 144.45C229.179 144.331 229.306 144.178 229.389 144.005C229.473 143.832 229.511 143.642 229.501 143.452V140.622C227.07 140.649 224.661 141.055 222.375 141.825V144.285C222.594 144.276 222.802 144.248 223.021 144.248Z" fill="#0F2446"/>
<path d="M223.876 147.374C224.681 147.402 225.484 147.469 226.281 147.577C227.056 147.688 227.851 147.836 228.646 148.021H228.795H228.875C229.13 148.078 229.389 148.119 229.65 148.141H229.719C229.934 148.16 230.15 148.16 230.365 148.141H230.485C230.687 148.111 230.887 148.064 231.081 148.003C231.623 147.79 232.08 147.423 232.385 146.955C232.69 146.487 232.829 145.941 232.78 145.395V116.936L229.441 115.087V143.406C229.451 143.596 229.413 143.785 229.33 143.959C229.246 144.132 229.12 144.284 228.961 144.404C228.802 144.523 228.615 144.605 228.415 144.644C228.215 144.683 228.008 144.677 227.811 144.627C226.212 144.35 224.588 144.208 222.961 144.202C222.743 144.202 222.534 144.202 222.315 144.202V147.309C222.554 147.309 222.783 147.309 223.021 147.309C223.26 147.309 223.607 147.365 223.876 147.374Z" fill="#455A64"/>
<path d="M280.255 213.179C280.255 186.45 260.09 153.987 235.215 140.586C222.792 133.908 211.552 133.279 203.413 137.645L189.808 144.951C181.678 149.335 176.64 158.704 176.64 172.059C176.64 198.788 196.804 231.25 221.669 244.652C234.092 251.32 245.332 251.958 253.472 247.593L267.067 240.268C275.216 235.912 280.255 226.534 280.255 213.179Z" fill="#FD7702"/>
<path opacity="0.1" d="M253.517 247.584C271.104 238.135 271.104 207.492 253.515 179.141C235.926 150.79 207.411 135.468 189.823 144.917C172.236 154.367 172.237 185.01 189.825 213.361C207.414 241.712 235.93 257.034 253.517 247.584Z" fill="black"/>
<path d="M266.728 220.457C266.728 193.729 246.564 161.266 221.689 147.864C209.246 141.177 197.986 140.558 189.837 144.951L183.099 148.567C174.929 152.942 169.881 162.329 169.881 175.703C169.881 202.432 190.045 234.895 214.911 248.296C227.353 254.973 238.613 255.602 246.763 251.218L253.54 247.575C261.68 243.2 266.728 233.794 266.728 220.457Z" fill="#F0F0F0"/>
<path d="M214.911 151.48C239.756 164.845 259.95 197.345 259.95 224.073C259.95 250.802 239.786 261.632 214.911 248.268C190.035 234.904 169.881 202.404 169.881 175.675C169.881 148.946 190.045 138.144 214.911 151.48Z" fill="#E0E0E0"/>
<path d="M263.26 224.101C263.26 196.429 242.31 162.662 216.55 148.826C208.967 144.747 201.643 142.685 194.766 142.685C190.064 142.624 185.43 143.739 181.349 145.913C179.103 147.133 170.02 151.97 167.714 153.219C158.472 158.26 152.966 168.859 152.966 182.991C152.966 210.663 173.915 244.43 199.675 258.266C207.258 262.345 214.582 264.407 221.46 264.407C226.193 264.468 230.856 263.337 234.956 261.133C237.162 259.921 246.136 255.149 248.422 253.919C257.724 248.897 263.26 238.279 263.26 224.101Z" fill="#455A64"/>
<path d="M221.46 264.407C214.592 264.407 207.258 262.345 199.675 258.266C173.925 244.393 152.966 210.663 152.966 182.991C152.966 162.921 164.057 149.964 181.22 149.964C188.097 149.964 195.422 152.026 203.004 156.105C228.754 169.978 249.714 203.708 249.714 231.38C249.714 251.44 238.623 264.407 221.46 264.407Z" fill="#0F2446"/>
<path d="M211.393 235.764C207.521 235.655 203.75 234.596 200.461 232.693C187.601 225.784 177.136 208.924 177.136 195.097C177.136 185.081 182.681 178.607 191.248 178.607C195.101 178.723 198.853 179.778 202.13 181.668C214.99 188.586 225.455 205.446 225.455 219.273C225.505 229.29 219.959 235.764 211.393 235.764Z" fill="#263238"/>
<path d="M153.95 282.812C153.95 255.14 133 221.373 107.241 207.528C99.6578 203.458 92.3334 201.396 85.4661 201.396C80.7639 201.333 76.1299 202.448 72.0496 204.624C69.8036 205.844 60.7101 210.682 58.4144 211.93C49.162 216.971 43.6562 227.57 43.6562 241.692C43.6562 269.365 64.6059 303.141 90.3656 316.977C97.9484 321.056 105.273 323.118 112.14 323.118C116.881 323.171 121.548 322.027 125.646 319.807C127.862 318.596 136.836 313.823 139.112 312.593C148.414 307.608 153.95 296.991 153.95 282.812Z" fill="#455A64"/>
<path d="M112.15 323.118C105.283 323.118 97.9582 321.055 90.3754 316.977C64.6157 303.104 43.666 269.364 43.666 241.692C43.666 221.632 54.757 208.674 71.9302 208.674C78.7974 208.674 86.1219 210.737 93.7047 214.806C119.454 228.679 140.414 262.418 140.414 290.091C140.404 310.151 129.313 323.118 112.15 323.118Z" fill="#0F2446"/>
<path d="M137.075 290.091C137.075 263.362 116.911 230.899 92.0353 217.497C79.5927 210.811 68.3328 210.182 60.2332 214.575L53.4951 218.2C45.3359 222.575 40.2773 231.953 40.2773 245.327C40.2773 272.056 60.4419 304.519 85.3171 317.92C97.7597 324.607 109.01 325.227 117.119 320.852L123.897 317.208C132.036 312.824 137.075 303.446 137.075 290.091Z" fill="#F0F0F0"/>
<path d="M85.2663 221.133C110.112 234.497 130.306 266.997 130.306 293.726C130.306 320.454 110.142 331.285 85.2663 317.957C60.3911 304.63 40.2266 272.093 40.2266 245.364C40.2266 218.635 60.3911 207.768 85.2663 221.133Z" fill="#E0E0E0"/>
<path d="M130.308 293.726C130.308 266.997 110.143 234.534 85.2681 221.133C72.8454 214.455 61.6053 213.826 53.466 218.191L39.8606 225.47C31.7213 229.854 26.6826 239.232 26.6826 252.578C26.6826 279.307 46.8472 311.77 71.7224 325.171C84.1352 331.849 95.3752 332.478 103.525 328.112L117.11 320.815C125.259 316.468 130.308 307.09 130.308 293.726Z" fill="#FD7702"/>
<path opacity="0.1" d="M71.7224 228.411C96.5678 241.775 116.752 274.275 116.752 301.004C116.752 327.733 96.5976 338.563 71.7224 325.199C46.8472 311.834 26.6826 279.334 26.6826 252.606C26.6826 225.877 46.8472 215.047 71.7224 228.411Z" fill="black"/>
<path d="M39.3832 243.625C39.0155 243.755 38.6478 243.894 38.29 244.051C37.9323 244.208 37.7335 244.328 37.4652 244.476C37.1968 244.624 36.7894 244.837 36.4713 245.031C36.1533 245.225 35.9446 245.373 35.6862 245.558C35.4278 245.743 35.08 245.993 34.7819 246.234L34.0663 246.853C33.788 247.112 33.5197 247.38 33.2514 247.658C32.9831 247.935 32.8141 248.13 32.6054 248.37C32.3967 248.61 32.1184 248.98 31.8799 249.295C31.6414 249.609 31.5122 249.804 31.3433 250.062L31.224 250.247C31.0352 250.543 30.8563 250.839 30.6774 251.172L30.5283 251.45C30.3892 251.7 30.2501 251.949 30.1209 252.208C29.9917 252.467 29.9122 252.671 29.8128 252.902C29.7134 253.133 29.6736 253.198 29.614 253.346L29.4351 253.771C29.3159 254.067 29.2066 254.372 29.0972 254.696C28.9879 255.02 28.9183 255.233 28.8388 255.501C28.6798 255.988 28.5407 256.487 28.4214 256.999C28.332 257.35 28.2525 257.702 28.1829 258.063L28.0637 258.636C28.0637 258.849 27.9842 259.061 27.9543 259.274C27.8649 259.801 27.8053 260.338 27.7456 260.883C27.7456 261.142 27.6761 261.392 27.6562 261.66C27.6562 261.753 27.6562 261.855 27.6562 261.956C27.5866 262.835 27.5469 263.741 27.5469 264.685C27.5756 268.45 28.059 272.201 28.9879 275.866C32.7048 291.016 43.279 306.646 56.2185 315.589C57.7368 316.649 59.316 317.631 60.9491 318.531L61.6248 318.873L62.7578 319.446L63.6224 319.844L64.5566 320.251C64.8746 320.39 65.1827 320.51 65.5504 320.63C65.9181 320.75 66.097 320.852 66.3753 320.944L67.3691 321.287L68.1443 321.536L69.1381 321.805L69.9729 322.017L70.8276 322.212C71.2052 322.295 71.5829 322.359 71.9605 322.424L72.4773 322.517L72.9245 322.563L79.5533 318.882C75.3347 318.265 71.2847 316.892 67.6275 314.84C49.1723 304.926 34.2154 280.833 34.2154 260.994C34.2154 252.967 36.68 246.881 40.8342 243.126C40.6156 243.181 40.387 243.228 40.1783 243.292L39.3832 243.625Z" fill="#263238"/>
<path d="M45.3466 236.929C44.3163 237.265 43.3188 237.683 42.3652 238.178L35.6172 241.803C38.5916 240.252 41.9373 239.422 45.3466 239.389V236.929Z" fill="#0F2446"/>
<path d="M72.3173 322.48L71.8005 322.387C71.4229 322.322 71.0552 322.258 70.6676 322.174C70.28 322.091 70.1011 322.045 69.8129 321.98L69.2464 321.851L68.9781 321.768L67.9843 321.499L67.1892 321.25L66.1954 320.907C65.9171 320.815 65.6488 320.704 65.3705 320.593L64.3767 320.223L63.4425 319.807L62.5779 319.409L61.4251 318.826L60.7791 318.503C59.2028 317.635 57.6769 316.69 56.2075 315.673C52.0002 312.756 48.1862 309.377 44.8482 305.61C41.9777 302.376 39.4046 298.924 37.1561 295.288C33.4042 289.311 30.6118 282.855 28.8676 276.125C28.8676 276.023 28.8676 275.922 28.7981 275.811C27.9079 272.151 27.458 268.41 27.4564 264.657C27.4564 263.787 27.4564 262.946 27.5558 262.113C27.5558 261.993 27.5558 261.864 27.5558 261.743C27.5512 261.66 27.5512 261.577 27.5558 261.494C27.6154 260.8 27.6949 260.125 27.8042 259.459L27.8639 259.034C27.8639 258.812 27.9533 258.599 27.9931 258.386C28.0328 258.173 28.1223 257.776 28.1819 257.461C28.2415 257.147 28.321 256.814 28.4105 256.536C28.4999 256.259 28.6092 255.861 28.7086 255.528L28.8279 255.158C28.8324 255.109 28.8324 255.06 28.8279 255.01C28.9273 254.733 29.0167 254.465 29.1161 254.197C29.2155 253.928 29.3745 253.558 29.5037 253.272C29.6329 252.985 29.8515 252.467 30.0503 252.088C30.249 251.709 30.3385 251.551 30.4876 251.283L30.6664 250.959C30.8255 250.691 30.9944 250.414 31.1633 250.155C31.3323 249.896 31.4913 249.683 31.6603 249.452L31.8789 249.137L32.4255 248.592L32.7236 248.24C32.823 248.139 32.9025 248.028 33.0019 247.926C33.1013 247.824 33.3597 247.537 33.5485 247.343L33.7274 247.167L34.433 246.511C34.5423 246.418 34.6715 246.344 34.7808 246.252C35.079 246.011 35.3771 245.789 35.6852 245.577C35.9933 245.364 36.202 245.216 36.4703 245.05C36.7387 244.883 37.1262 244.67 37.4641 244.495C37.802 244.319 38.0107 244.199 38.289 244.069C38.5673 243.94 39.0145 243.773 39.3822 243.644L40.2568 243.32L40.9326 243.135L41.3698 243.043C41.668 242.969 41.9661 242.895 42.2742 242.839C42.5823 242.784 43.1388 242.71 43.5861 242.663C43.8842 242.663 44.1724 242.58 44.4805 242.552C44.7886 242.525 45.0172 242.552 45.2954 242.552V239.445C41.8826 239.489 38.5367 240.332 35.566 241.896C35.1386 242.118 34.7311 242.367 34.3336 242.617L34.1249 242.756C32.9601 243.526 31.8872 244.409 30.9248 245.392L30.6068 245.725C30.3186 246.03 30.0403 246.344 29.7621 246.65C29.6826 246.751 29.6031 246.862 29.5136 246.964C29.0664 247.537 28.6391 248.139 28.2415 248.814L27.8142 249.507C27.6353 249.813 27.4664 250.127 27.2974 250.432C27.1285 250.737 26.9794 251.07 26.8204 251.403C26.6614 251.736 26.5222 252.042 26.3831 252.384C26.1644 252.902 25.9657 253.429 25.7769 253.975C25.6874 254.234 25.6079 254.502 25.5284 254.77C25.3893 255.242 25.2501 255.695 25.1309 256.194L24.952 256.906C24.793 257.609 24.6538 258.331 24.5445 259.071C24.5445 259.246 24.5445 259.441 24.475 259.616C24.3855 260.236 24.316 260.865 24.2663 261.466L24.2066 262.16C24.1569 262.983 24.1172 263.815 24.1172 264.666C24.1876 270.142 25.1184 275.579 26.88 280.805C27.7893 283.574 28.871 286.292 30.1198 288.944C30.7493 290.282 31.4118 291.611 32.1075 292.93C34.2533 296.881 36.7498 300.658 39.571 304.223C45.1662 311.298 51.9142 317.3 59.1691 321.203C62.0539 322.792 65.1426 324.035 68.3619 324.903L72.6949 322.581L72.3173 322.48Z" fill="#455A64"/>
<path d="M102.202 293.18C102.202 275.099 88.5571 253.096 71.7219 244.051C63.2744 239.519 55.6419 239.103 50.1262 242.099L35.4873 249.933C29.9418 252.883 26.543 259.256 26.543 268.319C26.543 286.41 40.1881 308.403 57.0233 317.448C65.4509 321.98 73.0834 322.406 78.5991 319.418L93.3175 311.538C98.7934 308.57 102.202 302.234 102.202 293.18Z" fill="#FD7702"/>
<path opacity="0.3" d="M102.202 293.18C102.202 275.099 88.5571 253.096 71.7219 244.051C63.2744 239.519 55.6419 239.103 50.1262 242.099L35.4873 249.933C29.9418 252.883 26.543 259.256 26.543 268.319C26.543 286.41 40.1881 308.403 57.0233 317.448C65.4509 321.98 73.0834 322.406 78.5991 319.418L93.3175 311.538C98.7934 308.57 102.202 302.234 102.202 293.18Z" fill="black"/>
<path d="M78.5397 319.432C90.4421 313.037 90.4422 292.3 78.54 273.115C66.6378 253.93 47.3403 243.561 35.4379 249.957C23.5355 256.352 23.5354 277.088 35.4376 296.274C47.3399 315.459 66.6373 325.827 78.5397 319.432Z" fill="#FD7702"/>
<path d="M72.8227 313.713C82.1009 308.751 82.1338 292.602 72.8964 277.644C63.6589 262.686 48.649 254.583 39.3709 259.545C30.0927 264.508 30.0597 280.656 39.2972 295.614C48.5347 310.573 63.5446 318.676 72.8227 313.713Z" fill="#263238"/>
<path d="M68.74 272.944L54.7471 285.947L38.041 259.006C42.3045 256.694 48.2276 257.027 54.7471 260.532C60.2983 263.706 65.0667 267.936 68.74 272.944Z" fill="#455A64"/>
<path d="M78.4099 298.673C78.4099 305.684 75.7564 310.623 71.4531 312.898L54.7471 285.947L68.74 272.944C74.5936 280.722 78.4099 290.211 78.4099 298.673Z" fill="#0F2446"/>
<path d="M71.4744 312.898C67.2109 315.182 61.248 314.886 54.7484 311.381C49.1876 308.217 44.4223 303.978 40.7754 298.951L54.7484 285.947L71.4744 312.898Z" fill="#455A64"/>
<path d="M54.7474 285.947L40.7743 298.951C34.9009 291.182 31.1045 281.665 31.1045 273.258C31.1045 266.229 33.758 261.309 38.0612 259.006L54.7474 285.947Z" fill="#0F2446"/>
<path d="M74.0272 322.664H74.1663C74.6831 322.664 75.1601 322.72 75.6968 322.72H75.9453C76.6906 322.72 77.4161 322.674 78.1317 322.6H78.2112C78.82 322.531 79.4239 322.429 80.0199 322.295C80.2684 322.239 80.5268 322.193 80.7752 322.128C81.2423 322.008 81.7094 321.86 82.1566 321.703C82.6038 321.545 82.8523 321.444 83.1504 321.305L83.6275 321.083C85.0912 320.401 86.4322 319.512 87.6027 318.447C84.9562 319.123 82.1866 319.274 79.4733 318.891L72.6855 322.526C73.1725 322.581 73.6098 322.637 74.0272 322.664Z" fill="#263238"/>
<path d="M69.3473 244.476C69.5221 246.901 70.6466 249.181 72.5077 250.886C87.0174 263.297 97.6413 283.469 97.6413 300.542C97.6413 312.981 92.0362 321.814 82.8732 324.783C84.0446 324.433 85.1685 323.958 86.2223 323.368L92.9703 319.742C100.146 315.895 104.419 307.719 104.419 296.907C104.419 279.834 93.7952 259.663 79.2755 247.251C77.4306 245.54 76.3208 243.261 76.155 240.841V215.676L69.3871 219.32L66.0479 217.526L69.3871 219.32L69.3473 244.476Z" fill="#0F2446"/>
<path d="M72.5064 250.885C70.6453 249.181 69.5208 246.901 69.3461 244.476V219.32L66.0068 217.525V245.984C66.0156 246.36 66.0622 246.735 66.146 247.103L66.2056 247.389C66.3006 247.785 66.4234 248.174 66.5733 248.555C66.8136 249.142 67.1096 249.709 67.4578 250.247C67.5473 250.386 67.6367 250.506 67.7361 250.636C67.9944 251.016 68.2834 251.378 68.6007 251.718C68.8034 251.927 69.0191 252.124 69.2467 252.31C70.0517 252.957 70.8368 253.642 71.612 254.344L72.2281 254.909C72.9039 255.537 73.5698 256.176 74.2158 256.832L74.5139 257.128C75.2493 257.877 75.9649 258.645 76.6705 259.431C76.8593 259.635 77.0382 259.847 77.2171 260.051C77.8034 260.717 78.3799 261.392 78.9364 262.086C79.0755 262.252 79.2147 262.409 79.3439 262.576C80.0097 263.408 80.6457 264.25 81.3315 265.11L81.7688 265.73C82.2855 266.442 82.7626 267.163 83.2694 267.894L83.6868 268.532C84.2732 269.457 84.8297 270.326 85.3763 271.233L85.6844 271.787C86.1316 272.555 86.5689 273.332 86.9863 274.118L87.3739 274.84C87.8609 275.764 88.3677 276.689 88.7652 277.679C88.8249 277.799 88.8845 277.929 88.9342 278.049C89.3251 278.9 89.6928 279.751 90.0373 280.601C90.1466 280.86 90.256 281.119 90.3553 281.378C90.733 282.349 91.1106 283.321 91.4386 284.301C91.7666 285.281 92.0647 286.262 92.3529 287.242C92.4125 287.445 92.4722 287.658 92.5219 287.871C92.7935 288.82 93.032 289.773 93.2374 290.729L93.3268 291.21C93.5157 292.079 93.6647 292.948 93.8039 293.818C93.8039 293.975 93.8039 294.132 93.8734 294.29C94.0126 295.214 94.112 296.139 94.1915 297.064C94.1915 297.268 94.1915 297.471 94.1915 297.675C94.2511 298.599 94.3008 299.571 94.3008 300.505C94.3008 306.054 93.1181 310.724 91.0013 314.304C90.5473 315.078 90.0324 315.82 89.4609 316.523C89.1826 316.866 88.8944 317.199 88.5963 317.513C88.2981 317.827 87.99 318.123 87.672 318.438C86.5015 319.503 85.1605 320.392 83.6968 321.074L83.2197 321.296C82.8818 321.434 82.5439 321.573 82.2259 321.693C81.9079 321.814 81.3812 321.98 80.9538 322.091H80.8445C80.5961 322.156 80.3377 322.202 80.0892 322.258L79.642 322.359C79.1948 322.443 78.7376 322.517 78.2805 322.563H78.1413C77.4155 322.64 76.6856 322.681 75.9549 322.683H75.3885C74.9909 322.683 74.5835 322.683 74.176 322.618H74.0269C73.6095 322.618 73.1822 322.535 72.7648 322.48L68.4318 324.801C70.8358 325.447 73.3236 325.783 75.8257 325.8C76.1636 325.8 76.4916 325.8 76.8196 325.8C77.1475 325.8 77.7239 325.8 78.1413 325.735L78.9066 325.633C79.3935 325.569 79.9004 325.504 80.3178 325.421L81.0135 325.273L81.2917 325.199C81.7191 325.097 82.1464 324.995 82.5638 324.875L82.862 324.782C92.0249 321.851 97.6301 312.981 97.6301 300.542C97.64 283.469 87.0161 263.297 72.5064 250.885Z" fill="#455A64"/>
<path d="M54.0908 243.107L54.2896 243.042L54.5182 242.931L61.2463 239.343C61.6824 239.084 62.0354 238.721 62.268 238.291C62.5007 237.862 62.6043 237.381 62.5681 236.901V208.397L55.8002 212.041V240.49C55.8498 241.038 55.7111 241.587 55.4038 242.058C55.0966 242.528 54.6369 242.896 54.0908 243.107Z" fill="#0F2446"/>
<path d="M45.9819 239.343C47.6092 239.345 49.2328 239.487 50.8317 239.769C51.0286 239.816 51.2347 239.821 51.4336 239.781C51.6325 239.741 51.8186 239.659 51.9771 239.54C52.1355 239.421 52.2619 239.27 52.346 239.098C52.4302 238.925 52.4698 238.737 52.4616 238.548V235.718C50.0298 235.734 47.6193 236.141 45.3359 236.92V239.38C45.5546 239.343 45.7633 239.343 45.9819 239.343Z" fill="#0F2446"/>
<path d="M46.8363 242.469C47.6214 242.469 48.4264 242.571 49.2414 242.682C50.0375 242.791 50.827 242.94 51.6066 243.126C51.6529 243.121 51.6996 243.121 51.7458 243.126H51.8352C52.0926 243.188 52.3553 243.228 52.6203 243.246H52.6899C52.905 243.26 53.1208 243.26 53.3359 243.246H53.4551C53.6586 243.219 53.8585 243.173 54.0514 243.107C54.5975 242.896 55.0573 242.528 55.3645 242.058C55.6717 241.587 55.8105 241.038 55.7608 240.49V212.041L52.4216 210.191V238.52C52.4297 238.709 52.3901 238.897 52.306 239.07C52.2219 239.242 52.0955 239.394 51.937 239.512C51.7786 239.631 51.5924 239.713 51.3935 239.753C51.1946 239.793 50.9885 239.789 50.7917 239.741C49.1928 239.459 47.5692 239.317 45.9419 239.315C45.7232 239.315 45.5145 239.315 45.2959 239.315V242.423H46.0015C46.3394 242.478 46.568 242.46 46.8363 242.469Z" fill="#455A64"/>
<path d="M57.9178 194.672C56.6855 194.015 54.996 194.108 53.1276 195.116C51.1476 196.308 49.4999 197.921 48.3199 199.821C47.14 201.722 46.4613 203.856 46.3398 206.048C46.3398 208.073 47.1051 209.497 48.3275 210.145L75.399 224.684L84.9397 209.229L57.9178 194.672Z" fill="#FD7702"/>
<path opacity="0.3" d="M57.9178 194.672C56.6855 194.015 54.996 194.108 53.1276 195.116C51.1476 196.308 49.4999 197.921 48.3199 199.821C47.14 201.722 46.4613 203.856 46.3398 206.048C46.3398 208.073 47.1051 209.497 48.3275 210.145L75.399 224.684L84.9397 209.229L57.9178 194.672Z" fill="black"/>
<path opacity="0.3" d="M47.1647 202.209C46.6512 203.434 46.372 204.733 46.3398 206.048C46.3398 208.073 47.1051 209.498 48.3275 210.145L75.399 224.684L78.7681 219.227L47.1647 202.209Z" fill="black"/>
<path d="M73.4414 220.587C73.5649 218.399 74.2434 216.269 75.4215 214.372C76.5996 212.475 78.2437 210.865 80.2192 209.673C82.0677 208.674 83.7473 208.572 84.9697 209.211C86.1921 209.849 86.9573 211.282 86.9573 213.308C86.8302 215.495 86.1512 217.624 84.9754 219.522C83.7996 221.419 82.16 223.033 80.1894 224.231C78.3111 225.23 76.6216 225.331 75.3992 224.665C74.1768 223.999 73.4414 222.603 73.4414 220.587Z" fill="#FD7702"/>
<path opacity="0.2" d="M73.4414 220.587C73.5649 218.399 74.2434 216.269 75.4215 214.372C76.5996 212.475 78.2437 210.865 80.2192 209.673C82.0677 208.674 83.7473 208.572 84.9697 209.211C86.1921 209.849 86.9573 211.282 86.9573 213.308C86.8302 215.495 86.1512 217.624 84.9754 219.522C83.7996 221.419 82.16 223.033 80.1894 224.231C78.3111 225.23 76.6216 225.331 75.3992 224.665C74.1768 223.999 73.4414 222.603 73.4414 220.587Z" fill="black"/>
<path d="M76.3719 218.996C76.4444 217.755 76.8304 216.546 77.4987 215.47C78.1669 214.393 79.0986 213.478 80.218 212.799C80.5854 212.496 81.0463 212.308 81.5351 212.262C82.0239 212.217 82.5157 212.316 82.9406 212.545C83.3655 212.775 83.7019 213.123 83.9018 213.541C84.1017 213.958 84.155 214.424 84.0541 214.871C83.9812 216.11 83.596 217.316 82.9296 218.391C82.2632 219.466 81.3343 220.38 80.218 221.059C79.8498 221.358 79.39 221.544 78.9031 221.588C78.4162 221.633 77.9265 221.534 77.5025 221.307C77.0786 221.08 76.7417 220.735 76.539 220.32C76.3362 219.906 76.2778 219.443 76.3719 218.996Z" fill="#0F2446"/>
<path d="M82.2554 213.946C82.2745 213.388 82.1339 212.836 81.848 212.346C81.2715 212.377 80.7119 212.539 80.2181 212.818C79.0987 213.496 78.167 214.411 77.4988 215.488C76.8305 216.565 76.4445 217.773 76.372 219.014C76.3581 219.571 76.4984 220.123 76.7795 220.615C77.3592 220.584 77.9221 220.422 78.4193 220.143C79.5369 219.463 80.4666 218.548 81.1331 217.471C81.7996 216.394 82.1841 215.187 82.2554 213.946Z" fill="#263238"/>
<path d="M234.013 100.058C232.791 99.4009 231.092 99.4934 229.223 100.501C227.251 101.697 225.609 103.308 224.432 105.204C223.254 107.1 222.574 109.228 222.445 111.415C222.445 113.44 223.22 114.855 224.433 115.512L251.495 130.051L261.045 114.596L234.013 100.058Z" fill="#FD7702"/>
<path opacity="0.3" d="M234.013 100.058C232.791 99.4009 231.092 99.4934 229.223 100.501C227.251 101.697 225.609 103.308 224.432 105.204C223.254 107.1 222.574 109.228 222.445 111.415C222.445 113.44 223.22 114.855 224.433 115.512L251.495 130.051L261.045 114.596L234.013 100.058Z" fill="black"/>
<path opacity="0.3" d="M223.239 107.586C222.736 108.81 222.46 110.105 222.424 111.415C222.424 113.44 223.199 114.855 224.411 115.512L251.473 130.051L254.852 124.585L223.239 107.586Z" fill="black"/>
<path d="M249.545 125.972C249.672 123.785 250.351 121.656 251.527 119.759C252.703 117.861 254.342 116.248 256.313 115.05C258.171 114.06 259.851 113.958 261.073 114.596C262.296 115.235 263.061 116.668 263.061 118.694C262.937 120.882 262.259 123.011 261.081 124.908C259.903 126.805 258.258 128.415 256.283 129.607C254.415 130.615 252.725 130.708 251.493 130.051C250.26 129.394 249.545 127.979 249.545 125.972Z" fill="#FD7702"/>
<path opacity="0.2" d="M249.545 125.972C249.672 123.785 250.351 121.656 251.527 119.759C252.703 117.861 254.342 116.248 256.313 115.05C258.171 114.06 259.851 113.958 261.073 114.596C262.296 115.235 263.061 116.668 263.061 118.694C262.937 120.882 262.259 123.011 261.081 124.908C259.903 126.805 258.258 128.415 256.283 129.607C254.415 130.615 252.725 130.708 251.493 130.051C250.26 129.394 249.545 127.979 249.545 125.972Z" fill="black"/>
<path d="M252.477 124.4C252.548 123.159 252.933 121.952 253.599 120.875C254.266 119.798 255.195 118.883 256.313 118.203C256.7 117.944 257.153 117.784 257.628 117.739C258.102 117.694 258.581 117.764 259.016 117.944C259.414 118.2 259.729 118.55 259.931 118.959C260.132 119.367 260.211 119.819 260.159 120.266C260.088 121.508 259.703 122.716 259.035 123.793C258.366 124.87 257.434 125.785 256.313 126.463C255.946 126.765 255.487 126.952 254.999 126.998C254.512 127.043 254.021 126.945 253.597 126.717C253.173 126.489 252.836 126.143 252.635 125.727C252.434 125.311 252.379 124.847 252.477 124.4Z" fill="#0F2446"/>
<path d="M258.361 119.332C258.375 118.775 258.235 118.224 257.954 117.732C257.374 117.762 256.811 117.924 256.314 118.203C255.195 118.883 254.264 119.798 253.596 120.874C252.928 121.951 252.541 123.159 252.468 124.4C252.452 124.958 252.596 125.511 252.885 126C253.462 125.969 254.021 125.807 254.515 125.528C255.634 124.849 256.565 123.934 257.234 122.858C257.902 121.781 258.288 120.573 258.361 119.332Z" fill="#263238"/>
<path d="M254.852 47.5251L225.634 31.8021C223.763 28.4849 221.518 25.3627 218.936 22.4885C234.618 25.032 247.021 33.8739 254.852 47.5251Z" fill="#FD7702"/>
<path opacity="0.2" d="M254.852 47.5251L225.634 31.8021C223.763 28.4849 221.518 25.3627 218.936 22.4885C234.618 25.032 247.021 33.8739 254.852 47.5251Z" fill="black"/>
<path d="M249.446 115.207C250.932 107.854 251.701 100.39 251.742 92.9084C251.742 42.3271 213.589 21.8227 166.522 47.118C119.455 72.4132 81.2921 133.908 81.2921 184.489C81.2462 191.165 82.0197 197.824 83.5977 204.337L72.6061 210.247C71.2377 203.653 70.5719 196.949 70.6185 190.233C70.6185 133.307 113.571 64.0709 166.552 35.6126C219.532 7.15428 262.475 30.2206 262.475 87.1557C262.458 94.5925 261.793 102.016 260.487 109.353L249.555 115.244" fill="#0F2446"/>
<path d="M249.456 115.207C250.935 107.85 251.7 100.384 251.741 92.8989C251.741 59.5388 235.145 39.2564 210.329 36.5835C218.091 46.2207 222.543 59.9735 222.543 77.2778C222.496 84.7408 221.731 92.1849 220.257 99.521L249.456 115.207Z" fill="#263238"/>
<path d="M232.611 28.4722C215.398 20.1484 192.133 21.8687 166.522 35.6307C113.532 64.0705 70.5893 133.297 70.5893 190.241C70.5422 196.951 71.208 203.649 72.5769 210.237L43.4283 194.57C42.0301 187.994 41.341 181.305 41.3711 174.602C41.3711 117.667 84.3139 48.4402 137.304 19.9727C163.77 5.74817 187.72 4.40711 205.082 13.7206C209.535 16.0697 225.923 24.8837 232.611 28.4722Z" fill="#455A64"/>
<path d="M57.6896 186.82C56.877 186.793 56.0858 186.569 55.3938 186.172C53.9719 185.308 52.7871 184.146 51.9346 182.78C51.082 181.413 50.5854 179.879 50.4844 178.302C50.4844 176.193 51.6571 174.833 53.4658 174.833C54.2777 174.857 55.0689 175.077 55.7616 175.472C57.1868 176.343 58.373 177.513 59.2255 178.888C60.078 180.263 60.573 181.804 60.671 183.388C60.6611 185.451 59.4884 186.82 57.6896 186.82Z" fill="#263238"/>
<path d="M236.944 23.0066C228.459 18.7706 218.955 16.6128 209.326 16.736C194.687 16.736 179.074 21.1383 162.905 29.8136C125.488 49.9111 92.841 89.7453 75.8468 131.744L46.6484 116.021C63.6427 74.0225 96.3393 34.1883 133.707 14.0908C149.876 5.41554 165.509 0.994661 180.128 0.994661C190.123 0.867496 199.976 3.21001 208.68 7.78321C213.302 10.3174 230.763 19.677 236.944 23.0066Z" fill="#FD7702"/>
<path opacity="0.6" d="M236.944 23.0066C228.459 18.7706 218.955 16.6128 209.326 16.736C194.687 16.736 179.074 21.1383 162.905 29.8136C125.488 49.9111 92.841 89.7453 75.8468 131.744L46.6484 116.021C63.6427 74.0225 96.3393 34.1883 133.707 14.0908C149.876 5.41554 165.509 0.994661 180.128 0.994661C190.123 0.867496 199.976 3.21001 208.68 7.78321C213.302 10.3174 230.763 19.677 236.944 23.0066Z" fill="white"/>
<path d="M254.842 47.5157C245.48 31.2473 229.589 21.7489 209.325 21.7489C195.64 21.7489 180.922 25.92 165.597 34.1606C128.925 53.8604 96.9544 93.0563 80.5166 134.259L75.8457 131.744C92.84 89.7453 125.487 49.9112 162.904 29.8137C179.073 21.1385 194.706 16.7361 209.325 16.7361C230.652 16.7361 247.597 26.1143 258.022 42.4012L254.842 47.5157Z" fill="#FD7702"/>
<path d="M380.313 32.4678L375.443 47.4045C375.044 47.1252 374.597 46.9096 374.122 46.7663C373.29 46.532 372.402 46.5325 371.571 46.7677C370.74 47.0028 370.002 47.4621 369.451 48.0875C368.901 48.7128 368.562 49.4761 368.477 50.2808C368.392 51.0856 368.566 51.8955 368.976 52.6084C369.386 53.3212 370.014 53.9049 370.781 54.2855C371.547 54.6661 372.418 54.8267 373.283 54.7468C374.147 54.667 374.967 54.3503 375.638 53.8369C376.309 53.3234 376.802 52.6363 377.053 51.8624L381.426 38.4794L397.059 39.0159L392.756 52.2878C392.358 52.0049 391.911 51.7889 391.434 51.6496C390.602 51.4153 389.715 51.4158 388.883 51.651C388.052 51.8862 387.314 52.3455 386.764 52.9708C386.213 53.5961 385.874 54.3594 385.789 55.1642C385.705 55.9689 385.878 56.7789 386.288 57.4917C386.699 58.2045 387.327 58.7882 388.093 59.1688C388.86 59.5495 389.73 59.71 390.595 59.6302C391.459 59.5503 392.279 59.2336 392.95 58.7202C393.621 58.2068 394.114 57.5196 394.366 56.7457L401.551 34.5487L380.313 32.4678Z" fill="#BA68C8"/>
<path d="M368.566 261.327L363.696 276.264C363.299 275.981 362.852 275.765 362.374 275.626C361.543 275.391 360.655 275.392 359.824 275.627C358.993 275.862 358.255 276.321 357.704 276.947C357.154 277.572 356.814 278.335 356.73 279.14C356.645 279.945 356.819 280.755 357.229 281.468C357.639 282.18 358.267 282.764 359.034 283.145C359.8 283.525 360.671 283.686 361.536 283.606C362.4 283.526 363.22 283.21 363.891 282.696C364.562 282.183 365.055 281.495 365.306 280.722L369.679 267.339L385.312 267.875L381.009 281.147C380.611 280.864 380.164 280.648 379.687 280.509C378.855 280.275 377.968 280.275 377.136 280.51C376.305 280.745 375.567 281.205 375.017 281.83C374.466 282.455 374.127 283.219 374.042 284.023C373.958 284.828 374.131 285.638 374.541 286.351C374.951 287.064 375.58 287.647 376.346 288.028C377.113 288.409 377.983 288.569 378.848 288.489C379.712 288.409 380.532 288.093 381.203 287.579C381.874 287.066 382.367 286.379 382.619 285.605L389.794 263.408L368.566 261.327Z" fill="#BA68C8"/>
<path d="M337.649 85.4353C338.632 84.9875 339.705 84.7385 340.799 84.7046C342.262 84.6779 343.723 84.8335 345.142 85.1671C347.023 85.6485 348.95 85.9583 350.896 86.0919C351.872 86.1539 352.851 86.0318 353.775 85.733C354.699 85.4342 355.548 84.9649 356.273 84.3532C355.134 84.452 353.985 84.3098 352.914 83.937C350.34 83.0121 348.272 80.5612 345.957 79.1924C342.508 77.1669 339.1 77.3427 334.906 78.323C334.906 81.6433 334.836 84.9821 334.796 88.3116L334.707 96.1453C334.707 96.395 334.578 99.7061 334.578 99.7061C333.605 99.2524 332.535 99.006 331.447 98.9847C330.256 98.9737 329.088 99.292 328.09 99.8991C327.093 100.506 326.312 101.375 325.846 102.395C325.379 103.416 325.249 104.542 325.47 105.631C325.692 106.721 326.256 107.725 327.091 108.516C327.926 109.307 328.994 109.85 330.16 110.076C331.327 110.302 332.539 110.201 333.644 109.786C334.749 109.37 335.696 108.659 336.367 107.742C337.037 106.826 337.4 105.744 337.41 104.636L337.649 85.4353Z" fill="#BA68C8"/>
<path d="M434.923 225.581C436.002 225.402 437.11 225.44 438.173 225.692C439.584 226.047 440.94 226.569 442.207 227.246C443.874 228.193 445.635 228.989 447.465 229.623C448.385 229.931 449.363 230.065 450.34 230.014C451.316 229.963 452.272 229.729 453.149 229.327C452.024 229.131 450.96 228.701 450.039 228.069C447.842 226.543 446.59 223.629 444.772 221.715C442.068 218.876 438.749 218.154 434.416 218.015C433.422 221.215 432.369 224.397 431.345 227.588L428.93 235.098L427.737 238.474C426.938 237.789 425.984 237.28 424.945 236.985C423.805 236.662 422.587 236.662 421.447 236.984C420.307 237.305 419.295 237.935 418.539 238.792C417.783 239.649 417.317 240.696 417.201 241.799C417.084 242.903 417.322 244.014 417.884 244.992C418.447 245.969 419.308 246.77 420.359 247.292C421.41 247.814 422.604 248.034 423.79 247.925C424.976 247.815 426.1 247.38 427.02 246.676C427.94 245.972 428.615 245.029 428.96 243.967L434.923 225.581Z" fill="#BA68C8"/>
<path d="M292.559 26.1048C293.026 25.0893 293.721 24.1781 294.596 23.4319C295.777 22.4471 297.094 21.6135 298.512 20.9533C300.428 20.1038 302.252 19.0849 303.958 17.9104C304.807 17.3196 305.518 16.575 306.049 15.7214C306.581 14.8678 306.921 13.923 307.049 12.9438C306.185 13.7694 305.132 14.4019 303.968 14.7936C301.175 15.7185 297.588 15.0618 294.646 15.4595C290.263 16.0607 287.58 18.4376 284.887 22.0169C287.421 24.7915 289.856 27.5661 292.39 30.3407L298.283 36.8149C298.472 37.0183 300.877 39.8299 300.877 39.8299C299.737 40.1092 298.678 40.621 297.777 41.3282C296.788 42.1048 296.069 43.1367 295.711 44.2934C295.353 45.4502 295.372 46.6798 295.765 47.8267C296.158 48.9736 296.907 49.9863 297.919 50.7368C298.93 51.4872 300.158 51.9416 301.447 52.0425C302.736 52.1435 304.028 51.8864 305.16 51.3038C306.292 50.7212 307.213 49.8393 307.806 48.7696C308.399 47.6999 308.638 46.4905 308.493 45.2943C308.348 44.0982 307.824 42.969 306.989 42.0496L292.559 26.1048Z" fill="#BA68C8"/>
<path d="M380.261 114.929L354.213 128.931C353.968 129.078 353.763 129.277 353.616 129.512C353.469 129.747 353.384 130.011 353.368 130.282V158.25C353.383 158.52 353.467 158.783 353.614 159.016C353.761 159.25 353.967 159.447 354.213 159.591L357.194 161.191C357.453 161.312 357.739 161.375 358.029 161.375C358.319 161.375 358.605 161.312 358.864 161.191L384.922 147.179C385.165 147.032 385.367 146.834 385.512 146.601C385.657 146.368 385.741 146.107 385.757 145.838V117.824C385.742 117.553 385.658 117.29 385.511 117.057C385.364 116.824 385.158 116.627 384.912 116.483L381.93 114.92C381.67 114.802 381.384 114.742 381.094 114.743C380.805 114.745 380.52 114.808 380.261 114.929Z" fill="#FD7702"/>
<path d="M358.078 160.729V132.723C358.094 132.453 358.178 132.19 358.323 131.956C358.468 131.721 358.67 131.522 358.913 131.373L384.971 117.37C385.428 117.121 385.806 117.324 385.806 117.824V145.838C385.79 146.107 385.706 146.369 385.561 146.602C385.416 146.835 385.213 147.033 384.971 147.179L358.913 161.191C358.456 161.431 358.078 161.237 358.078 160.729Z" fill="#FD7702"/>
<path d="M358.078 160.729V132.723C358.094 132.453 358.178 132.19 358.323 131.956C358.468 131.721 358.67 131.522 358.913 131.373L384.971 117.37C385.428 117.121 385.806 117.324 385.806 117.824V145.838C385.79 146.107 385.706 146.369 385.561 146.602C385.416 146.835 385.213 147.033 384.971 147.179L358.913 161.191C358.456 161.431 358.078 161.237 358.078 160.729Z" fill="#FD7702"/>
<path opacity="0.2" d="M358.915 161.191C358.652 161.305 358.365 161.364 358.075 161.364C357.785 161.364 357.498 161.305 357.235 161.191L354.254 159.582C354.008 159.438 353.802 159.241 353.655 159.007C353.508 158.774 353.424 158.511 353.409 158.24V130.282C353.423 129.999 353.516 129.725 353.677 129.486L358.338 131.956C358.183 132.186 358.097 132.451 358.09 132.723V160.728C358.08 161.191 358.398 161.45 358.915 161.191Z" fill="black"/>
<path opacity="0.4" d="M385.797 117.685C385.727 117.287 385.39 117.149 384.972 117.371L358.914 131.373C358.671 131.52 358.469 131.72 358.328 131.956L353.667 129.486C353.803 129.257 354.002 129.066 354.243 128.931L380.261 114.929C380.522 114.806 380.809 114.741 381.101 114.741C381.393 114.741 381.681 114.806 381.941 114.929L384.922 116.492C385.154 116.619 385.352 116.791 385.503 116.997C385.655 117.204 385.755 117.439 385.797 117.685Z" fill="white"/>
<path d="M382.15 133.713C382.15 140.761 377.549 148.955 371.864 152.007C366.18 155.059 361.568 151.822 361.568 144.765C361.568 137.708 366.18 129.523 371.864 126.471C377.549 123.419 382.15 126.656 382.15 133.713Z" fill="#FAFAFA"/>
<path d="M370.472 135.988V144.155C370.459 144.358 370.396 144.556 370.288 144.732C370.179 144.909 370.028 145.059 369.846 145.172L368.156 146.097C367.809 146.282 367.53 146.097 367.53 145.755V137.607C367.543 137.404 367.606 137.206 367.715 137.029C367.823 136.853 367.974 136.702 368.156 136.589L369.846 135.665C370.184 135.47 370.472 135.618 370.472 135.988Z" fill="#455A64"/>
<path d="M376.365 132.825V140.982C376.352 141.186 376.289 141.383 376.18 141.56C376.072 141.736 375.92 141.887 375.739 142L374.049 142.925C373.701 143.11 373.413 142.925 373.413 142.582V134.425C373.427 134.222 373.491 134.026 373.602 133.85C373.712 133.675 373.866 133.527 374.049 133.417L375.739 132.492C376.086 132.298 376.365 132.446 376.365 132.825Z" fill="#455A64"/>
<path d="M410.543 102.147L389.673 113.347C389.479 113.467 389.317 113.627 389.202 113.815C389.086 114.003 389.019 114.213 389.007 114.43V136.802C389.018 137.018 389.085 137.229 389.203 137.416C389.321 137.603 389.485 137.76 389.683 137.875L392.078 139.161C392.286 139.259 392.515 139.31 392.749 139.31C392.982 139.31 393.212 139.259 393.419 139.161L414.29 127.96C414.485 127.842 414.649 127.682 414.766 127.494C414.883 127.306 414.952 127.095 414.965 126.878V104.459C414.95 104.244 414.881 104.035 414.764 103.849C414.647 103.662 414.484 103.504 414.29 103.387L411.894 102.138C411.685 102.04 411.452 101.989 411.217 101.991C410.982 101.992 410.751 102.046 410.543 102.147Z" fill="#FD7702"/>
<path d="M392.773 138.791V116.381C392.785 116.166 392.852 115.956 392.967 115.77C393.083 115.583 393.245 115.425 393.439 115.308L414.309 104.098C414.677 103.904 414.985 104.098 414.985 104.459V126.869C414.972 127.086 414.903 127.297 414.786 127.485C414.669 127.673 414.505 127.832 414.309 127.951L393.439 139.151C393.072 139.355 392.773 139.188 392.773 138.791Z" fill="#FD7702"/>
<path d="M392.773 138.791V116.381C392.785 116.166 392.852 115.956 392.967 115.77C393.083 115.583 393.245 115.425 393.439 115.308L414.309 104.098C414.677 103.904 414.985 104.098 414.985 104.459V126.869C414.972 127.086 414.903 127.297 414.786 127.485C414.669 127.673 414.505 127.832 414.309 127.951L393.439 139.151C393.072 139.355 392.773 139.188 392.773 138.791Z" fill="#FD7702"/>
<path opacity="0.2" d="M393.439 139.151C393.23 139.247 393.001 139.296 392.768 139.296C392.535 139.296 392.306 139.247 392.097 139.151L389.702 137.866C389.505 137.751 389.34 137.593 389.223 137.407C389.105 137.22 389.038 137.009 389.026 136.793V114.429C389.034 114.203 389.106 113.983 389.235 113.791L392.972 115.77C392.848 115.954 392.779 116.164 392.773 116.381V138.791C392.773 139.16 393.041 139.364 393.439 139.151Z" fill="black"/>
<path opacity="0.4" d="M414.946 104.311C414.886 103.997 414.618 103.886 414.28 104.062L393.41 115.271C393.214 115.385 393.053 115.544 392.943 115.734L389.206 113.791C389.317 113.607 389.478 113.454 389.673 113.347L410.543 102.147C410.751 102.049 410.981 101.998 411.214 101.998C411.447 101.998 411.677 102.049 411.885 102.147L414.28 103.396C414.452 103.498 414.6 103.632 414.714 103.79C414.829 103.947 414.908 104.125 414.946 104.311Z" fill="white"/>
<path d="M409.789 114.346V122.504C409.778 122.707 409.715 122.905 409.606 123.082C409.498 123.259 409.345 123.409 409.162 123.521L407.473 124.446C407.125 124.631 406.837 124.446 406.837 124.113V115.946C406.851 115.743 406.915 115.547 407.026 115.371C407.136 115.196 407.289 115.048 407.473 114.938L409.162 114.013C409.51 113.819 409.789 113.967 409.789 114.346Z" fill="#455A64"/>
<path d="M397.932 120.802V128.792C397.932 129.394 398.27 129.505 398.697 129.061L406.647 120.533C407.075 120.08 406.896 119.719 406.25 119.719H399.144C398.987 119.713 398.831 119.737 398.684 119.788C398.537 119.84 398.403 119.918 398.29 120.02C398.176 120.121 398.086 120.242 398.025 120.377C397.963 120.511 397.931 120.656 397.932 120.802Z" fill="#455A64"/>
<path d="M344.385 137.699L323.515 148.899C323.318 149.017 323.155 149.177 323.037 149.365C322.92 149.553 322.852 149.764 322.839 149.982V172.354C322.852 172.57 322.921 172.78 323.038 172.966C323.156 173.153 323.319 173.311 323.515 173.427L325.91 174.713C326.118 174.811 326.347 174.862 326.581 174.862C326.814 174.862 327.044 174.811 327.251 174.713L348.122 163.512C348.316 163.393 348.478 163.233 348.594 163.045C348.709 162.857 348.776 162.647 348.787 162.43V140.011C348.776 139.795 348.709 139.584 348.591 139.398C348.474 139.211 348.309 139.053 348.112 138.939L345.716 137.69C345.509 137.595 345.281 137.546 345.049 137.547C344.818 137.549 344.591 137.601 344.385 137.699Z" fill="#FD7702"/>
<path d="M326.596 174.342V151.933C326.607 151.718 326.674 151.508 326.79 151.322C326.905 151.135 327.067 150.977 327.262 150.86L348.132 139.65C348.499 139.456 348.798 139.65 348.798 140.011V162.421C348.786 162.637 348.719 162.848 348.604 163.036C348.488 163.224 348.326 163.384 348.132 163.503L327.262 174.703C326.914 174.906 326.596 174.74 326.596 174.342Z" fill="#FD7702"/>
<path d="M326.596 174.342V151.933C326.607 151.718 326.674 151.508 326.79 151.322C326.905 151.135 327.067 150.977 327.262 150.86L348.132 139.65C348.499 139.456 348.798 139.65 348.798 140.011V162.421C348.786 162.637 348.719 162.848 348.604 163.036C348.488 163.224 348.326 163.384 348.132 163.503L327.262 174.703C326.914 174.906 326.596 174.74 326.596 174.342Z" fill="#FD7702"/>
<path opacity="0.2" d="M327.281 174.703C327.072 174.799 326.843 174.848 326.61 174.848C326.377 174.848 326.148 174.799 325.939 174.703L323.544 173.418C323.348 173.301 323.185 173.143 323.068 172.957C322.95 172.77 322.882 172.561 322.868 172.345V149.981C322.88 149.755 322.955 149.534 323.087 149.343L326.814 151.322C326.69 151.506 326.621 151.716 326.615 151.933V174.343C326.595 174.712 326.893 174.916 327.281 174.703Z" fill="black"/>
<path opacity="0.4" d="M348.788 139.901C348.738 139.586 348.46 139.475 348.122 139.651L327.252 150.86C327.058 150.977 326.897 151.135 326.785 151.323L323.048 149.344C323.164 149.163 323.324 149.011 323.515 148.9L344.385 137.699C344.593 137.601 344.823 137.55 345.056 137.55C345.289 137.55 345.519 137.601 345.727 137.699L348.122 138.948C348.298 139.054 348.449 139.194 348.564 139.358C348.678 139.522 348.755 139.707 348.788 139.901Z" fill="white"/>
<path d="M334.397 155.059V163.216C334.387 163.42 334.324 163.618 334.216 163.795C334.107 163.972 333.954 164.122 333.771 164.234L332.081 165.159C331.733 165.353 331.455 165.159 331.455 164.826V156.668C331.465 156.465 331.527 156.266 331.636 156.09C331.745 155.913 331.898 155.762 332.081 155.651L333.771 154.726C334.119 154.532 334.397 154.689 334.397 155.059Z" fill="#455A64"/>
<path d="M343.958 158.037V149.713C343.958 149.075 343.59 148.946 343.133 149.426L334.666 158.333C334.209 158.814 334.397 159.202 335.083 159.202H342.716C343.045 159.198 343.36 159.073 343.592 158.855C343.824 158.637 343.955 158.344 343.958 158.037Z" fill="#455A64"/>
<path d="M413.456 143.831L322.343 192.785C322.099 192.933 321.897 193.132 321.752 193.367C321.607 193.601 321.523 193.864 321.508 194.135V248.194C321.524 248.461 321.609 248.721 321.754 248.953C321.899 249.184 322.101 249.38 322.343 249.525L325.324 251.135C325.585 251.255 325.872 251.318 326.164 251.318C326.455 251.318 326.743 251.255 327.004 251.135L418.117 202.172C418.36 202.023 418.562 201.824 418.707 201.589C418.852 201.355 418.936 201.092 418.952 200.822V146.726C418.937 146.456 418.853 146.193 418.705 145.959C418.558 145.726 418.353 145.529 418.107 145.385L415.125 143.822C414.866 143.701 414.579 143.639 414.289 143.641C413.999 143.643 413.714 143.708 413.456 143.831Z" fill="#455A64"/>
<path d="M418.961 146.578C418.891 146.19 418.553 146.051 418.136 146.273L327.023 195.235C326.774 195.379 326.569 195.58 326.427 195.818L321.766 193.339C321.904 193.112 322.103 192.921 322.342 192.785L413.455 143.822C413.716 143.701 414.004 143.639 414.295 143.639C414.586 143.639 414.874 143.701 415.135 143.822L418.116 145.385C418.342 145.515 418.535 145.688 418.68 145.895C418.826 146.101 418.922 146.334 418.961 146.578Z" fill="#37474F"/>
<path d="M326.18 250.672V196.586C326.196 196.315 326.281 196.051 326.428 195.816C326.575 195.581 326.779 195.382 327.024 195.235L418.138 146.273C418.595 146.023 418.972 146.227 418.972 146.726V200.812C418.956 201.083 418.873 201.345 418.728 201.58C418.583 201.814 418.38 202.014 418.138 202.163L327.024 251.125C326.597 251.366 326.18 251.172 326.18 250.672Z" fill="#455A64"/>
<path opacity="0.2" d="M327.023 251.125C326.762 251.244 326.474 251.306 326.183 251.306C325.892 251.306 325.605 251.244 325.344 251.125L322.362 249.516C322.12 249.371 321.918 249.175 321.773 248.943C321.628 248.712 321.544 248.452 321.527 248.184V194.135C321.538 193.853 321.627 193.579 321.786 193.339L326.447 195.818C326.296 196.05 326.21 196.314 326.198 196.586V250.672C326.178 251.125 326.526 251.366 327.023 251.125Z" fill="#263238"/>
<path d="M337.767 238.075C337.756 238.082 337.744 238.086 337.732 238.086C337.719 238.086 337.707 238.082 337.697 238.075C337.693 238.068 337.692 238.06 337.692 238.052C337.692 238.044 337.693 238.036 337.697 238.029V237.724L336.703 238.279C336.694 238.283 336.684 238.285 336.673 238.285C336.663 238.285 336.653 238.283 336.644 238.279V238.233V237.909C336.634 237.857 336.634 237.804 336.644 237.752L337.637 236.069C337.649 236.042 337.666 236.017 337.687 235.995H337.757L338.254 235.727C338.254 235.727 338.303 235.727 338.313 235.727V235.773V236.947L338.591 236.799C338.602 236.793 338.614 236.789 338.626 236.789C338.639 236.789 338.651 236.793 338.661 236.799V237.132C338.669 237.153 338.669 237.176 338.661 237.197L338.591 237.262L338.313 237.41V237.724C338.32 237.748 338.32 237.774 338.313 237.798C338.301 237.823 338.28 237.842 338.254 237.854L337.767 238.075ZM337.687 237.234V236.67L337.21 237.493L337.687 237.234Z" fill="white"/>
<path d="M339.714 235.874C339.718 235.899 339.718 235.923 339.714 235.948L339.645 236.004L339.217 236.235C339.217 236.235 339.168 236.235 339.158 236.235V235.837C339.149 235.813 339.149 235.787 339.158 235.763C339.162 235.75 339.17 235.738 339.18 235.728C339.19 235.719 339.203 235.712 339.217 235.708L339.645 235.467H339.714C339.72 235.482 339.72 235.498 339.714 235.513V235.874ZM339.714 236.947C339.718 236.972 339.718 236.997 339.714 237.021L339.645 237.077L339.217 237.308C339.217 237.308 339.168 237.308 339.158 237.308V237.262V236.864C339.149 236.84 339.149 236.814 339.158 236.79C339.162 236.777 339.17 236.765 339.18 236.755C339.19 236.745 339.203 236.738 339.217 236.734L339.645 236.503C339.655 236.496 339.667 236.493 339.679 236.493C339.692 236.493 339.704 236.496 339.714 236.503V236.947Z" fill="white"/>
<path d="M341.385 236.133C341.385 236.133 341.335 236.133 341.315 236.133C341.311 236.126 341.31 236.118 341.31 236.11C341.31 236.102 341.311 236.094 341.315 236.087V235.773L340.272 236.337H340.212V236.013C340.213 235.957 340.23 235.903 340.262 235.856L341.255 234.173L341.305 234.099C341.324 234.078 341.348 234.062 341.375 234.052L341.872 233.784C341.872 233.784 341.921 233.784 341.931 233.784V233.83V235.005L342.219 234.848H342.279C342.283 234.855 342.286 234.863 342.286 234.871C342.286 234.879 342.283 234.887 342.279 234.894V235.218C342.287 235.242 342.287 235.268 342.279 235.292L342.219 235.356L341.931 235.504V235.819C341.938 235.843 341.938 235.868 341.931 235.893C341.919 235.917 341.898 235.937 341.872 235.948L341.385 236.133ZM341.305 235.282V234.718L340.828 235.541L341.305 235.282Z" fill="white"/>
<path d="M402.712 202.44C402.715 202.565 402.688 202.688 402.633 202.801C402.583 202.93 402.513 203.052 402.424 203.162C402.329 203.278 402.222 203.387 402.106 203.486C401.993 203.58 401.869 203.663 401.738 203.735C401.621 203.801 401.493 203.851 401.361 203.883C401.256 203.905 401.147 203.905 401.043 203.883C400.957 203.868 400.88 203.825 400.824 203.763C400.769 203.676 400.741 203.577 400.745 203.476C400.735 203.415 400.735 203.353 400.745 203.291L400.804 203.116C400.823 203.057 400.849 203.001 400.884 202.949L400.963 202.792L401.599 201.663V201.599L401.669 201.543L402.196 201.266V201.312L401.758 202.089C401.862 202.041 401.972 202.007 402.086 201.987C402.174 201.968 402.266 201.968 402.355 201.987C402.431 202.014 402.497 202.063 402.543 202.126C402.638 202.209 402.698 202.32 402.712 202.44ZM401.361 203.171C401.349 203.204 401.349 203.24 401.361 203.273C401.39 203.283 401.421 203.283 401.45 203.273C401.489 203.281 401.53 203.281 401.569 203.273L401.709 203.217L401.838 203.125C401.882 203.093 401.922 203.055 401.957 203.014C401.99 202.97 402.02 202.923 402.046 202.875C402.056 202.829 402.056 202.782 402.046 202.736C402.058 202.703 402.058 202.668 402.046 202.635C402.017 202.626 401.986 202.626 401.957 202.635C401.919 202.621 401.876 202.621 401.838 202.635C401.791 202.645 401.747 202.664 401.709 202.69C401.656 202.712 401.609 202.744 401.569 202.783C401.525 202.815 401.485 202.852 401.45 202.894C401.413 202.935 401.383 202.982 401.361 203.032C401.351 203.078 401.351 203.125 401.361 203.171Z" fill="white"/>
<path d="M403.766 201.423C403.773 201.447 403.773 201.473 403.766 201.497L403.706 201.553L403.279 201.784C403.279 201.784 403.229 201.784 403.21 201.784C403.206 201.777 403.204 201.769 403.204 201.761C403.204 201.753 403.206 201.745 403.21 201.738V201.423C403.205 201.399 403.205 201.374 403.21 201.349C403.225 201.323 403.249 201.304 403.279 201.294L403.706 201.062C403.706 201.062 403.756 201.062 403.766 201.062C403.776 201.062 403.766 201.062 403.766 201.062V201.423ZM403.766 202.496C403.773 202.52 403.773 202.546 403.766 202.57C403.752 202.593 403.731 202.612 403.706 202.625L403.279 202.856C403.279 202.856 403.229 202.856 403.21 202.856V202.459C403.205 202.434 403.205 202.409 403.21 202.385C403.225 202.359 403.249 202.339 403.279 202.329L403.706 202.098C403.706 202.098 403.756 202.098 403.766 202.098C403.776 202.098 403.766 202.098 403.766 202.098V202.496Z" fill="white"/>
<path d="M405.992 199.268H406.102C406.106 199.275 406.108 199.283 406.108 199.291C406.108 199.299 406.106 199.307 406.102 199.314V199.638C406.106 199.662 406.106 199.687 406.102 199.712C406.104 199.736 406.104 199.761 406.102 199.786L405.704 200.368C405.84 200.328 405.986 200.328 406.121 200.368C406.18 200.397 406.228 200.441 406.258 200.496C406.289 200.551 406.3 200.613 406.29 200.674C406.285 200.913 406.194 201.144 406.032 201.33C405.831 201.56 405.585 201.752 405.307 201.895C405.177 201.968 405.036 202.024 404.889 202.061C404.788 202.087 404.682 202.087 404.581 202.061C404.509 202.056 404.442 202.027 404.392 201.978C404.345 201.927 404.32 201.86 404.323 201.793C404.314 201.772 404.314 201.749 404.323 201.728C404.334 201.708 404.351 201.692 404.372 201.682L404.79 201.46C404.805 201.452 404.822 201.449 404.839 201.449C404.857 201.449 404.874 201.452 404.889 201.46H404.969H405.088C405.16 201.451 405.228 201.426 405.287 201.386C405.386 201.333 405.476 201.268 405.555 201.192C405.586 201.164 405.611 201.131 405.628 201.095C405.645 201.058 405.654 201.019 405.654 200.979C405.654 200.905 405.654 200.877 405.555 200.877C405.46 200.893 405.37 200.924 405.287 200.97L405.018 201.118C405.018 201.118 405.018 201.118 404.959 201.118V200.859C404.954 200.834 404.954 200.809 404.959 200.785C404.973 200.759 404.99 200.734 405.008 200.711L405.356 200.193L404.502 200.655C404.502 200.655 404.452 200.655 404.432 200.655C404.412 200.655 404.432 200.655 404.432 200.655V200.331C404.43 200.304 404.438 200.276 404.454 200.253C404.47 200.23 404.494 200.212 404.521 200.202L405.992 199.268Z" fill="white"/>
<path d="M407.642 198.352C407.774 198.278 407.918 198.225 408.069 198.195C408.163 198.171 408.263 198.171 408.357 198.195C408.438 198.231 408.502 198.294 408.536 198.371C408.576 198.459 408.599 198.553 408.606 198.648V199.194C408.596 199.316 408.573 199.437 408.536 199.555C408.495 199.679 408.435 199.798 408.357 199.906C408.276 200.03 408.179 200.145 408.069 200.248C407.939 200.361 407.796 200.461 407.642 200.544C407.509 200.619 407.365 200.675 407.214 200.711C407.118 200.74 407.013 200.74 406.916 200.711C406.843 200.672 406.784 200.614 406.747 200.544C406.707 200.453 406.683 200.356 406.678 200.258C406.678 200.174 406.678 200.091 406.678 199.989C406.678 199.888 406.678 199.804 406.678 199.712C406.687 199.593 406.711 199.475 406.747 199.36C406.791 199.235 406.848 199.115 406.916 199C407.001 198.875 407.101 198.76 407.214 198.658C407.345 198.542 407.488 198.44 407.642 198.352ZM407.99 199.527C408 199.354 408 199.181 407.99 199.009C407.995 198.966 407.995 198.922 407.99 198.879C407.979 198.85 407.958 198.824 407.93 198.805C407.913 198.798 407.894 198.794 407.875 198.794C407.856 198.794 407.838 198.798 407.821 198.805C407.764 198.815 407.71 198.833 407.662 198.861C407.6 198.893 407.543 198.934 407.493 198.981C407.453 199.02 407.42 199.063 407.393 199.111C407.363 199.156 407.343 199.206 407.334 199.259C407.329 199.308 407.329 199.357 407.334 199.407C407.324 199.579 407.324 199.752 407.334 199.925C407.328 199.968 407.328 200.011 407.334 200.054C407.327 200.081 407.327 200.11 407.334 200.137C407.369 200.147 407.407 200.147 407.443 200.137C407.503 200.125 407.56 200.103 407.612 200.073C407.668 200.04 407.722 200.003 407.771 199.962C407.814 199.92 407.85 199.873 407.88 199.823C407.909 199.78 407.929 199.733 407.94 199.684C407.959 199.648 407.976 199.611 407.99 199.573V199.527Z" fill="white"/>
<path opacity="0.3" d="M348.57 229.428L396.591 203.624C397.376 203.199 398.012 203.504 398.012 204.299C397.978 204.745 397.832 205.176 397.585 205.559C397.338 205.941 396.998 206.264 396.591 206.501L348.57 232.304C347.785 232.73 347.139 232.425 347.139 231.629C347.173 231.183 347.321 230.751 347.57 230.369C347.819 229.986 348.161 229.664 348.57 229.428Z" fill="white"/>
<path d="M348.57 229.428L384.625 210.052C385.411 209.627 386.057 209.932 386.057 210.727C386.019 211.173 385.871 211.604 385.622 211.986C385.374 212.368 385.032 212.691 384.625 212.928L348.57 232.304C347.785 232.73 347.139 232.425 347.139 231.629C347.173 231.183 347.321 230.751 347.57 230.369C347.819 229.986 348.161 229.664 348.57 229.428Z" fill="white"/>
<path d="M414.956 169.977L410.703 172.252C408.954 173.177 405.903 174.962 404.154 174.518C402.683 174.148 401.55 172.308 399.522 173.399C398.24 174.084 396.819 178.31 394.325 179.651C391.83 180.993 390.35 177.21 389.545 175.258C388.74 173.307 387.318 169.654 384.347 171.244C381.375 172.835 379.835 178.431 377.947 182.537C376.058 186.643 373.604 190.62 370.573 192.248C366.995 194.172 364.53 193.238 362.851 194.144C361.171 195.051 359.76 197.918 357.882 199.573C356.212 201.081 353.638 202.533 352.157 201.423C350.676 200.313 349.613 197.464 348.122 198.26C346.632 199.055 345.429 203.661 344.018 205.964C342.607 208.267 341.036 209.664 336.872 211.892L328.981 216.128V216.656L332.38 214.806C334.08 213.881 336.475 212.688 338.075 213.317C339.675 213.946 339.744 214.519 341.156 213.761C342.567 213.002 343.143 211.911 344.137 210.422C344.792 209.276 345.728 208.291 346.87 207.546C347.864 206.981 349.225 207.546 350.05 208.285C350.875 209.025 351.68 209.83 352.903 209.21C354.179 208.331 355.17 207.14 355.765 205.77C356.56 204.327 356.997 203.189 357.872 202.708C358.837 202.295 359.927 202.21 360.952 202.468C362.614 202.719 364.317 202.39 365.733 201.543C367.8 200.433 370.205 198.473 373.226 193.46L377.808 190.99C381.147 189.205 383.452 188.16 384.983 188.493C386.891 188.9 389.515 192.322 392.367 190.778C395.219 189.233 396.054 185.228 397.465 182.583C398.583 180.072 400.637 178.02 403.249 176.803L414.917 170.532L414.956 169.977Z" fill="#FD7702"/>
<path opacity="0.2" d="M389.546 190.907C387.826 190.297 386.266 188.743 385.024 188.475C383.493 188.142 381.188 189.187 377.848 190.972L373.307 193.441C375.95 189.03 378.465 182.121 379.409 179.383C379.816 178.218 380.273 177.053 380.81 175.915C381.348 174.691 382.057 173.537 382.917 172.484C384.398 171.05 385.511 170.893 386.226 172.558C386.942 174.223 386.415 179.18 386.544 183.388C386.674 187.596 387.866 189.964 389.546 190.907Z" fill="black"/>
<path opacity="0.2" d="M352.187 201.423C353.668 202.514 356.241 201.062 357.911 199.573C359.76 197.917 361.161 195.05 362.88 194.144C364.599 193.238 367.024 194.144 370.602 192.248C371.777 191.576 372.808 190.707 373.643 189.686C372.341 191.536 370.364 194.995 366.498 197.594C364.252 199.101 361.34 200.026 360.048 200.72C358.741 201.406 357.678 202.431 356.987 203.67C356.619 204.234 356.281 204.956 355.834 205.77C355.239 207.14 354.248 208.331 352.972 209.21C352.741 209.351 352.474 209.433 352.199 209.448C351.923 209.463 351.648 209.409 351.402 209.294C350.318 208.507 349.831 206.787 349.692 203.162C349.523 198.972 348.887 198.158 348.182 198.278C349.643 197.501 350.706 200.378 352.187 201.423Z" fill="black"/>
<path opacity="0.2" d="M386.503 183.388C386.374 179.18 386.91 174.222 386.185 172.558C385.698 171.429 385.032 171.143 384.197 171.513C385.459 171.355 386.572 173.214 385.837 177.792C385.43 180.326 384.227 185.08 384.843 188.447C384.913 188.442 384.982 188.442 385.052 188.447C386.294 188.715 387.855 190.296 389.574 190.879C387.864 189.964 386.632 187.605 386.503 183.388Z" fill="black"/>
<path opacity="0.2" d="M373.307 193.441L375.841 192.072C376.728 189.853 377.494 187.593 378.137 185.302C379.13 181.982 379.886 178.079 380.81 175.915C380.273 177.053 379.816 178.218 379.409 179.383C378.425 182.121 375.91 189.03 373.307 193.441Z" fill="black"/>
<path opacity="0.5" d="M398.151 175.046C397.158 176.6 395.985 178.745 394.315 179.67C391.821 181.011 390.34 177.229 389.535 175.277C389.296 174.713 389.008 173.992 388.65 173.307C389.644 175.286 390.479 178.912 391.085 180.956C391.602 182.694 392.129 183.878 393.59 183.351C395.051 182.824 396.054 179.957 396.661 178.412C397.076 177.26 397.574 176.136 398.151 175.046Z" fill="white"/>
<path opacity="0.2" d="M398.4 177.644C397.645 179.818 397.297 182.213 396.114 185.709C396.581 184.6 397.009 183.49 397.506 182.565C398.624 180.053 400.677 178.001 403.29 176.784L407.116 174.731C403.429 176.71 401.839 175.194 400.954 174.731C400.07 174.269 399.145 175.471 398.4 177.644Z" fill="black"/>
<path opacity="0.2" d="M400.437 174.648C399.722 174.777 399.006 175.887 398.4 177.644C397.645 179.818 397.297 182.213 396.114 185.709C396.581 184.599 397.009 183.49 397.506 182.565C397.863 181.89 398.201 181.307 398.499 180.77C398.639 179.735 398.728 178.828 398.788 178.292C399.016 176.692 399.642 175.184 400.437 174.648Z" fill="black"/>
<path opacity="0.2" d="M370.573 192.267C366.996 194.19 364.531 193.256 362.851 194.163C362.568 194.319 362.307 194.509 362.076 194.727C363.209 193.802 365.058 194.496 366.479 194.727C367.919 194.874 369.371 194.579 370.613 193.885C371.688 192.553 372.683 191.167 373.595 189.732C372.763 190.742 371.739 191.601 370.573 192.267Z" fill="black"/>
<path opacity="0.2" d="M349.663 203.18C349.802 206.806 350.289 208.526 351.372 209.312C351.619 209.428 351.894 209.481 352.169 209.467C352.445 209.452 352.712 209.37 352.943 209.229C354.105 208.458 355.019 207.406 355.586 206.186C354.145 208.036 351.979 208.341 351.362 206.584C350.746 204.826 350.726 202.385 350.299 200.72C349.872 199.055 349.385 198.195 348.689 198.158H348.55H348.45H348.391H348.311L348.152 198.223C348.858 198.176 349.454 198.99 349.663 203.18Z" fill="black"/>
<path opacity="0.5" d="M344.047 206.047C342.626 208.35 341.066 209.747 336.902 211.976L335.987 212.466C341.245 209.691 343.302 210.376 344.663 207.703C346.025 205.03 346.561 200.553 347.247 199.296C346.154 200.933 345.16 204.197 344.047 206.047Z" fill="white"/>
<path opacity="0.5" d="M375.721 188.651C374.993 190.288 374.17 191.887 373.257 193.441C370.275 198.454 367.84 200.415 365.773 201.525C364.363 202.377 362.661 202.707 361.003 202.45C359.973 202.198 358.88 202.286 357.912 202.699C359.14 201.935 360.6 201.558 362.076 201.626C363.726 201.58 366.161 200.905 368.963 198.315C371.766 195.726 375.602 188.863 375.721 188.651Z" fill="white"/>
<path d="M361.241 211.088C361.257 211.074 361.279 211.067 361.301 211.067C361.323 211.067 361.344 211.074 361.36 211.088C361.379 211.133 361.379 211.182 361.36 211.227V211.532C361.374 211.596 361.374 211.662 361.36 211.726C361.351 211.754 361.335 211.78 361.315 211.802C361.294 211.824 361.269 211.842 361.241 211.856L360.118 212.466V217.516C360.116 217.583 360.099 217.649 360.068 217.71C360.042 217.762 360.001 217.807 359.949 217.839L359.701 217.969C359.694 217.976 359.686 217.983 359.676 217.987C359.667 217.991 359.656 217.993 359.646 217.993C359.635 217.993 359.625 217.991 359.616 217.987C359.606 217.983 359.598 217.976 359.591 217.969C359.572 217.951 359.557 217.929 359.548 217.905C359.539 217.881 359.537 217.855 359.542 217.83V212.78L358.409 213.391C358.391 213.403 358.371 213.409 358.349 213.409C358.328 213.409 358.307 213.403 358.289 213.391C358.254 213.352 358.236 213.303 358.24 213.252V212.938C358.242 212.873 358.259 212.81 358.289 212.753C358.289 212.688 358.359 212.642 358.409 212.623L361.241 211.088Z" fill="white"/>
<path d="M365.177 208.97C365.194 208.958 365.215 208.951 365.237 208.951C365.258 208.951 365.279 208.958 365.296 208.97C365.332 209.008 365.349 209.058 365.346 209.109V214.704C365.344 214.771 365.327 214.837 365.296 214.898C365.273 214.953 365.231 214.998 365.177 215.028L364.929 215.157C364.922 215.165 364.914 215.171 364.904 215.175C364.895 215.18 364.885 215.182 364.874 215.182C364.863 215.182 364.853 215.18 364.844 215.175C364.834 215.171 364.826 215.165 364.819 215.157C364.801 215.112 364.801 215.063 364.819 215.018V212.577L362.693 213.724V216.165C362.706 216.229 362.706 216.295 362.693 216.359C362.67 216.414 362.628 216.46 362.573 216.489L362.335 216.618C362.282 216.618 362.242 216.618 362.216 216.618C362.179 216.577 362.161 216.524 362.166 216.47V210.921C362.168 210.857 362.185 210.794 362.216 210.736C362.225 210.709 362.241 210.683 362.261 210.661C362.282 210.638 362.307 210.62 362.335 210.607L362.573 210.468C362.591 210.456 362.611 210.45 362.633 210.45C362.654 210.45 362.675 210.456 362.693 210.468C362.711 210.513 362.711 210.562 362.693 210.607V212.984L364.819 211.837V209.46C364.806 209.399 364.806 209.336 364.819 209.275C364.839 209.222 364.878 209.176 364.929 209.146L365.177 208.97Z" fill="white"/>
<path d="M368.991 212.207C369.007 212.195 369.026 212.189 369.046 212.189C369.066 212.189 369.085 212.195 369.1 212.207C369.12 212.224 369.135 212.246 369.144 212.27C369.152 212.295 369.155 212.32 369.15 212.345V212.66C369.154 212.725 369.137 212.789 369.1 212.845C369.077 212.899 369.04 212.947 368.991 212.984L366.546 214.297C366.529 214.309 366.508 214.315 366.487 214.315C366.465 214.315 366.444 214.309 366.427 214.297C366.392 214.258 366.374 214.209 366.377 214.158V208.609C366.38 208.542 366.397 208.476 366.427 208.415C366.427 208.35 366.497 208.304 366.546 208.285L368.941 207C368.956 206.987 368.976 206.979 368.996 206.979C369.016 206.979 369.036 206.987 369.051 207C369.061 207.022 369.067 207.045 369.067 207.069C369.067 207.093 369.061 207.117 369.051 207.138V207.453C369.069 207.517 369.069 207.584 369.051 207.647C369.028 207.699 368.99 207.744 368.941 207.777L366.954 208.84V210.69L368.812 209.691C368.828 209.68 368.847 209.674 368.867 209.674C368.887 209.674 368.906 209.68 368.922 209.691C368.957 209.73 368.975 209.779 368.971 209.83V210.144C368.97 210.209 368.953 210.272 368.922 210.329C368.898 210.383 368.861 210.431 368.812 210.468L366.954 211.458V213.307L368.991 212.207Z" fill="white"/>
<path d="M372.739 204.826C372.93 204.707 373.155 204.642 373.385 204.641C373.558 204.647 373.726 204.695 373.872 204.78C374.001 204.873 374.103 204.993 374.17 205.132C374.234 205.269 374.271 205.417 374.28 205.566C374.292 205.618 374.292 205.672 374.28 205.723C374.257 205.765 374.223 205.801 374.18 205.825L373.932 205.964C373.9 205.975 373.864 205.975 373.832 205.964C373.832 205.964 373.773 205.918 373.743 205.853C373.717 205.794 373.684 205.738 373.644 205.687C373.598 205.618 373.533 205.564 373.455 205.529C373.371 205.482 373.274 205.46 373.176 205.465C373.035 205.47 372.897 205.512 372.779 205.585C372.662 205.648 372.555 205.726 372.461 205.816C372.352 205.908 372.259 206.014 372.183 206.13C372.1 206.252 372.034 206.383 371.984 206.519C371.935 206.659 371.912 206.806 371.914 206.954C371.906 207.071 371.93 207.189 371.984 207.296C372.009 207.335 372.042 207.369 372.081 207.396C372.12 207.423 372.165 207.442 372.212 207.453C372.34 207.477 372.472 207.477 372.6 207.453C372.793 207.438 372.986 207.413 373.176 207.379C373.368 207.353 373.562 207.353 373.753 207.379C373.898 207.392 374.036 207.443 374.15 207.527C374.255 207.613 374.331 207.726 374.369 207.851C374.416 208.029 374.439 208.213 374.439 208.396C374.439 208.659 374.398 208.921 374.319 209.173C374.239 209.43 374.129 209.678 373.991 209.913C373.851 210.144 373.677 210.356 373.475 210.542C373.283 210.739 373.058 210.904 372.809 211.032C372.615 211.149 372.393 211.219 372.163 211.236C371.985 211.25 371.808 211.211 371.656 211.125C371.512 211.045 371.395 210.93 371.318 210.792C371.234 210.637 371.189 210.466 371.189 210.293C371.175 210.244 371.175 210.193 371.189 210.145C371.208 210.101 371.239 210.063 371.278 210.034L371.527 209.904C371.544 209.897 371.563 209.893 371.581 209.893C371.6 209.893 371.619 209.897 371.636 209.904C371.636 209.904 371.696 209.95 371.716 210.015C371.742 210.087 371.779 210.156 371.825 210.219C371.88 210.288 371.951 210.345 372.034 210.385C372.131 210.421 372.237 210.437 372.342 210.431C372.495 210.413 372.641 210.363 372.769 210.283C372.916 210.207 373.051 210.11 373.167 209.997C373.298 209.886 373.412 209.758 373.504 209.617C373.602 209.483 373.679 209.337 373.733 209.183C373.791 209.038 373.822 208.884 373.822 208.729C373.834 208.611 373.799 208.493 373.723 208.396C373.653 208.319 373.553 208.269 373.445 208.258C373.297 208.23 373.145 208.23 372.998 208.258C372.8 208.279 372.605 208.31 372.411 208.35C372.24 208.378 372.065 208.378 371.894 208.35C371.76 208.324 371.639 208.26 371.547 208.165C371.453 208.065 371.388 207.944 371.358 207.814C371.316 207.644 371.296 207.47 371.298 207.296C371.3 207.068 371.33 206.842 371.388 206.621C371.449 206.384 371.539 206.154 371.656 205.936C371.777 205.716 371.927 205.511 372.103 205.326C372.285 205.129 372.5 204.961 372.739 204.826Z" fill="white"/>
<path d="M375.025 205.945C375.027 205.616 375.064 205.288 375.134 204.965C375.21 204.647 375.319 204.337 375.462 204.04C375.601 203.76 375.774 203.497 375.979 203.254C376.18 203.032 376.418 202.841 376.684 202.69C376.899 202.565 377.147 202.498 377.4 202.496C377.595 202.511 377.778 202.59 377.917 202.718C378.071 202.883 378.183 203.079 378.245 203.291C378.32 203.569 378.357 203.855 378.354 204.142C378.354 204.651 378.354 205.168 378.354 205.686C378.349 206.016 378.309 206.344 378.235 206.667C378.161 206.985 378.052 207.295 377.907 207.592C377.774 207.872 377.6 208.133 377.39 208.369C377.194 208.595 376.954 208.786 376.684 208.933C376.474 209.058 376.229 209.126 375.979 209.127C375.883 209.124 375.788 209.102 375.701 209.064C375.614 209.026 375.536 208.972 375.472 208.905C375.309 208.742 375.195 208.54 375.144 208.322C375.06 208.049 375.02 207.765 375.025 207.481C375.005 206.972 375.005 206.463 375.025 205.945ZM377.788 204.503C377.787 204.28 377.753 204.06 377.688 203.846C377.656 203.7 377.576 203.568 377.46 203.467C377.415 203.427 377.362 203.396 377.304 203.375C377.246 203.354 377.184 203.345 377.122 203.346C376.967 203.359 376.818 203.403 376.684 203.476C376.529 203.571 376.385 203.683 376.257 203.809C376.12 203.953 376.006 204.115 375.919 204.29C375.816 204.491 375.736 204.702 375.681 204.919C375.629 205.169 375.599 205.423 375.591 205.677C375.591 205.945 375.591 206.186 375.591 206.417C375.591 206.648 375.591 206.879 375.591 207.138C375.594 207.36 375.624 207.58 375.681 207.795C375.722 207.939 375.804 208.07 375.919 208.174C375.964 208.214 376.017 208.245 376.075 208.266C376.133 208.287 376.195 208.296 376.257 208.295C376.41 208.284 376.557 208.236 376.684 208.156C376.85 208.069 376.998 207.956 377.122 207.823C377.261 207.68 377.375 207.518 377.46 207.342C377.565 207.146 377.642 206.937 377.688 206.722C377.749 206.47 377.782 206.213 377.788 205.955C377.788 205.696 377.788 205.446 377.788 205.224C377.788 205.002 377.788 204.762 377.788 204.503Z" fill="white"/>
<path d="M382.022 205.983C381.962 205.983 381.922 205.983 381.882 205.983C381.841 205.945 381.808 205.901 381.783 205.853L379.795 202.671V206.972C379.793 207.039 379.776 207.105 379.746 207.166C379.726 207.22 379.687 207.265 379.636 207.296L379.388 207.435C379.371 207.447 379.35 207.453 379.328 207.453C379.307 207.453 379.286 207.447 379.269 207.435C379.25 207.39 379.25 207.341 379.269 207.296V201.7C379.255 201.636 379.255 201.57 379.269 201.506C379.278 201.478 379.294 201.452 379.314 201.43C379.335 201.408 379.36 201.39 379.388 201.377L379.597 201.256C379.656 201.256 379.696 201.256 379.736 201.256C379.774 201.292 379.808 201.333 379.835 201.377L381.823 204.558V200.304C381.825 200.236 381.842 200.17 381.872 200.109C381.892 200.056 381.931 200.01 381.982 199.98L382.23 199.841C382.247 199.829 382.268 199.823 382.29 199.823C382.311 199.823 382.332 199.829 382.35 199.841C382.368 199.886 382.368 199.935 382.35 199.98V205.576C382.363 205.64 382.363 205.706 382.35 205.77C382.34 205.798 382.324 205.823 382.304 205.846C382.283 205.868 382.258 205.886 382.23 205.899L382.022 205.983Z" fill="white"/>
<path d="M383.244 201.487C383.249 201.176 383.285 200.867 383.354 200.562C383.425 200.244 383.535 199.933 383.682 199.638C383.818 199.349 383.998 199.081 384.218 198.842C384.432 198.609 384.688 198.412 384.974 198.26C385.187 198.128 385.434 198.051 385.689 198.038C385.878 198.038 386.062 198.093 386.216 198.195C386.353 198.29 386.46 198.418 386.524 198.565C386.592 198.715 386.632 198.874 386.643 199.036C386.656 199.085 386.656 199.136 386.643 199.184C386.624 199.23 386.589 199.269 386.544 199.295L386.295 199.425C386.206 199.48 386.146 199.48 386.126 199.425C386.08 199.321 386.024 199.222 385.957 199.129C385.906 199.046 385.83 198.979 385.739 198.935C385.644 198.89 385.536 198.874 385.431 198.888C385.282 198.911 385.14 198.961 385.013 199.036C384.844 199.129 384.69 199.244 384.556 199.379C384.412 199.529 384.292 199.697 384.198 199.878C384.084 200.076 384.001 200.288 383.95 200.507C383.89 200.753 383.857 201.004 383.851 201.256C383.851 201.515 383.851 201.756 383.851 201.977C383.851 202.199 383.851 202.431 383.851 202.69C383.851 202.918 383.885 203.145 383.95 203.365C383.991 203.514 384.077 203.649 384.198 203.753C384.246 203.794 384.303 203.825 384.365 203.844C384.426 203.863 384.492 203.87 384.556 203.864C384.719 203.849 384.875 203.798 385.013 203.716C385.18 203.627 385.331 203.515 385.461 203.383C385.615 203.246 385.74 203.083 385.828 202.902C385.942 202.701 386.026 202.487 386.077 202.264C386.139 202 386.169 201.73 386.166 201.46V201.219L385.292 201.682C385.277 201.695 385.257 201.702 385.237 201.702C385.217 201.702 385.197 201.695 385.182 201.682C385.147 201.643 385.129 201.593 385.133 201.543V201.238C385.135 201.17 385.152 201.104 385.182 201.043C385.202 200.99 385.24 200.944 385.292 200.914L386.574 200.22C386.591 200.208 386.612 200.202 386.633 200.202C386.655 200.202 386.676 200.208 386.693 200.22C386.711 200.265 386.711 200.314 386.693 200.359V201.182C386.694 201.524 386.654 201.865 386.574 202.199C386.499 202.519 386.386 202.829 386.236 203.124C386.098 203.409 385.918 203.674 385.699 203.91C385.49 204.139 385.242 204.333 384.964 204.484C384.739 204.622 384.478 204.699 384.208 204.706C384.107 204.704 384.008 204.683 383.916 204.645C383.824 204.607 383.741 204.552 383.672 204.484C383.515 204.317 383.406 204.117 383.354 203.901C383.274 203.617 383.234 203.325 383.234 203.032C383.241 202.52 383.244 202.005 383.244 201.487Z" fill="white"/>
</svg>
