<svg width="20" height="20" viewBox="0 0 20 20" fill="none" xmlns="http://www.w3.org/2000/svg">
<path d="M16.6615 5.57331C17.4086 5.12672 17.9675 4.42351 18.234 3.59498C17.5321 4.01149 16.7641 4.30489 15.9632 4.46248C15.4231 3.8911 14.71 3.51324 13.9339 3.38715C13.1578 3.26105 12.3618 3.39371 11.6685 3.76469C10.9753 4.13567 10.4233 4.72436 10.0977 5.44003C9.77202 6.15569 9.6908 6.9586 9.86654 7.72498C8.44477 7.6536 7.0539 7.28404 5.78422 6.6403C4.51453 5.99655 3.3944 5.09301 2.49654 3.98831C2.03992 4.7759 1.9002 5.70775 2.10574 6.59462C2.31129 7.4815 2.84669 8.25688 3.6032 8.76331C3.03546 8.74506 2.48031 8.59134 1.98404 8.31498V8.35998C1.9842 9.18579 2.26998 9.98612 2.79292 10.6253C3.31586 11.2644 4.04377 11.703 4.8532 11.8666C4.32659 12.0099 3.77421 12.031 3.2382 11.9283C3.46714 12.6386 3.91213 13.2596 4.51104 13.7048C5.10996 14.15 5.83292 14.3971 6.57904 14.4116C5.31223 15.4059 3.74777 15.9451 2.13737 15.9425C1.85154 15.9425 1.56654 15.9258 1.2832 15.8933C2.91855 16.9441 4.82185 17.5019 6.7657 17.5C8.10454 17.5092 9.43186 17.2522 10.6706 16.7441C11.9092 16.236 13.0346 15.4868 13.9813 14.54C14.928 13.5932 15.6771 12.4678 16.1851 11.2291C16.6932 9.99032 16.95 8.66298 16.9407 7.32414C16.9407 7.16914 16.9374 7.01498 16.9299 6.86164C17.6303 6.35549 18.2347 5.72845 18.7149 5.00998C18.0624 5.29918 17.3703 5.48907 16.6615 5.57331Z" fill="#515E72"/>
</svg>
