<svg width="26" height="26" viewBox="0 0 26 26" fill="none" xmlns="http://www.w3.org/2000/svg">
<path d="M21.6598 7.24533C22.6309 6.66476 23.3576 5.75059 23.7041 4.6735C22.7915 5.21497 21.7931 5.59639 20.752 5.80125C20.0498 5.05846 19.1228 4.56725 18.1139 4.40332C17.105 4.23939 16.0701 4.41186 15.1689 4.89413C14.2677 5.3764 13.5501 6.1417 13.1268 7.07207C12.7034 8.00243 12.5978 9.04621 12.8263 10.0425C10.978 9.94971 9.16988 9.46928 7.51929 8.63242C5.86869 7.79555 4.41252 6.62094 3.2453 5.18483C2.6517 6.2087 2.47006 7.42011 2.73727 8.57304C3.00448 9.72597 3.7005 10.734 4.68397 11.3923C3.9459 11.3686 3.22421 11.1688 2.57905 10.8095V10.868C2.57926 11.9416 2.95078 12.982 3.6306 13.8129C4.31043 14.6437 5.25671 15.2139 6.30897 15.4267C5.62437 15.6129 4.90628 15.6403 4.20947 15.5068C4.50709 16.4302 5.08557 17.2376 5.86416 17.8163C6.64275 18.3951 7.58261 18.7163 8.55255 18.7352C6.9057 20.0277 4.8719 20.7287 2.77839 20.7252C2.4068 20.7252 2.0363 20.7036 1.66797 20.6613C3.79392 22.0274 6.26821 22.7525 8.79522 22.75C10.5357 22.762 12.2612 22.4279 13.8715 21.7674C15.4818 21.1068 16.9448 20.1328 18.1755 18.902C19.4062 17.6712 20.3801 16.2082 21.0405 14.5978C21.7009 12.9874 22.0348 11.2619 22.0227 9.52142C22.0227 9.31992 22.0184 9.1195 22.0086 8.92017C22.9191 8.26217 23.705 7.44701 24.3291 6.513C23.4809 6.88897 22.5811 7.13582 21.6598 7.24533Z" fill="white"/>
</svg>
