<svg width="16" height="16" viewBox="0 0 16 16" fill="none" xmlns="http://www.w3.org/2000/svg">
<path d="M12.3245 15.751C12.1751 15.7506 12.0261 15.7342 11.8801 15.7021C9.10083 15.1272 6.54037 13.7792 4.49343 11.8132C2.49017 9.84297 1.10081 7.33439 0.493433 4.59101C0.421816 4.24911 0.439394 3.89452 0.544475 3.56137C0.649556 3.22823 0.838605 2.92773 1.09343 2.68879L2.87121 0.977679C2.96201 0.891806 3.0699 0.826047 3.18784 0.784693C3.30578 0.743339 3.43111 0.727319 3.55566 0.737679C3.6848 0.751151 3.80942 0.792751 3.92075 0.859554C4.03209 0.926356 4.12744 1.01674 4.2001 1.12435L6.42232 4.40879C6.50566 4.53623 6.54588 4.68706 6.53708 4.83907C6.52828 4.99109 6.47092 5.13626 6.37343 5.25323L5.25788 6.58657C5.70217 7.56988 6.33136 8.4586 7.11121 9.20435C7.88601 9.97714 8.8018 10.5942 9.80899 11.0221L11.1912 9.92435C11.3073 9.8326 11.4486 9.77835 11.5962 9.76883C11.7439 9.7593 11.891 9.79494 12.0179 9.87101L15.3734 12.0399C15.4886 12.1087 15.5867 12.2026 15.6604 12.3146C15.7341 12.4267 15.7815 12.554 15.799 12.6869C15.8165 12.8199 15.8038 12.9551 15.7616 13.0824C15.7195 13.2097 15.6491 13.3259 15.5557 13.4221L13.8223 15.1377C13.6254 15.3336 13.3917 15.4887 13.1347 15.5939C12.8776 15.6992 12.6023 15.7526 12.3245 15.751ZM3.48454 1.61768L1.70677 3.32879C1.56341 3.46237 1.45729 3.63096 1.39885 3.81798C1.3404 4.00501 1.33164 4.20402 1.37343 4.39546C1.9382 6.96974 3.23642 9.32537 5.11121 11.1777C7.03752 13.0273 9.44704 14.2952 12.0623 14.8355C12.2603 14.8768 12.4654 14.8685 12.6593 14.8111C12.8533 14.7537 13.0299 14.649 13.1734 14.5066L14.9068 12.791L11.6668 10.6977L10.1823 11.8799C10.1255 11.9249 10.0585 11.9553 9.98726 11.9684C9.91599 11.9816 9.84258 11.9772 9.77343 11.9555C8.54086 11.5013 7.42386 10.7804 6.50232 9.84435C5.54915 8.95422 4.80927 7.86035 4.33788 6.64435C4.31794 6.57073 4.31727 6.49322 4.33595 6.41928C4.35464 6.34533 4.39203 6.27743 4.44454 6.22212L5.64454 4.78657L3.48454 1.61768Z" fill="white"/>
</svg>
