<svg width="20" height="20" viewBox="0 0 20 20" fill="none" xmlns="http://www.w3.org/2000/svg">
<path d="M5 3C5 4.062 4.29 4.976 2.999 4.976C1.784 4.976 1 4.114 1 3.052C1 1.962 1.76 1 3 1C4.24 1 4.976 1.91 5 3ZM1 19V6H5V19H1ZM7 10.444C7 8.899 6.949 7.608 6.898 6.493H10.492L10.67 8.216H10.746C11.252 7.405 12.492 6.216 14.568 6.216C17.1 6.216 19 7.911 19 11.558V19H15V12.139C15 10.545 14.393 9.329 13 9.329C11.938 9.329 11.406 10.189 11.127 10.898C11.025 11.152 11 11.506 11 11.861V19H7V10.444Z" fill="#515E72"/>
</svg>
