<svg width="26" height="26" viewBox="0 0 26 26" fill="none" xmlns="http://www.w3.org/2000/svg">
<path d="M6.4998 3.90005C6.4998 5.28065 5.57681 6.46885 3.8985 6.46885C2.319 6.46885 1.2998 5.34825 1.2998 3.96765C1.2998 2.55065 2.2878 1.30005 3.8998 1.30005C5.51181 1.30005 6.46861 2.48305 6.4998 3.90005ZM1.2998 24.7001V7.80005H6.4998V24.7001H1.2998ZM9.0998 13.5772C9.0998 11.5687 9.0335 9.89045 8.9672 8.44095H13.6394L13.8708 10.6808H13.9696C14.6274 9.62655 16.2394 8.08085 18.9382 8.08085C22.2298 8.08085 24.6998 10.2843 24.6998 15.0254V24.7001H19.4998V15.7807C19.4998 13.7085 18.7107 12.1278 16.8998 12.1278C15.5192 12.1278 14.8276 13.2457 14.4649 14.1674C14.3323 14.4976 14.2998 14.9578 14.2998 15.4193V24.7001H9.0998V13.5772Z" fill="white"/>
</svg>
