<svg width="41" height="40" viewBox="0 0 41 40" fill="none" xmlns="http://www.w3.org/2000/svg">
<path d="M35.2225 20.9627V20.3119C35.2225 18.3986 34.8376 16.5039 34.0898 14.7362C33.3419 12.9685 32.2458 11.3623 30.864 10.0093C29.4822 8.65637 27.8417 7.58315 26.0363 6.85093C24.2308 6.11872 22.2958 5.74185 20.3416 5.74185C18.3874 5.74185 16.4523 6.11872 14.6469 6.85093C12.8414 7.58315 11.201 8.65637 9.81916 10.0093C8.43733 11.3623 7.34121 12.9685 6.59337 14.7362C5.84553 16.5039 5.46063 18.3986 5.46063 20.3119V20.9627C6.21468 20.5365 7.07005 20.312 7.94075 20.312C8.81146 20.312 9.66683 20.5364 10.4209 20.9627C11.1749 21.3889 11.8011 22.002 12.2365 22.7403C12.6719 23.4786 12.9011 24.3161 12.9011 25.1686V30.0253C12.9011 31.3134 12.3785 32.5487 11.4483 33.4595C10.518 34.3703 9.25634 34.882 7.94079 34.882C6.62523 34.882 5.36355 34.3703 4.43331 33.4595C3.50307 32.5487 2.98047 31.3134 2.98047 30.0253V20.3119C2.98047 15.8037 4.80958 11.48 8.06542 8.29223C11.3213 5.10441 15.7371 3.31351 20.3416 3.31351C24.946 3.31351 29.3619 5.10441 32.6177 8.29223C35.8736 11.48 37.7027 15.8037 37.7027 20.3119V30.0253C37.7027 31.3134 37.1801 32.5487 36.2498 33.4595C35.3196 34.3703 34.0579 34.882 32.7424 34.882C31.4268 34.882 30.1651 34.3703 29.2349 33.4595C28.3047 32.5487 27.7821 31.3134 27.7821 30.0253V25.1686C27.7821 24.3161 28.0113 23.4786 28.4467 22.7403C28.882 22.002 29.5082 21.3889 30.2623 20.9627C31.0163 20.5364 31.8717 20.312 32.7424 20.312C33.6131 20.312 34.4685 20.5365 35.2225 20.9627ZM35.2225 25.1686C35.2225 24.5246 34.9612 23.9069 34.4961 23.4515C34.031 22.9961 33.4002 22.7403 32.7424 22.7403C32.0846 22.7403 31.4538 22.9961 30.9886 23.4515C30.5235 23.9069 30.2622 24.5246 30.2622 25.1686V30.0253C30.2622 30.6693 30.5235 31.287 30.9886 31.7424C31.4538 32.1978 32.0846 32.4536 32.7424 32.4536C33.4002 32.4536 34.031 32.1978 34.4961 31.7424C34.9612 31.287 35.2225 30.6693 35.2225 30.0253V25.1686ZM5.46063 25.1686V30.0253C5.46063 30.6693 5.72193 31.287 6.18705 31.7424C6.65217 32.1978 7.28301 32.4536 7.94079 32.4536C8.59856 32.4536 9.2294 32.1978 9.69452 31.7424C10.1596 31.287 10.4209 30.6693 10.4209 30.0253V25.1686C10.4209 24.5246 10.1596 23.9069 9.69452 23.4515C9.2294 22.9961 8.59856 22.7403 7.94079 22.7403C7.28301 22.7403 6.65217 22.9961 6.18705 23.4515C5.72193 23.9069 5.46063 24.5246 5.46063 25.1686Z" fill="#F29100"/>
</svg>
