<svg width="615" height="568" viewBox="0 0 615 568" fill="none" xmlns="http://www.w3.org/2000/svg">
<path d="M524.373 294.548C408.192 232.152 220.448 232.152 105.026 294.548C-10.3957 356.943 -9.78853 458.189 106.43 520.585C222.649 582.98 410.355 582.98 525.79 520.585C641.224 458.189 640.554 356.943 524.373 294.548Z" fill="#E1E8F2"/>
<path d="M73.3375 452.385L229.038 368.799C231.406 367.527 234.091 366.857 236.824 366.857C239.558 366.857 242.243 367.527 244.611 368.799L260.082 377.134C260.87 377.557 261.525 378.167 261.98 378.9C262.434 379.634 262.674 380.466 262.674 381.313C262.674 382.16 262.434 382.992 261.98 383.726C261.525 384.459 260.87 385.069 260.082 385.492L104.483 469.208C102.106 470.498 99.4035 471.177 96.6521 471.177C93.9006 471.177 91.1985 470.498 88.8215 469.208L73.3754 460.779C72.5765 460.361 71.9109 459.753 71.4465 459.018C70.9821 458.282 70.7353 457.445 70.7315 456.592C70.7276 455.739 70.9668 454.901 71.4245 454.161C71.8823 453.422 72.5424 452.809 73.3375 452.385Z" fill="#E6E6E6"/>
<path d="M119.082 454.574L242.916 388.094C244.796 387.082 246.93 386.549 249.102 386.549C251.274 386.549 253.408 387.082 255.288 388.094L267.597 394.71C268.225 395.047 268.746 395.531 269.109 396.115C269.472 396.699 269.663 397.361 269.663 398.036C269.663 398.71 269.472 399.373 269.109 399.957C268.746 400.54 268.225 401.025 267.597 401.362L143.8 467.936C141.911 468.96 139.763 469.5 137.576 469.5C135.39 469.5 133.242 468.96 131.352 467.936L119.082 461.214C118.46 460.875 117.944 460.389 117.586 459.807C117.228 459.225 117.039 458.565 117.039 457.894C117.039 457.223 117.228 456.564 117.586 455.982C117.944 455.399 118.46 454.914 119.082 454.574Z" fill="#E6E6E6"/>
<path d="M83.3437 408.119C74.3872 403.304 59.9025 403.304 51.0093 408.119C42.1161 412.934 42.1541 420.74 51.1105 425.543C60.067 430.347 74.5517 430.358 83.4449 425.543C92.3381 420.728 92.3001 412.934 83.3437 408.119Z" fill="#E6E6E6"/>
<path d="M359.781 463.605C333.949 449.725 292.215 449.725 266.56 463.605C240.906 477.485 241.032 499.983 266.864 513.851C292.696 527.719 334.417 527.731 360.085 513.851C385.752 499.971 385.6 477.485 359.781 463.605Z" fill="#E6E6E6"/>
<path d="M477.82 468.608L608.485 398.395L420.298 296.62L289.633 366.833L477.82 468.608Z" fill="#E6E6E6"/>
<path d="M88.9103 380.489L67.2276 381.077L45.5448 380.489C44.6087 394.11 47.4677 408.001 51.4146 414.783C52.3441 416.529 53.8458 417.955 55.7031 418.856C62.1042 422.293 72.4395 422.293 78.8026 418.856C80.6995 417.929 82.2123 416.442 83.1037 414.629C87.0127 407.801 89.8464 393.992 88.9103 380.489Z" fill="white"/>
<path d="M82.5102 372.154C91.0112 376.721 91.0618 384.126 82.6114 388.694C74.1609 393.262 60.4353 393.262 51.9469 388.694C43.4585 384.126 43.4079 376.721 51.8457 372.154C60.2835 367.586 74.0218 367.598 82.5102 372.154Z" fill="#EBEBEB"/>
<path d="M79.1569 373.978C85.7857 377.51 85.8236 383.314 79.2328 386.869C72.6419 390.425 61.9271 390.401 55.2983 386.869C48.6695 383.338 48.6442 377.534 55.2224 373.978C61.8006 370.423 72.5281 370.411 79.1569 373.978Z" fill="#E0E0E0"/>
<g opacity="0.15">
<path opacity="0.15" d="M79.1569 373.978C85.7857 377.51 85.8236 383.314 79.2328 386.869C72.6419 390.425 61.9271 390.401 55.2983 386.869C48.6695 383.338 48.6442 377.534 55.2224 373.978C61.8006 370.423 72.5281 370.411 79.1569 373.978Z" fill="black"/>
</g>
<path d="M56.1713 339.119C52.6419 335.046 48.5811 331.384 45.3047 327.099C43.1035 324.179 41.2565 320.6 42.18 317.127C42.7 315.537 43.6856 314.114 45.0262 313.016C46.3668 311.918 48.0096 311.189 49.7702 310.911C53.3296 310.42 56.9581 311.175 59.9538 313.031C62.9224 314.875 65.5284 317.181 67.6579 319.847C79.8632 334.238 85.6359 352.454 83.7745 370.705C83.7425 372.809 83.0427 374.857 81.7631 376.592C80.9814 377.437 79.9576 378.059 78.8109 378.384C77.6641 378.709 76.4417 378.725 75.2861 378.428C69.3783 376.804 70.2259 369.375 69.1886 365.007C67.8653 359.006 65.5795 353.223 62.408 347.854C60.6075 344.778 58.5207 341.855 56.1713 339.119Z" fill="#FD7702"/>
<path opacity="0.2" d="M56.1713 339.119C52.6419 335.046 48.5811 331.384 45.3047 327.099C43.1035 324.179 41.2565 320.6 42.18 317.127C42.7 315.537 43.6856 314.114 45.0262 313.016C46.3668 311.918 48.0096 311.189 49.7702 310.911C53.3296 310.42 56.9581 311.175 59.9538 313.031C62.9224 314.875 65.5284 317.181 67.6579 319.847C79.8632 334.238 85.6359 352.454 83.7745 370.705C83.7425 372.809 83.0427 374.857 81.7631 376.592C80.9814 377.437 79.9576 378.059 78.8109 378.384C77.6641 378.709 76.4417 378.725 75.2861 378.428C69.3783 376.804 70.2259 369.375 69.1886 365.007C67.8653 359.006 65.5795 353.223 62.408 347.854C60.6075 344.778 58.5207 341.855 56.1713 339.119Z" fill="white"/>
<path d="M75.6642 372.86C75.5511 372.839 75.4486 372.784 75.373 372.703C75.2974 372.622 75.253 372.52 75.2467 372.412C74.8292 363.583 71.7426 333.456 49.44 316.362C49.3869 316.324 49.3427 316.275 49.31 316.22C49.2774 316.165 49.2569 316.104 49.2499 316.042C49.2428 315.979 49.2492 315.916 49.2688 315.856C49.2885 315.796 49.3208 315.74 49.3641 315.691C49.407 315.642 49.4602 315.6 49.5204 315.57C49.5807 315.539 49.6468 315.52 49.7151 315.514C49.7833 315.507 49.8523 315.513 49.918 315.531C49.9837 315.55 50.0448 315.58 50.0978 315.621C72.7293 332.974 75.8539 363.442 76.2714 372.365C76.2748 372.429 76.2647 372.492 76.2418 372.552C76.2188 372.612 76.1834 372.667 76.1376 372.714C76.0917 372.761 76.0364 372.799 75.9747 372.826C75.913 372.853 75.8462 372.869 75.778 372.872L75.6642 372.86Z" fill="#F0F0F0"/>
<path d="M78.9162 373.813C78.4469 375.744 77.5643 377.567 76.321 379.173C75.0778 380.779 73.4994 382.135 71.6801 383.161C68.2671 384.672 64.4678 385.263 60.7123 384.868C56.9146 384.464 53.1818 383.642 49.5926 382.419C47.7962 381.854 45.7975 381.101 45.6204 379.04C45.5892 378.499 45.6864 377.958 45.905 377.455C46.1236 376.953 46.4583 376.501 46.8854 376.132C47.2519 375.808 47.6362 375.502 48.0366 375.214C48.2216 375.083 48.3593 374.902 48.4316 374.696C48.504 374.49 48.5075 374.268 48.4417 374.06C48.3759 373.853 48.2439 373.668 48.0632 373.532C47.8825 373.395 47.6615 373.313 47.4294 373.295C46.3641 373.232 45.3038 373.11 44.2541 372.93C41.8076 372.564 39.5104 371.597 37.6 370.128C36.2076 368.98 35.1502 367.522 34.526 365.89C33.9947 364.501 33.8429 362.77 34.9688 361.734C35.6715 361.188 36.5275 360.841 37.4356 360.734C38.2199 360.569 39.0169 360.439 39.8139 360.322C40.0407 360.287 40.2496 360.186 40.4091 360.032C40.5687 359.878 40.6703 359.68 40.6988 359.468C40.7273 359.256 40.6811 359.041 40.5672 358.855C40.4533 358.669 40.2777 358.523 40.0669 358.438L36.7019 357.131C35.7415 356.841 34.8725 356.336 34.1718 355.66C33.7342 355.028 33.4497 354.316 33.3383 353.571C33.2269 352.827 33.2911 352.069 33.5266 351.351C33.9314 349.385 34.6652 347.501 35.1585 345.547C35.7385 343.63 35.8166 341.611 35.3862 339.66C41.6904 339.013 48.068 339.412 54.2226 340.838C56.0765 341.196 57.8299 341.91 59.3713 342.933C61.4713 344.499 62.0153 346.842 61.7876 349.385C61.785 349.487 61.8193 349.587 61.885 349.67C61.9508 349.752 62.0442 349.811 62.1504 349.838C62.2566 349.865 62.3695 349.859 62.4711 349.819C62.5727 349.78 62.6571 349.71 62.711 349.62L64.8616 345.935C65.1734 345.401 65.6952 345 66.3177 344.816C66.9401 344.631 67.6151 344.678 68.2013 344.946C70.087 345.819 71.7614 347.041 73.1223 348.537C73.8767 349.338 74.4511 350.272 74.8118 351.283C75.1724 352.294 75.312 353.361 75.2222 354.423C74.9586 357.324 74.4339 360.199 73.6536 363.018C73.6124 363.177 73.6246 363.344 73.6885 363.496C73.7525 363.649 73.8651 363.779 74.0112 363.87C74.1573 363.961 74.3299 364.009 74.5057 364.006C74.6815 364.003 74.8521 363.949 74.9945 363.853L75.0957 363.783C75.6741 363.373 76.3961 363.18 77.1198 363.241C79.0174 363.465 79.5107 365.254 79.6499 366.773C79.7103 369.139 79.4639 371.502 78.9162 373.813Z" fill="#FD7702"/>
<path opacity="0.2" d="M78.9162 373.813C78.4469 375.744 77.5643 377.567 76.321 379.173C75.0778 380.779 73.4994 382.135 71.6801 383.161C68.2671 384.672 64.4678 385.263 60.7123 384.868C56.9146 384.464 53.1818 383.642 49.5926 382.419C47.7962 381.854 45.7975 381.101 45.6204 379.04C45.5892 378.499 45.6864 377.958 45.905 377.455C46.1236 376.953 46.4583 376.501 46.8854 376.132C47.2519 375.808 47.6362 375.502 48.0366 375.214C48.2216 375.083 48.3593 374.902 48.4316 374.696C48.504 374.49 48.5075 374.268 48.4417 374.06C48.3759 373.853 48.2439 373.668 48.0632 373.532C47.8825 373.395 47.6615 373.313 47.4294 373.295C46.3641 373.232 45.3038 373.11 44.2541 372.93C41.8076 372.564 39.5104 371.597 37.6 370.128C36.2076 368.98 35.1502 367.522 34.526 365.89C33.9947 364.501 33.8429 362.77 34.9688 361.734C35.6715 361.188 36.5275 360.841 37.4356 360.734C38.2199 360.569 39.0169 360.439 39.8139 360.322C40.0407 360.287 40.2496 360.186 40.4091 360.032C40.5687 359.878 40.6703 359.68 40.6988 359.468C40.7273 359.256 40.6811 359.041 40.5672 358.855C40.4533 358.669 40.2777 358.523 40.0669 358.438L36.7019 357.131C35.7415 356.841 34.8725 356.336 34.1718 355.66C33.7342 355.028 33.4497 354.316 33.3383 353.571C33.2269 352.827 33.2911 352.069 33.5266 351.351C33.9314 349.385 34.6652 347.501 35.1585 345.547C35.7385 343.63 35.8166 341.611 35.3862 339.66C41.6904 339.013 48.068 339.412 54.2226 340.838C56.0765 341.196 57.8299 341.91 59.3713 342.933C61.4713 344.499 62.0153 346.842 61.7876 349.385C61.785 349.487 61.8193 349.587 61.885 349.67C61.9508 349.752 62.0442 349.811 62.1504 349.838C62.2566 349.865 62.3695 349.859 62.4711 349.819C62.5727 349.78 62.6571 349.71 62.711 349.62L64.8616 345.935C65.1734 345.401 65.6952 345 66.3177 344.816C66.9401 344.631 67.6151 344.678 68.2013 344.946C70.087 345.819 71.7614 347.041 73.1223 348.537C73.8767 349.338 74.4511 350.272 74.8118 351.283C75.1724 352.294 75.312 353.361 75.2222 354.423C74.9586 357.324 74.4339 360.199 73.6536 363.018C73.6124 363.177 73.6246 363.344 73.6885 363.496C73.7525 363.649 73.8651 363.779 74.0112 363.87C74.1573 363.961 74.3299 364.009 74.5057 364.006C74.6815 364.003 74.8521 363.949 74.9945 363.853L75.0957 363.783C75.6741 363.373 76.3961 363.18 77.1198 363.241C79.0174 363.465 79.5107 365.254 79.6499 366.773C79.7103 369.139 79.4639 371.502 78.9162 373.813Z" fill="black"/>
<path opacity="0.2" d="M78.9162 373.813C78.4469 375.744 77.5643 377.567 76.321 379.173C75.0778 380.779 73.4994 382.135 71.6801 383.161C68.2671 384.672 64.4678 385.263 60.7123 384.868C56.9146 384.464 53.1818 383.642 49.5926 382.419C47.7962 381.854 45.7975 381.101 45.6204 379.04C45.5892 378.499 45.6864 377.958 45.905 377.455C46.1236 376.953 46.4583 376.501 46.8854 376.132C47.2519 375.808 47.6362 375.502 48.0366 375.214C48.2216 375.083 48.3593 374.902 48.4316 374.696C48.504 374.49 48.5075 374.268 48.4417 374.06C48.3759 373.853 48.2439 373.668 48.0632 373.532C47.8825 373.395 47.6615 373.313 47.4294 373.295C46.3641 373.232 45.3038 373.11 44.2541 372.93C41.8076 372.564 39.5104 371.597 37.6 370.128C36.2076 368.98 35.1502 367.522 34.526 365.89C33.9947 364.501 33.8429 362.77 34.9688 361.734C35.6715 361.188 36.5275 360.841 37.4356 360.734C38.2199 360.569 39.0169 360.439 39.8139 360.322C40.0407 360.287 40.2496 360.186 40.4091 360.032C40.5687 359.878 40.6703 359.68 40.6988 359.468C40.7273 359.256 40.6811 359.041 40.5672 358.855C40.4533 358.669 40.2777 358.523 40.0669 358.438L36.7019 357.131C35.7415 356.841 34.8725 356.336 34.1718 355.66C33.7342 355.028 33.4497 354.316 33.3383 353.571C33.2269 352.827 33.2911 352.069 33.5266 351.351C33.9314 349.385 34.6652 347.501 35.1585 345.547C35.7385 343.63 35.8166 341.611 35.3862 339.66C41.6904 339.013 48.068 339.412 54.2226 340.838C56.0765 341.196 57.8299 341.91 59.3713 342.933C61.4713 344.499 62.0153 346.842 61.7876 349.385C61.785 349.487 61.8193 349.587 61.885 349.67C61.9508 349.752 62.0442 349.811 62.1504 349.838C62.2566 349.865 62.3695 349.859 62.4711 349.819C62.5727 349.78 62.6571 349.71 62.711 349.62L64.8616 345.935C65.1734 345.401 65.6952 345 66.3177 344.816C66.9401 344.631 67.6151 344.678 68.2013 344.946C70.087 345.819 71.7614 347.041 73.1223 348.537C73.8767 349.338 74.4511 350.272 74.8118 351.283C75.1724 352.294 75.312 353.361 75.2222 354.423C74.9586 357.324 74.4339 360.199 73.6536 363.018C73.6124 363.177 73.6246 363.344 73.6885 363.496C73.7525 363.649 73.8651 363.779 74.0112 363.87C74.1573 363.961 74.3299 364.009 74.5057 364.006C74.6815 364.003 74.8521 363.949 74.9945 363.853L75.0957 363.783C75.6741 363.373 76.3961 363.18 77.1198 363.241C79.0174 363.465 79.5107 365.254 79.6499 366.773C79.7103 369.139 79.4639 371.502 78.9162 373.813Z" fill="white"/>
<path d="M68.9227 382.678C67.7377 377.974 66.0423 373.395 63.8625 369.01C63.8645 368.942 63.8495 368.875 63.8188 368.814C63.7881 368.752 63.7424 368.699 63.6854 368.657L63.3312 367.938C63.9565 362.472 65.6726 357.161 68.3914 352.281C68.4246 352.227 68.446 352.167 68.4545 352.105C68.4629 352.043 68.4582 351.98 68.4406 351.92C68.423 351.86 68.3928 351.804 68.3518 351.755C68.3108 351.705 68.2598 351.664 68.2016 351.633C68.1435 351.602 68.0793 351.582 68.0129 351.574C67.9465 351.566 67.879 351.571 67.8144 351.587C67.7498 351.604 67.6893 351.632 67.6364 351.67C67.5834 351.708 67.5391 351.756 67.5058 351.81C64.9487 356.356 63.2539 361.278 62.4963 366.361C58.2078 358.355 51.364 348.996 40.8009 342.144C40.7444 342.109 40.681 342.084 40.6142 342.071C40.5473 342.058 40.4785 342.058 40.4115 342.07C40.3445 342.082 40.2807 342.106 40.2238 342.141C40.1669 342.176 40.118 342.221 40.0798 342.274C40.0412 342.325 40.0139 342.382 39.9994 342.443C39.9848 342.504 39.9834 342.567 39.9952 342.628C40.007 342.689 40.0317 342.748 40.0679 342.8C40.1042 342.853 40.1512 342.898 40.2063 342.933C51.1109 349.997 57.9801 359.78 62.1674 367.903C56.5448 365.535 50.3004 364.749 44.2038 365.643C44.1364 365.654 44.0721 365.678 44.0145 365.712C43.957 365.747 43.9073 365.792 43.8685 365.844C43.8297 365.897 43.8025 365.956 43.7884 366.018C43.7743 366.081 43.7736 366.145 43.7864 366.208C43.8067 366.301 43.8559 366.386 43.9279 366.453C43.9999 366.52 44.0914 366.566 44.1912 366.585H44.4442C44.5454 366.585 54.4 364.901 62.9391 369.339C65.1185 373.68 66.8141 378.216 67.9992 382.878C68.021 382.97 68.0707 383.055 68.1424 383.122C68.2142 383.188 68.3049 383.235 68.404 383.255C68.4709 383.267 68.5395 383.267 68.6064 383.255C68.7284 383.215 68.8292 383.132 68.888 383.025C68.9468 382.918 68.9593 382.793 68.9227 382.678Z" fill="#F0F0F0"/>
<path d="M242.498 53.8188C241.473 50.4753 234.174 44.1181 226.913 44.2476C226.216 44.2648 225.527 44.3921 224.876 44.6243L83.8244 119.299C81.7635 120.406 80.0498 121.996 78.8536 123.911C77.6574 125.825 77.0204 127.998 77.0059 130.212V414.171C77.0059 421.399 85.9623 428.298 94.3875 424.978C94.5749 424.927 94.757 424.86 94.9314 424.778L236.046 349.88C238.117 348.785 239.838 347.2 241.036 345.285C242.234 343.37 242.865 341.194 242.865 338.978V55.1844C242.857 54.709 242.732 54.2416 242.498 53.8188Z" fill="#455A64"/>
<path d="M96.6768 160.221C96.6755 159.112 96.9911 158.023 97.5913 157.065C98.1916 156.107 99.0547 155.315 100.092 154.77L231.074 85.4167C231.588 85.138 232.171 84.9909 232.765 84.9902C233.36 84.9896 233.944 85.1354 234.458 85.4129C234.972 85.6904 235.398 86.0896 235.692 86.5701C235.987 87.0505 236.139 87.5949 236.134 88.148V317.116C236.133 318.225 235.817 319.313 235.22 320.272C234.623 321.231 233.764 322.027 232.731 322.579L101.75 392.038C101.236 392.313 100.653 392.457 100.06 392.456C99.4673 392.455 98.8852 392.308 98.3724 392.032C97.8596 391.755 97.4342 391.357 97.1387 390.879C96.8433 390.401 96.6883 389.858 96.6894 389.307L96.6768 160.221Z" fill="#FD7702"/>
<path opacity="0.2" d="M96.6768 160.221C96.6755 159.112 96.9911 158.023 97.5913 157.065C98.1916 156.107 99.0547 155.315 100.092 154.77L231.074 85.4167C231.588 85.138 232.171 84.9909 232.765 84.9902C233.36 84.9896 233.944 85.1354 234.458 85.4129C234.972 85.6904 235.398 86.0896 235.692 86.5701C235.987 87.0505 236.139 87.5949 236.134 88.148V317.116C236.133 318.225 235.817 319.313 235.22 320.272C234.623 321.231 233.764 322.027 232.731 322.579L101.75 392.038C101.236 392.313 100.653 392.457 100.06 392.456C99.4673 392.455 98.8852 392.308 98.3724 392.032C97.8596 391.755 97.4342 391.357 97.1387 390.879C96.8433 390.401 96.6883 389.858 96.6894 389.307L96.6768 160.221Z" fill="#FD7702"/>
<path opacity="0.3" d="M77.0059 130.212V414.17C77.0059 421.399 85.9623 428.298 94.3875 424.978C93.8835 425.133 93.3473 425.174 92.823 425.098C92.2986 425.022 91.8011 424.832 91.3713 424.542C90.9415 424.252 90.5917 423.872 90.3507 423.432C90.1098 422.992 89.9845 422.505 89.9851 422.011V138.052C89.996 135.583 90.788 133.171 92.2622 131.118L78.448 124.702C77.5219 126.412 77.0286 128.297 77.0059 130.212Z" fill="black"/>
<path opacity="0.1" d="M226.925 44.2356C226.228 44.2528 225.54 44.3802 224.889 44.6123L83.8245 119.299C81.4732 120.552 79.5821 122.435 78.3975 124.702L92.2117 131.118C93.3745 129.483 94.929 128.121 96.7531 127.139L237.817 52.453C238.218 52.2431 238.66 52.1118 239.117 52.0672C239.574 52.0225 240.037 52.0655 240.475 52.1935C240.914 52.3214 241.319 52.5317 241.667 52.8112C242.015 53.0907 242.298 53.4335 242.498 53.8186C241.486 50.4634 234.199 44.1061 226.925 44.2356Z" fill="white"/>
<path d="M183.788 99.3438C184.775 98.814 185.597 99.2261 185.597 100.286C185.562 100.867 185.381 101.433 185.07 101.938C184.758 102.443 184.323 102.873 183.801 103.194L156.122 118.063C155.122 118.592 154.325 118.145 154.325 117.085C154.359 116.51 154.539 115.95 154.849 115.451C155.159 114.952 155.59 114.528 156.109 114.213L183.788 99.3438Z" fill="#263238"/>
<path d="M148.999 118.039C149.985 117.498 150.795 117.921 150.795 118.981C150.762 119.56 150.584 120.124 150.274 120.627C149.964 121.13 149.532 121.558 149.011 121.877C148.024 122.418 147.202 121.983 147.202 120.923C147.235 120.345 147.415 119.781 147.727 119.28C148.039 118.779 148.475 118.353 148.999 118.039Z" fill="#263238"/>
<path d="M166.709 97.1778C168.695 96.1183 170.289 96.9659 170.302 99.085C170.239 100.242 169.883 101.369 169.263 102.373C168.643 103.378 167.776 104.232 166.734 104.865C164.761 105.937 163.116 105.065 163.116 102.946C163.186 101.79 163.547 100.665 164.171 99.6624C164.796 98.6601 165.665 97.8089 166.709 97.1778Z" fill="#263238"/>
<path d="M166.721 364.501C170.756 362.335 174.008 364.065 174.02 368.374C173.891 370.729 173.168 373.022 171.908 375.067C170.649 377.113 168.889 378.853 166.772 380.147C162.736 382.313 159.396 380.536 159.384 376.227C159.532 373.874 160.274 371.586 161.549 369.549C162.823 367.512 164.595 365.783 166.721 364.501Z" fill="#263238"/>
<path d="M268.355 102.534C267.419 99.4969 260.765 93.7283 254.212 93.846C253.576 93.8616 252.947 93.9771 252.352 94.1874L124.292 161.963C122.423 162.971 120.87 164.416 119.785 166.155C118.7 167.893 118.121 169.865 118.106 171.876V429.616C118.106 436.186 126.241 442.449 133.869 439.435C134.041 439.392 134.207 439.328 134.362 439.247L262.46 371.306C264.338 370.311 265.9 368.87 266.986 367.131C268.073 365.392 268.645 363.417 268.646 361.405V103.829C268.667 103.382 268.567 102.936 268.355 102.534Z" fill="#374865"/>
<path opacity="0.2" d="M118.107 171.876V429.617C118.107 436.186 126.241 442.449 133.869 439.435C133.409 439.59 132.916 439.64 132.431 439.58C131.947 439.52 131.485 439.353 131.084 439.092C130.683 438.831 130.356 438.484 130.13 438.081C129.903 437.678 129.784 437.23 129.783 436.775V178.998C129.791 176.754 130.513 174.563 131.858 172.7L119.321 166.873C118.509 168.432 118.094 170.144 118.107 171.876Z" fill="white"/>
<path opacity="0.4" d="M254.187 93.8341C253.551 93.8497 252.922 93.9651 252.327 94.1755L124.293 161.963C122.159 163.101 120.444 164.812 119.372 166.872L131.909 172.7C132.958 171.209 134.371 169.971 136.033 169.085L264.067 101.298C264.432 101.1 264.837 100.975 265.256 100.931C265.675 100.887 266.1 100.924 266.503 101.04C266.906 101.156 267.279 101.349 267.598 101.606C267.917 101.863 268.175 102.179 268.355 102.534C267.394 99.485 260.765 93.7163 254.187 93.8341Z" fill="white"/>
<path opacity="0.3" d="M268.355 102.534C267.419 99.4969 260.765 93.7283 254.212 93.846C253.576 93.8616 252.947 93.9771 252.352 94.1874L124.292 161.963C122.425 162.97 120.873 164.413 119.788 166.15C118.703 167.886 118.123 169.856 118.106 171.864V429.616C118.106 436.186 126.241 442.449 133.869 439.435C134.036 439.389 134.198 439.326 134.35 439.247L262.46 371.306C264.338 370.311 265.9 368.87 266.986 367.131C268.073 365.392 268.645 363.417 268.646 361.405V103.829C268.667 103.382 268.567 102.936 268.355 102.534Z" fill="white"/>
<path d="M257.374 137.77C258.639 137.111 259.601 137.629 259.601 138.947V151.509C259.55 152.217 259.324 152.904 258.94 153.517C258.556 154.13 258.024 154.651 257.387 155.041L140.409 217.637C139.144 218.296 138.183 217.766 138.183 216.459V203.91C138.228 203.201 138.453 202.512 138.837 201.898C139.222 201.285 139.756 200.764 140.396 200.378L257.374 137.77Z" fill="#374865"/>
<g opacity="0.7">
<path opacity="0.7" d="M257.375 137.77C258.64 137.111 259.602 137.629 259.602 138.947V151.509C259.551 152.217 259.325 152.904 258.941 153.517C258.557 154.13 258.025 154.651 257.388 155.041L140.41 217.637C139.145 218.296 138.184 217.766 138.184 216.459V203.91C138.229 203.201 138.454 202.512 138.838 201.898C139.223 201.285 139.757 200.764 140.397 200.378L257.375 137.77Z" fill="white"/>
</g>
<path d="M142.635 179.776C142.696 179.748 142.763 179.733 142.831 179.733C142.899 179.733 142.966 179.748 143.027 179.776C143.28 179.882 143.293 180.282 143.027 180.659L141.167 183.884L147.594 180.435C147.923 180.258 148.188 180.435 148.188 180.753C148.18 180.945 148.122 181.132 148.018 181.298C147.915 181.465 147.769 181.605 147.594 181.706L141.167 185.156L143.09 186.333C143.318 186.463 143.293 186.875 143.09 187.24C142.993 187.395 142.859 187.528 142.698 187.628C142.632 187.668 142.555 187.689 142.477 187.689C142.398 187.689 142.321 187.668 142.255 187.628L139.422 185.85C139.373 185.816 139.334 185.772 139.308 185.721C139.295 185.651 139.295 185.579 139.308 185.509C139.302 185.431 139.302 185.352 139.308 185.274C139.308 185.168 139.384 185.097 139.422 185.015L142.243 180.188C142.34 180.025 142.473 179.885 142.635 179.776Z" fill="#374865"/>
<path d="M158.867 171.064C158.931 171.025 159.006 171.004 159.082 171.004C159.159 171.004 159.233 171.025 159.297 171.064L162.131 172.841C162.18 172.88 162.219 172.928 162.245 172.983C162.258 173.053 162.258 173.124 162.245 173.195C162.251 173.269 162.251 173.344 162.245 173.418C162.214 173.507 162.176 173.594 162.131 173.677L159.31 178.516C159.21 178.698 159.057 178.849 158.867 178.951C158.808 178.985 158.74 179.002 158.671 179.002C158.602 179.002 158.534 178.985 158.475 178.951C158.235 178.845 158.209 178.457 158.475 178.08L160.373 174.819L153.946 178.269C153.63 178.445 153.352 178.269 153.352 177.951C153.36 177.759 153.418 177.571 153.521 177.405C153.625 177.239 153.771 177.099 153.946 176.997L160.373 173.548L158.45 172.37C158.235 172.229 158.247 171.817 158.45 171.452C158.549 171.29 158.693 171.156 158.867 171.064Z" fill="#374865"/>
<path d="M170.731 164.682C171.317 164.333 172.012 164.176 172.705 164.235C172.727 164.061 172.79 163.893 172.891 163.744C172.992 163.595 173.127 163.469 173.287 163.376C173.616 163.211 173.869 163.376 173.856 163.729V165.142C173.843 165.323 173.785 165.5 173.686 165.657C173.587 165.815 173.45 165.948 173.287 166.048L172.022 166.813C171.705 166.978 171.44 166.813 171.427 166.519C171.43 166.35 171.473 166.184 171.551 166.031C171.63 165.879 171.743 165.744 171.883 165.636C171.502 165.66 171.133 165.769 170.807 165.954C170.077 166.387 169.468 166.974 169.028 167.667C168.588 168.361 168.331 169.141 168.277 169.945C168.277 171.416 169.403 172.005 170.807 171.275C171.822 170.668 172.591 169.766 172.996 168.709C173.093 168.458 173.275 168.243 173.514 168.097C173.6 168.043 173.702 168.014 173.805 168.014C174.084 168.014 174.198 168.356 174.046 168.756C173.445 170.314 172.312 171.645 170.82 172.547C168.783 173.63 167.139 172.747 167.126 170.581C167.19 169.404 167.55 168.257 168.176 167.233C168.802 166.209 169.677 165.335 170.731 164.682Z" fill="#374865"/>
<g opacity="0.7">
<path opacity="0.7" d="M142.635 179.775C142.696 179.747 142.763 179.732 142.831 179.732C142.899 179.732 142.966 179.747 143.027 179.775C143.28 179.881 143.293 180.281 143.027 180.658L141.167 183.884L147.594 180.434C147.923 180.258 148.188 180.434 148.188 180.752C148.18 180.944 148.122 181.132 148.018 181.298C147.915 181.464 147.769 181.604 147.594 181.706L141.167 185.155L143.09 186.333C143.318 186.462 143.293 186.874 143.09 187.239C142.993 187.395 142.859 187.528 142.698 187.628C142.632 187.668 142.555 187.689 142.477 187.689C142.398 187.689 142.321 187.668 142.255 187.628L139.422 185.85C139.373 185.816 139.334 185.771 139.308 185.72C139.295 185.65 139.295 185.579 139.308 185.509C139.302 185.43 139.302 185.351 139.308 185.273C139.308 185.167 139.384 185.096 139.422 185.014L142.243 180.187C142.34 180.025 142.473 179.884 142.635 179.775Z" fill="white"/>
<path opacity="0.7" d="M158.865 171.063C158.929 171.024 159.004 171.003 159.08 171.003C159.157 171.003 159.231 171.024 159.295 171.063L162.129 172.841C162.178 172.88 162.217 172.928 162.243 172.982C162.256 173.052 162.256 173.124 162.243 173.194C162.249 173.269 162.249 173.343 162.243 173.418C162.212 173.507 162.174 173.593 162.129 173.677L159.308 178.516C159.209 178.697 159.055 178.849 158.865 178.951C158.806 178.984 158.738 179.002 158.669 179.002C158.6 179.002 158.532 178.984 158.473 178.951C158.233 178.845 158.207 178.457 158.473 178.08L160.371 174.819L153.944 178.268C153.628 178.445 153.35 178.268 153.35 177.95C153.358 177.758 153.416 177.571 153.52 177.405C153.623 177.239 153.769 177.099 153.944 176.997L160.371 173.547L158.448 172.37C158.233 172.229 158.245 171.817 158.448 171.452C158.547 171.29 158.691 171.156 158.865 171.063Z" fill="white"/>
<path opacity="0.7" d="M170.731 164.682C171.317 164.333 172.012 164.176 172.705 164.235C172.727 164.061 172.79 163.893 172.891 163.744C172.992 163.595 173.127 163.469 173.287 163.376C173.616 163.211 173.869 163.376 173.856 163.729V165.142C173.843 165.323 173.785 165.5 173.686 165.657C173.587 165.815 173.45 165.948 173.287 166.048L172.022 166.813C171.705 166.978 171.44 166.813 171.427 166.519C171.43 166.35 171.473 166.184 171.551 166.031C171.63 165.879 171.743 165.744 171.883 165.636C171.502 165.66 171.133 165.769 170.807 165.954C170.077 166.387 169.468 166.974 169.028 167.667C168.588 168.361 168.331 169.141 168.277 169.945C168.277 171.416 169.403 172.005 170.807 171.275C171.822 170.668 172.591 169.766 172.996 168.709C173.093 168.458 173.275 168.243 173.514 168.097C173.6 168.043 173.702 168.014 173.805 168.014C174.084 168.014 174.198 168.356 174.046 168.756C173.445 170.314 172.312 171.645 170.82 172.547C168.783 173.63 167.139 172.747 167.126 170.581C167.19 169.404 167.55 168.257 168.176 167.233C168.802 166.209 169.677 165.335 170.731 164.682Z" fill="white"/>
</g>
<path d="M240.019 126.127C240.354 125.903 240.745 125.764 241.155 125.723C241.566 125.681 241.98 125.74 242.359 125.891C243.624 126.598 243.624 128.799 242.359 130.871L241.499 132.249L236.869 139.713L231.366 136.793C230.101 136.099 230.101 133.885 231.366 131.813C231.908 130.879 232.707 130.095 233.681 129.541C234.011 129.316 234.399 129.176 234.806 129.137C235.213 129.098 235.623 129.16 235.996 129.317L236.869 129.777L237.704 128.399C238.254 127.47 239.051 126.688 240.019 126.127Z" fill="#374865"/>
<path d="M259.273 115.779L259.311 128.423L254.213 128.234L249.153 133.874L249.115 121.241L259.273 115.779Z" fill="#374865"/>
<g opacity="0.7">
<path opacity="0.7" d="M240.019 126.127C240.354 125.903 240.745 125.764 241.155 125.723C241.566 125.681 241.98 125.74 242.359 125.891C243.624 126.598 243.624 128.799 242.359 130.871L241.499 132.249L236.869 139.713L231.366 136.793C230.101 136.098 230.101 133.885 231.366 131.813C231.908 130.879 232.707 130.095 233.681 129.541C234.011 129.316 234.399 129.176 234.806 129.137C235.213 129.098 235.623 129.16 235.996 129.317L236.869 129.776L237.704 128.399C238.254 127.47 239.051 126.688 240.019 126.127Z" fill="white"/>
<path opacity="0.7" d="M259.273 115.779L259.311 128.423L254.213 128.234L249.153 133.873L249.115 121.241L259.273 115.779Z" fill="white"/>
</g>
<path d="M254.819 170.31C257.349 168.944 259.411 170.039 259.411 172.747L259.638 246.762C259.557 248.236 259.102 249.671 258.311 250.95C257.519 252.229 256.414 253.315 255.084 254.12L144.507 313.525C141.977 314.891 139.915 313.796 139.915 311.1L139.688 237.073C139.769 235.599 140.223 234.164 141.015 232.885C141.807 231.606 142.912 230.52 144.242 229.715L254.819 170.31Z" fill="#374865"/>
<g opacity="0.2">
<path opacity="0.2" d="M254.819 170.31C257.349 168.944 259.411 170.039 259.411 172.747L259.638 246.762C259.557 248.236 259.102 249.671 258.311 250.95C257.519 252.229 256.414 253.315 255.084 254.12L144.507 313.525C141.977 314.891 139.915 313.796 139.915 311.1L139.688 237.073C139.769 235.599 140.223 234.164 141.015 232.885C141.807 231.606 142.912 230.52 144.242 229.715L254.819 170.31Z" fill="black"/>
</g>
<path d="M191.542 234.519L219.512 232.894L191.631 261.266L191.542 234.519Z" fill="#374865"/>
<g opacity="0.4">
<path opacity="0.4" d="M191.542 234.519L219.512 232.894L191.631 261.266L191.542 234.519Z" fill="white"/>
</g>
<path d="M254.819 261.855C257.349 260.49 259.411 261.596 259.411 264.292L259.638 298.304C259.559 299.777 259.105 301.211 258.313 302.488C257.522 303.765 256.415 304.849 255.084 305.65L144.507 365.067C141.977 366.421 139.915 365.338 139.915 362.63L139.688 328.689C139.767 327.215 140.221 325.779 141.012 324.5C141.804 323.221 142.911 322.135 144.242 321.331L254.819 261.855Z" fill="#374865"/>
<g opacity="0.1">
<path opacity="0.1" d="M254.819 261.855C257.349 260.489 259.411 261.596 259.411 264.292L259.638 298.303C259.559 299.776 259.105 301.21 258.313 302.488C257.522 303.765 256.415 304.849 255.084 305.65L144.507 365.067C141.977 366.421 139.915 365.338 139.915 362.63L139.688 328.689C139.767 327.215 140.221 325.779 141.012 324.5C141.804 323.22 142.911 322.134 144.242 321.331L254.819 261.855Z" fill="white"/>
</g>
<path d="M189.582 302.695C190.556 302.177 191.34 302.589 191.34 303.625L191.429 331.974C191.401 332.538 191.228 333.089 190.924 333.578C190.62 334.068 190.195 334.483 189.683 334.787L147.342 357.544C146.368 358.062 145.584 357.65 145.584 356.614L145.495 328.265C145.523 327.7 145.696 327.15 146 326.66C146.303 326.171 146.729 325.756 147.241 325.451L189.582 302.695Z" fill="#374865"/>
<g opacity="0.2">
<path opacity="0.2" d="M189.582 302.695C190.556 302.177 191.34 302.589 191.34 303.625L191.429 331.974C191.401 332.538 191.228 333.089 190.924 333.578C190.62 334.068 190.195 334.483 189.683 334.787L147.342 357.544C146.368 358.062 145.584 357.65 145.584 356.614L145.495 328.265C145.523 327.7 145.696 327.15 146 326.66C146.303 326.171 146.729 325.756 147.241 325.451L189.582 302.695Z" fill="black"/>
</g>
<path d="M165.355 327.288L176.07 326.664L165.381 337.53L165.355 327.288Z" fill="#374865"/>
<g opacity="0.4">
<path opacity="0.4" d="M165.355 327.288L176.07 326.664L165.381 337.53L165.355 327.288Z" fill="white"/>
</g>
<path d="M223.814 288.544L223.827 292.464L196.729 307.027V303.095L223.814 288.544Z" fill="#374865"/>
<path d="M253.175 279.832L253.187 283.764L196.754 314.079L196.741 310.147L253.175 279.832Z" fill="#374865"/>
<path d="M253.2 286.896L253.213 290.828L196.779 321.143L196.767 317.223L253.2 286.896Z" fill="#374865"/>
<path d="M236.526 302.93L236.538 306.85L196.804 328.206L196.791 324.274L236.526 302.93Z" fill="#374865"/>
<g opacity="0.5">
<path opacity="0.5" d="M223.814 288.543L223.827 292.464L196.729 307.027V303.095L223.814 288.543Z" fill="white"/>
<path opacity="0.5" d="M253.175 279.832L253.187 283.764L196.754 314.079L196.741 310.147L253.175 279.832Z" fill="white"/>
<path opacity="0.5" d="M253.202 286.896L253.215 290.828L196.781 321.143L196.769 317.222L253.202 286.896Z" fill="white"/>
<path opacity="0.5" d="M236.528 302.93L236.54 306.85L196.806 328.206L196.793 324.274L236.528 302.93Z" fill="white"/>
</g>
<path d="M254.819 315.256C257.349 313.891 259.411 314.985 259.411 317.693L259.638 351.693C259.557 353.167 259.102 354.602 258.311 355.881C257.519 357.16 256.414 358.246 255.084 359.051L144.507 418.456C141.977 419.822 139.915 418.738 139.915 416.031L139.688 382.019C139.769 380.545 140.223 379.11 141.015 377.831C141.807 376.552 142.912 375.466 144.242 374.661L254.819 315.256Z" fill="#374865"/>
<g opacity="0.1">
<path opacity="0.1" d="M254.819 315.256C257.349 313.891 259.411 314.986 259.411 317.693L259.638 351.693C259.557 353.167 259.102 354.602 258.311 355.881C257.519 357.16 256.414 358.246 255.084 359.051L144.507 418.457C141.977 419.822 139.915 418.739 139.915 416.031L139.688 382.02C139.769 380.546 140.223 379.111 141.015 377.832C141.807 376.553 142.912 375.467 144.242 374.662L254.819 315.256Z" fill="white"/>
</g>
<path d="M189.582 356.096C190.556 355.566 191.34 355.99 191.34 357.026L191.429 385.374C191.401 385.939 191.228 386.49 190.924 386.979C190.62 387.469 190.195 387.883 189.683 388.188L147.342 410.945C146.368 411.463 145.584 411.051 145.584 410.015L145.495 381.666C145.527 381.101 145.702 380.55 146.005 380.059C146.308 379.568 146.732 379.151 147.241 378.841L189.582 356.096Z" fill="#374865"/>
<g opacity="0.2">
<path opacity="0.2" d="M189.582 356.096C190.556 355.566 191.34 355.99 191.34 357.026L191.429 385.374C191.401 385.939 191.228 386.49 190.924 386.979C190.62 387.469 190.195 387.883 189.683 388.188L147.342 410.945C146.368 411.463 145.584 411.051 145.584 410.015L145.495 381.666C145.527 381.101 145.702 380.55 146.005 380.059C146.308 379.568 146.732 379.151 147.241 378.841L189.582 356.096Z" fill="black"/>
</g>
<path d="M165.355 380.689L176.07 380.053L165.381 390.931L165.355 380.689Z" fill="#374865"/>
<g opacity="0.4">
<path opacity="0.4" d="M165.355 380.689L176.07 380.053L165.381 390.931L165.355 380.689Z" fill="white"/>
</g>
<path d="M237.173 334.94L237.185 338.872L196.729 360.417V356.484L237.173 334.94Z" fill="#374865"/>
<path d="M253.175 333.233L253.187 337.153L196.754 367.48L196.741 363.548L253.175 333.233Z" fill="#374865"/>
<path d="M233.782 350.833L233.794 354.766L196.779 374.544L196.767 370.612L233.782 350.833Z" fill="#374865"/>
<path d="M214.539 368.175L214.552 372.107L196.804 381.596L196.791 377.675L214.539 368.175Z" fill="#374865"/>
<g opacity="0.5">
<path opacity="0.5" d="M237.173 334.94L237.185 338.873L196.729 360.417V356.485L237.173 334.94Z" fill="white"/>
<path opacity="0.5" d="M253.175 333.233L253.187 337.154L196.754 367.48L196.741 363.548L253.175 333.233Z" fill="white"/>
<path opacity="0.5" d="M233.783 350.833L233.795 354.766L196.78 374.544L196.768 370.612L233.783 350.833Z" fill="white"/>
<path opacity="0.5" d="M214.541 368.175L214.554 372.107L196.806 381.596L196.793 377.675L214.541 368.175Z" fill="white"/>
</g>
<path d="M499.337 101.11C498.882 100.65 498.426 100.191 497.971 99.7086L497.68 99.3908C496.946 98.5902 496.225 97.7779 495.517 96.942L495.289 96.6595C494.732 95.9884 494.188 95.3056 493.67 94.611L493.43 94.3049C492.923 93.6221 492.43 92.9393 491.937 92.2329L491.595 91.7267C491.203 91.1616 490.824 90.5494 490.457 89.9961L490.216 89.6194C489.799 88.9483 489.394 88.2773 488.951 87.5827L488.66 87.0764C488.357 86.5349 488.066 85.9816 487.775 85.44C487.674 85.2517 487.572 85.0751 487.484 84.8867C487.13 84.1921 486.775 83.4975 486.446 82.7912C486.446 82.6852 486.358 82.591 486.307 82.4851C486.021 81.8493 485.742 81.2136 485.472 80.5779L485.245 80.0128C484.928 79.2476 484.638 78.4941 484.359 77.7289C484.359 77.7289 484.359 77.6112 484.296 77.5523C484.018 76.7635 483.765 75.9747 483.524 75.1977C483.524 75.0447 483.436 74.8916 483.385 74.7386C483.119 73.8321 482.879 72.9138 482.664 72.0073C482.664 71.8072 482.575 71.607 482.525 71.4069C482.474 71.2068 482.386 70.7005 482.31 70.3474C482.234 69.9942 482.221 69.8882 482.183 69.6645V69.5939C482.12 69.229 482.057 68.864 482.006 68.499C481.956 68.1341 481.93 68.0634 481.905 67.8398C481.791 67.051 481.715 66.274 481.652 65.4852C481.652 65.3204 481.652 65.1556 481.652 64.9908C481.652 64.1902 481.563 63.4014 481.563 62.6362C481.563 62.0947 481.563 61.5649 481.563 61.0469C481.563 60.8468 481.563 60.6584 481.563 60.47C481.563 60.2817 481.563 59.8225 481.639 59.5164L481.715 58.9278C481.715 58.6335 481.779 58.3392 481.829 58.0448L481.943 57.4327C481.943 57.1736 482.032 56.9029 482.095 56.6439C482.158 56.3849 482.196 56.2318 482.247 56.0317C482.297 55.8316 482.36 55.5372 482.424 55.3018C482.487 55.0663 482.55 54.9015 482.601 54.7131C482.651 54.5248 482.74 54.2422 482.816 54.0303L483.044 53.4535C483.119 53.2415 483.195 53.0179 483.284 52.8177C483.372 52.6176 483.448 52.4528 483.537 52.2762C483.625 52.0996 483.714 51.8641 483.815 51.6758C483.916 51.4874 483.992 51.3344 484.094 51.1695C484.195 51.0047 484.296 50.781 484.397 50.6045L484.701 50.1218C484.815 49.9452 484.928 49.7686 485.055 49.592C485.181 49.4154 485.27 49.2977 485.384 49.1564C485.498 49.0151 485.624 48.815 485.763 48.6619L486.118 48.2499L486.522 47.7908L486.915 47.414C487.054 47.2728 487.193 47.1315 487.345 47.002L487.762 46.6488L488.205 46.2838L488.66 45.966L489.128 45.6363L489.609 45.3538C491.048 44.5102 492.638 43.9122 494.302 43.5879C491.14 46.896 489.242 51.9348 489.242 58.4216C489.242 59.2103 489.242 59.9991 489.318 60.7761V61.2706C489.318 62.0476 489.457 62.8363 489.558 63.6251C489.558 63.8488 489.622 64.0725 489.66 64.2844C489.698 64.4963 489.774 65.0143 489.837 65.391C489.9 65.7678 489.938 65.8855 489.976 66.1327L490.204 67.204C490.204 67.4042 490.292 67.6043 490.343 67.7927C490.558 68.711 490.786 69.6175 491.064 70.5357C491.064 70.6888 491.152 70.83 491.203 70.9831C491.443 71.7719 491.696 72.5606 491.975 73.3376C491.99 73.402 492.011 73.465 492.038 73.526C492.304 74.2795 492.607 75.0447 492.911 75.7982C492.987 75.9865 493.063 76.1749 493.151 76.375C493.417 77.0107 493.695 77.6465 493.986 78.2704C493.986 78.3764 494.075 78.4823 494.125 78.5765C494.454 79.2829 494.796 79.9775 495.15 80.6838C495.251 80.8604 495.34 81.0488 495.441 81.2254C495.732 81.7787 496.035 82.332 496.339 82.8736C496.428 83.0384 496.529 83.2032 496.617 83.3798C497.01 84.0626 497.414 84.7337 497.882 85.4047L498.11 85.7814C498.49 86.3701 498.869 86.9587 499.261 87.5238L499.603 88.0183C500.084 88.7246 500.577 89.4192 501.083 90.0903L501.323 90.3964C501.855 91.091 502.399 91.7855 502.955 92.4566L503.183 92.7274C503.879 93.5632 504.6 94.3873 505.333 95.1761L505.637 95.494C506.08 95.9767 506.548 96.4476 507.003 96.9185C507.036 96.9429 507.066 96.9705 507.092 97.0009C507.585 97.4836 508.079 97.9663 508.585 98.4254L508.914 98.7197C509.571 99.3201 510.242 99.897 510.912 100.462L511.102 100.615C511.81 101.192 512.519 101.792 513.253 102.263L513.657 102.569C514.378 103.076 515.1 103.57 515.821 104.029L516.213 104.276C516.984 104.747 517.756 105.206 518.528 105.619C519.299 106.031 519.793 106.266 520.387 106.549L520.919 106.796C521.399 107.008 521.855 107.208 522.323 107.396L522.816 107.585C523.259 107.761 523.689 107.902 524.081 108.044L524.398 108.161C524.929 108.326 525.46 108.479 525.992 108.621L526.902 108.833L527.332 108.927C527.775 109.009 528.218 109.091 528.597 109.15C529.268 109.245 529.862 109.303 530.558 109.339H530.95C531.515 109.368 532.081 109.368 532.646 109.339H532.937C533.382 109.316 533.825 109.269 534.265 109.197L534.67 109.139L535.1 109.044C534.061 110.151 532.829 111.086 531.456 111.811L531.305 111.882H531.216C530.863 112.061 530.5 112.223 530.128 112.364L529.749 112.517C529.356 112.659 528.964 112.788 528.56 112.906H528.344C527.874 113.031 527.397 113.134 526.915 113.212L526.535 113.271C526.105 113.271 525.663 113.377 525.27 113.412H524.929C524.372 113.412 523.816 113.412 523.246 113.412H522.88H521.943C521.589 113.412 521.235 113.341 520.881 113.283C520.651 113.255 520.423 113.215 520.198 113.165C519.983 113.165 519.768 113.165 519.552 113.059L519.16 112.965H519.046L518.224 112.776C517.706 112.635 517.187 112.494 516.656 112.329L516.327 112.211C515.897 112.07 515.475 111.917 515.062 111.752L514.581 111.552C514.113 111.375 513.645 111.175 513.177 110.963L512.873 110.822L512.645 110.716C512.025 110.422 511.38 110.128 510.786 109.786C510.191 109.445 509.23 108.915 508.471 108.432H508.37L508.079 108.256C507.345 107.785 506.624 107.302 505.915 106.796L505.65 106.596L505.498 106.49C504.777 105.96 504.056 105.418 503.36 104.842L503.246 104.747L503.17 104.677C502.487 104.123 501.829 103.499 501.172 102.946L500.843 102.652C500.337 102.181 499.831 101.71 499.337 101.216V101.11Z" fill="#EBEBEB"/>
<path d="M534.835 86.1938V87.8772L539.933 90.6201V88.9367L534.835 86.1938Z" fill="white"/>
<path d="M493.582 50.7109L492.798 51.7469L497.2 56.8442L497.997 55.8201L493.582 50.7109Z" fill="white"/>
<path d="M544.245 92.0563C544.245 109.409 530.988 116.402 514.77 107.679C498.552 98.9552 485.421 77.929 485.472 60.5171C485.522 43.1053 498.729 36.1593 514.96 44.8829C531.19 53.6065 544.296 74.7386 544.245 92.0563ZM501.588 75.3273C501.702 75.6947 501.953 76.012 502.297 76.222C502.392 76.278 502.501 76.3105 502.613 76.3162L515.099 77.2345C515.185 77.2558 515.277 77.2501 515.359 77.2182C515.441 77.1862 515.51 77.1299 515.554 77.0579L523.727 64.1785C523.802 63.9495 523.808 63.7058 523.746 63.4735C523.684 63.2412 523.554 63.0291 523.372 62.8599C523.277 62.7514 523.161 62.6597 523.031 62.5892C522.74 62.4361 522.462 62.4597 522.322 62.6716L514.289 75.3508L501.993 74.3972C501.601 74.3972 501.411 74.7739 501.588 75.2802V75.3273ZM525.624 63.9077L528.154 60.5525L526.788 59.0926L524.258 62.4479L525.611 64.0137L525.624 63.9077ZM526.687 106.396L528.04 106.29L525.51 100.191L524.144 100.297L526.674 106.396H526.687ZM493.53 78.9768L497.958 78.6236L497.148 76.7518L492.708 77.105L493.492 78.9768H493.53ZM536.149 101.898L536.934 100.862L532.519 95.7648L531.734 96.789L536.149 101.898ZM493.53 50.7222L492.733 51.7464L497.148 56.844L497.945 55.8198L493.53 50.7222ZM532.531 75.857L536.959 75.5039L536.175 73.632L531.747 73.9852L532.531 75.857ZM503.069 46.2957L501.715 46.4016L504.245 52.4999L505.599 52.394L503.069 46.2957ZM502.929 93.575L505.459 90.208L504.106 88.654L501.576 92.0093L502.929 93.575ZM494.884 66.4153V64.7318L489.824 61.9887V63.6722L494.884 66.4153ZM539.932 88.9366L534.872 86.1935V87.877L539.932 90.6201V88.9366ZM513.998 102.652L515.567 103.488V98.084L513.998 97.2364V102.652ZM515.732 49.8628L514.163 49.0269V54.4777L515.732 55.3254V49.8628Z" fill="#E0E0E0"/>
<path d="M514.165 49.0742L514.14 54.5251L515.708 55.3728L515.734 49.9101L514.165 49.0742Z" fill="white"/>
<path d="M526.789 59.0342L524.221 62.3893L525.574 63.9551L528.142 60.5999L526.789 59.0342Z" fill="white"/>
<path d="M536.226 73.6318L531.799 73.985L532.583 75.8569L537.011 75.5037L536.226 73.6318Z" fill="white"/>
<path d="M532.519 95.7529L531.734 96.789L536.149 101.898L536.934 100.862L532.519 95.7529Z" fill="white"/>
<path d="M525.475 100.109L524.108 100.215L526.651 106.313L528.005 106.207L525.475 100.109Z" fill="white"/>
<path d="M514.013 97.2363L514 102.699L515.569 103.535L515.581 98.084L514.013 97.2363Z" fill="white"/>
<path d="M504.145 88.6538L501.577 92.0093L502.931 93.5752L505.499 90.2079L504.145 88.6538Z" fill="white"/>
<path d="M497.149 76.752L492.709 77.1051L493.493 78.9768L497.921 78.6237L497.149 76.752Z" fill="white"/>
<path d="M489.787 61.9888V63.6723L494.885 66.4155L494.898 64.7319L489.787 61.9888Z" fill="white"/>
<path d="M503.068 46.2959L501.715 46.4018L504.258 52.4998L505.611 52.3938L503.068 46.2959Z" fill="white"/>
<path d="M514.873 75.4687C514.778 75.4127 514.669 75.3803 514.557 75.3746H514.291L501.995 74.3975C501.603 74.3975 501.413 74.7742 501.59 75.2804C501.704 75.6478 501.955 75.9651 502.298 76.1751C502.394 76.2311 502.502 76.2635 502.615 76.2693L515.101 77.1875H515.176C515.569 77.1875 515.746 76.8343 515.581 76.3046C515.45 75.9611 515.201 75.6674 514.873 75.4687Z" fill="white"/>
<path d="M523.031 62.6244C522.74 62.4714 522.462 62.4949 522.323 62.7068L514.29 75.3862H514.556C514.668 75.3919 514.777 75.4243 514.872 75.4804C515.209 75.6911 515.459 76.0026 515.58 76.3634C515.745 76.8931 515.58 77.2816 515.176 77.2463H515.1C515.186 77.2677 515.277 77.262 515.36 77.2301C515.442 77.1981 515.511 77.1418 515.555 77.0697L523.727 64.1902C523.802 63.9612 523.809 63.7175 523.747 63.4852C523.684 63.2529 523.555 63.0408 523.373 62.8717C523.275 62.7716 523.16 62.688 523.031 62.6244Z" fill="#F5F5F5"/>
<path d="M534.986 113.495L535.454 113.154L535.947 112.753L536.39 112.377L536.858 111.941C536.997 111.8 537.149 111.67 537.275 111.517C537.402 111.364 537.566 111.199 537.705 111.034C537.845 110.87 537.984 110.74 538.11 110.587C538.237 110.434 538.376 110.246 538.502 110.069C538.629 109.893 538.755 109.751 538.869 109.575C538.983 109.398 539.122 109.198 539.236 109.01L539.578 108.492C539.692 108.291 539.793 108.091 539.907 107.879L540.21 107.326L540.514 106.679L540.78 106.102C540.881 105.866 540.957 105.631 541.045 105.395C541.134 105.16 541.21 104.995 541.286 104.783L541.513 104.053C541.576 103.841 541.652 103.629 541.716 103.406C541.779 103.182 541.842 102.888 541.905 102.629C541.969 102.37 542.019 102.193 542.07 101.958C542.12 101.722 542.171 101.393 542.222 101.11C542.272 100.827 542.31 100.674 542.348 100.439C542.386 100.204 542.437 99.7915 542.475 99.4736C542.513 99.1557 542.538 99.0616 542.563 98.8614L542.639 97.6841C542.639 97.5075 542.639 97.331 542.639 97.1426C542.639 96.5775 542.639 95.9653 542.639 95.4238C542.639 94.5761 542.639 93.7167 542.551 92.8573C542.557 92.8025 542.557 92.7472 542.551 92.6925C542.487 91.7271 542.399 90.7617 542.26 89.7846V89.455C542.184 88.937 542.095 88.4072 542.007 87.8774L541.855 87.0769C541.779 86.6884 541.69 86.2998 541.614 85.8996C541.608 85.833 541.608 85.766 541.614 85.6994C541.125 83.5132 540.5 81.3552 539.742 79.2362C538.725 76.385 537.503 73.6004 536.086 70.901L535.998 70.7245C535.188 69.194 534.328 67.6871 533.404 66.2037L533.139 65.7917C532.721 65.1324 532.291 64.4849 531.874 63.8374L531.57 63.3782C530.305 61.6476 529.04 59.9641 527.775 58.3512C526.442 56.7815 525.059 55.2668 523.626 53.8069C523.069 53.2536 522.512 52.7121 521.943 52.1941L521.665 51.9469C520.931 51.2758 520.185 50.6165 519.426 49.9926L519.35 49.9219C518.553 49.2627 517.743 48.6387 516.921 48.0383L516.478 47.7204C515.719 47.1671 514.935 46.6373 514.151 46.1429H513.898C513.404 45.825 512.898 45.5189 512.392 45.2246L511.127 44.4711C510.444 44.1179 509.774 43.7883 509.103 43.4704C507.183 42.5544 505.17 41.817 503.094 41.2689L502.386 41.0806L501.526 40.8804L500.931 40.7745L500.121 40.645H500.045L499.451 40.5743L498.413 40.4684H498.009C497.255 40.4214 496.498 40.4214 495.744 40.4684H495.441C494.96 40.4684 494.492 40.5508 494.024 40.6214C493.362 40.7134 492.707 40.8432 492.063 41.0099H491.987H491.873C491.435 41.1355 491.013 41.2768 490.608 41.4338L490.419 41.5044C489.834 41.7325 489.263 41.992 488.711 42.2814H488.647L496.44 38.0785L496.617 37.9843L496.82 37.8901C497.199 37.7018 497.591 37.5252 497.996 37.3604L498.211 37.2544L498.401 37.1955C498.856 37.019 499.337 36.8659 499.83 36.7246C500.355 36.586 500.887 36.472 501.424 36.3832H501.601H501.867C502.335 36.3126 502.816 36.2537 503.297 36.2184H503.524H503.613C504.224 36.1889 504.836 36.1889 505.447 36.2184H505.624H506.231H506.649C507.079 36.2184 507.501 36.2655 507.914 36.3597C508.382 36.4185 508.863 36.5127 509.343 36.6069L509.799 36.7011L510.71 36.913H510.798C511.355 37.0543 511.924 37.2191 512.506 37.4075L512.86 37.5252L514.252 38.0196L514.441 38.0903L514.796 38.2316C515.289 38.4317 515.795 38.6554 516.301 38.8791L516.883 39.1381C517.541 39.4559 518.211 39.7856 518.894 40.1505C519.578 40.5155 520.564 41.0923 521.424 41.6103L521.842 41.8693C522.626 42.3638 523.411 42.8936 524.182 43.4469L524.625 43.7765C525.409 44.3416 526.181 44.9538 526.94 45.5542L527.142 45.7308C527.876 46.3312 528.597 46.9081 529.318 47.6027L529.533 47.8028L529.66 47.9206C530.216 48.4268 530.748 48.9448 531.279 49.4746L531.368 49.557C531.874 50.0514 532.367 50.5694 532.86 51.0874L533 51.2405L533.177 51.4289C533.974 52.3 534.758 53.1712 535.517 54.0777C535.531 54.1096 535.552 54.1378 535.58 54.1601L535.745 54.372C536.352 55.102 536.934 55.8436 537.516 56.5971C537.568 56.6764 537.627 56.7513 537.693 56.8208L537.769 56.9385C538.325 57.6684 538.857 58.4101 539.375 59.1636L539.527 59.3755L539.742 59.7051C540.172 60.3291 540.577 60.953 541.007 61.5888L541.197 61.8831C541.226 61.9184 541.247 61.9583 541.26 62.0008C541.716 62.719 542.158 63.4489 542.525 64.1906L542.639 64.3671C542.699 64.4923 542.767 64.6142 542.842 64.7321C543.17 65.3207 543.487 65.9094 543.803 66.5098L544.005 66.8865L544.119 67.1102C544.499 67.8637 544.878 68.6171 545.232 69.3824V69.453C545.232 69.5236 545.296 69.606 545.334 69.6884C545.654 70.3713 545.958 71.0659 546.244 71.7722L546.396 72.1019C546.429 72.1979 546.467 72.2922 546.51 72.3844C546.839 73.2085 547.155 74.0208 547.459 74.8449C547.453 74.8919 547.453 74.9392 547.459 74.9862C547.75 75.8338 548.028 76.6933 548.294 77.5409C548.294 77.6468 548.37 77.7528 548.395 77.8588C548.389 77.9175 548.389 77.9766 548.395 78.0353C548.686 79.0243 548.939 80.0014 549.167 80.9903L549.243 81.2493L549.318 81.6378C549.407 82.0263 549.483 82.4148 549.559 82.8151L549.711 83.6274C549.787 84.0277 549.85 84.4162 549.9 84.8047C549.9 84.9931 549.964 85.1814 550.002 85.3698C549.995 85.4167 549.995 85.4642 550.002 85.5111C550.111 86.3587 550.2 87.2064 550.267 88.054V88.5838C550.267 89.4432 550.356 90.3026 550.356 91.1502C550.356 100.474 546.788 107.032 541.083 110.116L533.468 114.425L533.961 114.131L534.454 113.836L534.986 113.495Z" fill="#EBEBEB"/>
<path d="M479.198 61.3415C479.135 80.0954 493.316 102.958 510.824 112.388C519.907 117.262 528.117 117.58 533.924 114.154L534.417 113.86L534.949 113.495L535.417 113.153L535.91 112.753L536.353 112.376L536.821 111.941C536.96 111.799 537.112 111.67 537.238 111.517C537.365 111.364 537.529 111.199 537.668 111.034C537.808 110.869 537.947 110.74 538.073 110.587C538.2 110.434 538.339 110.245 538.465 110.069C538.592 109.892 538.718 109.751 538.832 109.574C538.946 109.398 539.085 109.198 539.199 109.009L539.541 108.491C539.655 108.291 539.756 108.091 539.87 107.879L540.173 107.326L540.477 106.678L540.742 106.101C540.844 105.866 540.92 105.63 541.008 105.395C541.097 105.16 541.173 104.995 541.248 104.783L541.476 104.053C541.539 103.841 541.615 103.629 541.679 103.405C541.742 103.182 541.805 102.887 541.868 102.628C541.932 102.369 541.982 102.193 542.033 101.957C542.083 101.722 542.134 101.392 542.185 101.11C542.235 100.827 542.273 100.674 542.311 100.439C542.349 100.203 542.4 99.7912 542.438 99.4733C542.476 99.1555 542.501 99.0613 542.526 98.8611L542.602 97.6839C542.602 97.5073 542.602 97.3307 542.602 97.1423C542.602 96.5772 542.602 95.9651 542.602 95.4235C542.602 94.5759 542.602 93.7165 542.513 92.8571V92.6922C542.45 91.7269 542.362 90.7615 542.223 89.7844V89.4548C542.147 88.9367 542.058 88.407 541.97 87.8772L541.818 87.0767C541.742 86.6882 541.653 86.2997 541.577 85.8994C541.577 85.8287 541.577 85.7699 541.577 85.6992C541.088 83.513 540.463 81.355 539.705 79.236C538.688 76.3849 537.466 73.6003 536.049 70.9009L535.961 70.7244C535.151 69.1939 534.291 67.687 533.367 66.2036L533.102 65.7916C532.684 65.1323 532.254 64.4848 531.837 63.8373L531.533 63.3782C530.268 61.6476 529.003 59.9641 527.738 58.3512C526.405 56.7815 525.022 55.2668 523.589 53.807C523.032 53.2536 522.475 52.7121 521.906 52.1941L521.628 51.9469C520.894 51.2758 520.148 50.6166 519.389 49.9926L519.3 49.922C518.503 49.2627 517.693 48.6387 516.871 48.0383L516.416 47.7205C515.657 47.1671 514.872 46.6374 514.088 46.1429H513.898C513.405 45.8251 512.899 45.519 512.393 45.2246L511.128 44.4712C510.445 44.118 509.774 43.7884 509.104 43.4705C507.184 42.5545 505.171 41.8171 503.095 41.269L502.387 41.0806L501.526 40.8805L500.894 40.7628L500.084 40.6333L499.414 40.5509L498.376 40.4449H497.972C497.218 40.3979 496.461 40.3979 495.707 40.4449H495.34C494.86 40.4449 494.392 40.5273 493.923 40.598C493.262 40.6899 492.607 40.8197 491.963 40.9865L491.735 41.0571C491.296 41.1827 490.875 41.324 490.47 41.4809L490.255 41.5633C489.67 41.7915 489.1 42.0509 488.547 42.3403C482.791 45.4248 479.224 52.0293 479.198 61.3415ZM499.439 101.204L499.35 101.11C498.895 100.651 498.44 100.191 497.984 99.7088L497.693 99.3909C496.96 98.5904 496.238 97.7781 495.53 96.9422L495.302 96.6597C494.746 95.9886 494.202 95.3058 493.683 94.6112L493.443 94.3051C492.937 93.6223 492.443 92.9395 491.95 92.2331L491.608 91.7269C491.216 91.1618 490.837 90.5496 490.47 89.9963L490.23 89.6196C489.812 88.9485 489.407 88.2775 488.965 87.5829L488.674 87.0767C488.37 86.5351 488.079 85.9818 487.788 85.4403C487.687 85.2519 487.586 85.0753 487.497 84.8869C487.143 84.1923 486.789 83.4977 486.46 82.7914C486.46 82.6854 486.371 82.5913 486.321 82.4853C486.034 81.8496 485.756 81.2138 485.486 80.5781L485.258 80.013C484.942 79.2478 484.651 78.4944 484.372 77.7291C484.372 77.7291 484.372 77.6114 484.309 77.5525C484.031 76.7638 483.778 75.975 483.538 75.198C483.538 75.0449 483.449 74.8919 483.398 74.7389C483.133 73.8324 482.892 72.9141 482.677 72.0076C482.677 71.8074 482.589 71.6073 482.538 71.4072C482.488 71.207 482.399 70.7008 482.323 70.3476C482.247 69.9944 482.235 69.8885 482.197 69.6648C482.159 69.4411 482.057 68.8878 482.007 68.4875C481.956 68.0873 481.931 68.0519 481.906 67.8283C481.792 67.0395 481.716 66.2625 481.653 65.4737C481.653 65.3089 481.653 65.1441 481.653 64.9793C481.653 64.1787 481.564 63.3899 481.564 62.6247C481.564 62.0832 481.564 61.5534 481.564 61.0354C481.564 60.8353 481.564 60.6469 481.564 60.4585C481.564 60.2702 481.564 59.811 481.64 59.505L481.716 58.9163C481.716 58.622 481.779 58.3277 481.83 58.0334L481.944 57.4212C481.944 57.1622 482.032 56.8914 482.095 56.6324C482.159 56.3734 482.197 56.2204 482.247 56.0202C482.298 55.8201 482.361 55.5258 482.424 55.2903C482.488 55.0549 482.551 54.89 482.601 54.7017C482.652 54.5133 482.741 54.2308 482.816 54.0189L483.044 53.442C483.12 53.2301 483.196 53.0064 483.284 52.8063C483.373 52.6061 483.449 52.4413 483.538 52.2647C483.626 52.0881 483.715 51.8527 483.816 51.6643C483.917 51.476 483.993 51.3229 484.094 51.1581C484.195 50.9933 484.297 50.7696 484.398 50.593L484.701 50.1103C484.815 49.9337 484.929 49.7571 485.056 49.5805C485.182 49.404 485.271 49.2862 485.384 49.145C485.498 49.0037 485.625 48.8036 485.764 48.6505L486.118 48.2385L486.523 47.7793L486.915 47.4026C487.054 47.2613 487.193 47.1201 487.345 46.9906L487.763 46.6374L488.206 46.2724L488.661 45.9546L489.129 45.6249L489.61 45.3424C491.049 44.4988 492.638 43.9008 494.303 43.5765C499.047 42.6346 504.79 43.6706 510.963 46.9906C527.194 55.7141 540.312 76.8462 540.249 94.2109C540.249 100.674 538.377 105.713 535.189 109.021C534.15 110.127 532.919 111.063 531.546 111.788L531.394 111.858C531.008 112.058 530.611 112.238 530.205 112.4L529.825 112.553C529.433 112.694 529.041 112.824 528.636 112.941H528.421C527.942 113.071 527.457 113.177 526.966 113.259L526.587 113.318C526.157 113.318 525.714 113.424 525.322 113.459H524.98C524.415 113.489 523.85 113.489 523.285 113.459H522.918H521.982C521.628 113.459 521.274 113.389 520.919 113.33C520.69 113.302 520.461 113.263 520.236 113.212C520.021 113.212 519.806 113.212 519.591 113.106L519.085 112.988L518.263 112.8C517.175 112.517 516.107 112.175 515.062 111.776L514.582 111.576C514.012 111.352 513.443 111.105 512.874 110.846L512.646 110.74C512.026 110.446 511.381 110.151 510.786 109.81C510.192 109.468 509.23 108.939 508.471 108.456H508.37C507.447 107.879 506.536 107.279 505.65 106.619L505.499 106.513C504.74 105.96 503.98 105.336 503.247 104.771L503.171 104.7C502.488 104.147 501.83 103.523 501.172 102.97L500.843 102.676C500.426 102.169 499.92 101.698 499.426 101.204H499.439Z" fill="white"/>
<path d="M385.661 71.2656C385.661 71.119 385.618 70.9752 385.538 70.8489C385.458 70.7227 385.343 70.6186 385.206 70.5474L381.208 68.5107C381.077 68.4416 380.929 68.4053 380.778 68.4053C380.627 68.4053 380.479 68.4416 380.348 68.5107L299.588 112.188C299.193 112.415 298.868 112.734 298.646 113.114C298.424 113.494 298.313 113.921 298.323 114.354V123.772L288.835 132.896C287.988 133.72 287.899 134.956 288.557 135.144L292.352 137.087C292.418 137.151 292.499 137.2 292.59 137.228C292.68 137.257 292.776 137.265 292.871 137.252L298.373 136.628V143.586C298.374 143.728 298.413 143.868 298.489 143.991C298.564 144.115 298.672 144.219 298.804 144.292L302.776 146.352C302.903 146.413 303.044 146.445 303.187 146.445C303.33 146.445 303.471 146.413 303.598 146.352L384.345 102.663C384.754 102.447 385.093 102.133 385.328 101.755C385.564 101.376 385.688 100.946 385.686 100.509L385.661 71.2656ZM302.94 114.707L302.852 114.801L302.94 114.707ZM302.675 115.013C302.678 115.044 302.678 115.076 302.675 115.107C302.678 115.076 302.678 115.044 302.675 115.013ZM302.295 115.849C302.301 115.884 302.301 115.92 302.295 115.955C302.301 115.92 302.301 115.884 302.295 115.849ZM303.143 114.519L303.231 114.448L303.143 114.519Z" fill="#FD7702"/>
<path opacity="0.1" d="M302.322 145.681C302.322 145.822 302.36 145.96 302.433 146.084C302.506 146.207 302.611 146.312 302.739 146.387L298.716 144.327C298.585 144.254 298.477 144.15 298.401 144.026C298.326 143.903 298.286 143.763 298.286 143.621V136.663L302.296 136.204L302.322 145.681Z" fill="black"/>
<path opacity="0.2" d="M299.552 112.152L380.312 68.5107C380.443 68.4416 380.591 68.4053 380.742 68.4053C380.893 68.4053 381.041 68.4416 381.172 68.5107L385.169 70.5827C385.035 70.5104 384.882 70.4723 384.727 70.4723C384.571 70.4723 384.419 70.5104 384.284 70.5827L303.537 114.26C303.031 114.528 302.632 114.941 302.398 115.437L298.451 113.247C298.691 112.787 299.075 112.406 299.552 112.152Z" fill="white"/>
<path opacity="0.1" d="M298.248 123.842V114.424C298.247 114.072 298.324 113.723 298.476 113.4L302.461 115.543C302.323 115.844 302.254 116.169 302.258 116.496V125.985L298.248 123.842Z" fill="white"/>
<path opacity="0.05" d="M288.76 132.919L298.248 123.795L302.258 125.879L292.783 135.003C292.049 135.709 291.872 136.722 292.264 137.11L288.469 135.168C287.824 134.979 287.913 133.743 288.76 132.919Z" fill="white"/>
<path d="M317.413 122.171C318.387 122.029 318.994 122.489 319.007 123.607C319.007 125.185 317.742 126.786 315.465 128.022L310.822 130.518V121.323L315.212 118.968C317.489 117.791 318.59 118.144 318.59 119.557C318.547 120.531 318.13 121.459 317.413 122.171ZM315.275 126.197C315.621 126.061 315.922 125.84 316.144 125.558C316.367 125.277 316.504 124.944 316.54 124.596C316.54 123.96 316.097 123.889 315.275 124.337L313.226 125.432V127.374L315.275 126.268V126.197ZM313.213 121.935V123.701L314.896 122.806C315.241 122.683 315.543 122.472 315.766 122.197C315.99 121.923 316.126 121.595 316.161 121.252C316.161 120.676 315.743 120.593 314.896 121.029L313.226 121.935" fill="white"/>
<path d="M323.487 116.461C325.688 115.284 327.282 115.966 327.282 118.109C327.21 119.281 326.825 120.418 326.163 121.417C325.5 122.416 324.58 123.246 323.487 123.831C321.311 125.008 319.691 124.313 319.691 122.147C319.769 120.981 320.157 119.851 320.819 118.859C321.482 117.867 322.398 117.043 323.487 116.461ZM323.487 121.829C323.93 121.571 324.293 121.209 324.539 120.779C324.785 120.349 324.907 119.867 324.891 119.381C324.891 118.297 324.284 118.027 323.474 118.451C323.037 118.712 322.68 119.073 322.437 119.5C322.193 119.927 322.071 120.404 322.082 120.887C322.082 121.982 322.702 122.253 323.487 121.829Z" fill="white"/>
<path d="M331.671 112.07C333.872 110.892 335.466 111.575 335.466 113.706C335.394 114.878 335.01 116.015 334.347 117.014C333.684 118.013 332.765 118.842 331.671 119.428C329.495 120.605 327.876 119.91 327.876 117.756C327.954 116.59 328.341 115.46 329.004 114.468C329.666 113.476 330.583 112.652 331.671 112.07ZM331.671 117.438C332.114 117.176 332.476 116.811 332.722 116.38C332.968 115.949 333.09 115.466 333.075 114.977C333.075 113.906 332.468 113.624 331.658 114.059C331.224 114.32 330.868 114.679 330.624 115.104C330.381 115.528 330.258 116.003 330.267 116.484C330.267 117.579 330.887 117.862 331.671 117.438Z" fill="white"/>
<path d="M338.843 105.701L338.856 110.81L341.234 107.043L343.992 105.559L341.234 110.104L344.245 112.564L341.424 114.083L339.552 112.588L338.869 113.694V115.449L336.541 116.708L336.516 106.96L338.843 105.701Z" fill="white"/>
<path d="M353.594 100.297C355.138 99.4728 356.289 99.826 356.289 102.027V106.101L353.974 107.361V103.676C353.974 102.651 353.569 102.428 352.962 102.757C352.57 102.999 352.258 103.337 352.062 103.735C351.865 104.132 351.791 104.572 351.848 105.006V108.538L349.458 109.715V106.101C349.458 105.065 349.065 104.841 348.445 105.171C348.051 105.408 347.734 105.74 347.527 106.132C347.319 106.524 347.23 106.961 347.269 107.396V110.928L344.929 112.176V105.112L347.143 103.935V104.688C347.593 103.85 348.285 103.145 349.141 102.651C350.039 102.157 350.811 102.098 351.292 102.651C351.797 101.675 352.597 100.857 353.594 100.297Z" fill="white"/>
<path d="M360.602 96.5183C362.752 95.3411 364.005 95.7178 364.017 97.9899V101.934L361.841 103.111V102.181C361.488 103.08 360.79 103.827 359.881 104.276C358.287 105.136 357.351 104.641 357.351 103.417C357.351 102.193 358.236 100.803 360.298 99.6969L361.563 98.9788C361.563 98.2842 361.07 98.1312 360.146 98.6256C359.431 99.0234 358.818 99.5618 358.35 100.203L357.553 98.9317C358.392 97.9511 359.427 97.1315 360.602 96.5183ZM361.69 100.909V100.297L360.665 100.839C359.919 101.239 359.653 101.675 359.653 102.11C359.653 102.546 359.982 102.664 360.526 102.369C360.813 102.211 361.063 102.002 361.263 101.753C361.463 101.505 361.608 101.222 361.69 100.921" fill="white"/>
<path d="M369.938 91.5027V93.7513C369.756 93.8242 369.579 93.9067 369.407 93.9985C368.904 94.2535 368.488 94.6347 368.206 95.0988C367.924 95.5629 367.788 96.0913 367.813 96.6238V99.8966L365.485 101.145V94.0809L367.712 92.9036V93.763C368.194 92.819 368.969 92.0315 369.938 91.5027Z" fill="white"/>
<path d="M373.227 87.2294L373.24 92.3387L375.618 88.5715L378.388 87.0881L375.631 91.6324L378.629 94.0929L375.808 95.5997L373.935 94.1164L373.252 95.223V96.9771L370.925 98.2368L370.887 88.4891L373.227 87.2294Z" fill="white"/>
<path d="M529.586 148.094L529.497 178.645L525.513 180.799L525.614 145.964L529.586 148.094Z" fill="#F0F0F0"/>
<path d="M572.446 201.731L572.433 206.004L525.513 180.799L529.498 178.645L572.446 201.731Z" fill="#F5F5F5"/>
<path d="M520.691 183.354L577.226 213.74L577.365 168.626L520.831 138.241L520.691 183.354ZM525.511 180.799L525.612 145.964L529.585 148.095L572.596 171.169L572.495 201.778V206.052L525.511 180.799Z" fill="#E0E0E0"/>
<path d="M520.817 138.241L524.802 136.086L581.349 166.472L577.364 168.615L520.817 138.241Z" fill="#F5F5F5"/>
<path d="M581.349 166.472L581.21 211.585L577.226 213.74L577.365 168.614L581.349 166.472Z" fill="#F0F0F0"/>
<path d="M459.692 110.716L459.591 141.266L455.618 143.42L455.719 108.585L459.692 110.716Z" fill="#F0F0F0"/>
<path d="M502.551 164.353L502.538 168.626L455.618 143.421L459.59 141.266L502.551 164.353Z" fill="#F5F5F5"/>
<path d="M450.786 145.975L507.333 176.361L507.473 131.248L450.925 100.862L450.786 145.975ZM455.619 143.421L455.72 108.538L459.692 110.669L502.64 133.744L502.552 164.353V168.579L455.619 143.421Z" fill="#E0E0E0"/>
<path d="M450.926 100.862L454.911 98.708L511.445 129.093L507.473 131.236L450.926 100.862Z" fill="#F5F5F5"/>
<path d="M511.445 129.093L511.319 174.207L507.334 176.361L507.473 131.236L511.445 129.093Z" fill="#F0F0F0"/>
<path d="M543.236 159.691L531.521 168.273L531.496 176.667L570.459 197.599L570.484 189.217L563.059 175.49L556.392 180.305L558.745 187.121L555.329 181.07L543.236 159.691Z" fill="#E0E0E0"/>
<path d="M556.037 163.87C554.203 162.881 552.71 163.682 552.697 165.636C552.758 166.705 553.09 167.746 553.666 168.673C554.242 169.6 555.046 170.387 556.012 170.969C557.846 171.958 559.339 171.169 559.339 169.203C559.279 168.135 558.949 167.095 558.375 166.168C557.802 165.241 557 164.454 556.037 163.87Z" fill="#E0E0E0"/>
<path d="M473.342 122.312L461.615 130.894L461.59 139.288L500.566 160.22L500.591 151.838L493.165 138.111L486.498 142.926L488.851 149.743L485.423 143.691L473.342 122.312Z" fill="#E0E0E0"/>
<path d="M486.131 126.538C484.296 125.549 482.804 126.35 482.804 128.304C482.862 129.374 483.194 130.416 483.77 131.343C484.346 132.27 485.151 133.057 486.118 133.637C487.952 134.626 489.433 133.838 489.445 131.872C489.381 130.803 489.048 129.763 488.472 128.837C487.897 127.91 487.094 127.123 486.131 126.538Z" fill="#E0E0E0"/>
<path d="M483.107 454.775L593.621 395.393L573.114 384.303L483.031 432.701L483.107 454.775Z" fill="#0F2446"/>
<path d="M593.621 395.393L483.108 454.774L483.032 432.701L573.115 384.303L593.545 373.331V369.729L479.654 430.923L479.743 460.19L593.634 398.995L593.621 395.393Z" fill="#0F2446"/>
<path opacity="0.3" d="M593.621 395.393L483.108 454.774L483.032 432.701L573.115 384.303L593.545 373.331V369.729L479.654 430.923L479.743 460.19L593.634 398.995L593.621 395.393Z" fill="black"/>
<path opacity="0.1" d="M593.621 395.393L483.108 454.774L483.032 432.701L573.115 384.303L593.545 373.331V369.729L479.654 430.923L479.743 460.19L593.634 398.995L593.621 395.393Z" fill="white"/>
<path d="M479.654 430.923L315.616 342.204L315.705 371.483L479.742 460.19L479.654 430.923Z" fill="#0F2446"/>
<path opacity="0.2" d="M479.654 430.923L315.616 342.204L315.705 371.483L479.742 460.19L479.654 430.923Z" fill="black"/>
<path opacity="0.1" d="M479.654 430.923L315.616 342.204L315.705 371.483L479.742 460.19L479.654 430.923Z" fill="white"/>
<path d="M479.654 430.924L593.545 369.729L429.507 281.009L315.616 342.204L479.654 430.924Z" fill="#0F2446"/>
<path opacity="0.1" d="M479.654 430.924L593.545 369.729L429.507 281.009L315.616 342.204L479.654 430.924Z" fill="white"/>
<path d="M590.484 374.968V397.077L483.107 454.775L483.031 432.701L590.484 374.968Z" fill="#F5F5F5"/>
<path d="M503.108 461.297L505.499 453.303L513.697 455.658C504.601 447.417 511.078 437.198 500.452 431.689L489.863 437.375C499.769 444.062 494.202 451.761 503.108 461.297Z" fill="#FD7702"/>
<g opacity="0.2">
<path opacity="0.2" d="M503.108 461.297L505.499 453.303L513.697 455.658C504.601 447.417 511.078 437.198 500.452 431.688L489.863 437.375C499.769 444.062 494.202 451.761 503.108 461.297Z" fill="white"/>
</g>
<path d="M425.864 301.611L354.504 339.932C354.065 340.167 353.701 340.506 353.447 340.914C353.194 341.322 353.061 341.785 353.061 342.257C353.061 342.728 353.194 343.191 353.447 343.599C353.701 344.007 354.065 344.346 354.504 344.582L393.315 365.573C394.414 366.166 395.662 366.479 396.933 366.479C398.204 366.479 399.452 366.166 400.551 365.573L471.912 327.229C472.35 326.993 472.715 326.654 472.968 326.246C473.221 325.838 473.355 325.375 473.355 324.904C473.355 324.432 473.221 323.969 472.968 323.561C472.715 323.153 472.35 322.814 471.912 322.579L433.1 301.611C432.001 301.018 430.753 300.706 429.482 300.706C428.212 300.706 426.964 301.018 425.864 301.611Z" fill="#0F2446"/>
<path d="M485.207 329.231L405.902 371.848L412.139 375.215L491.444 332.609L485.207 329.231Z" fill="#0F2446"/>
<path d="M415.1 377.51L421.349 380.877L463.399 358.286L457.162 354.907L415.1 377.51Z" fill="#0F2446"/>
<path d="M550.281 341.509H550.268L553.165 339.955L582.578 324.179H582.565L585.462 322.625L478.086 264.927L340.007 339.025L447.383 396.723L550.281 341.509Z" fill="#FD7702"/>
<path d="M585.462 322.625L582.565 324.18L553.152 339.955L550.256 341.509L447.357 396.723C447.785 396.977 448.14 397.324 448.391 397.735C448.643 398.145 448.783 398.606 448.8 399.078L448.698 433.713C448.714 433.875 448.685 434.038 448.614 434.186C448.543 434.334 448.433 434.463 448.294 434.561L586.36 360.475C586.497 360.376 586.605 360.246 586.673 360.098C586.742 359.95 586.769 359.788 586.752 359.627L586.853 325.004C586.845 324.532 586.714 324.069 586.471 323.655C586.229 323.241 585.883 322.888 585.462 322.625Z" fill="#FD7702"/>
<path d="M448.824 399.043C448.807 398.571 448.667 398.11 448.416 397.699C448.164 397.289 447.81 396.942 447.382 396.688L340.006 339.001V342.098L445.94 399.019L445.838 430.547L339.904 373.625V376.721L447.281 434.408C447.431 434.51 447.608 434.572 447.793 434.587C447.978 434.601 448.164 434.568 448.331 434.491C448.47 434.393 448.58 434.264 448.651 434.116C448.722 433.967 448.751 433.805 448.735 433.643L448.824 399.043Z" fill="#FD7702"/>
<path opacity="0.2" d="M550.281 341.509H550.268L553.165 339.955L582.578 324.179H582.565L585.462 322.625L478.086 264.927L340.007 339.025L447.383 396.723L550.281 341.509Z" fill="black"/>
<path opacity="0.4" d="M585.462 322.625L582.565 324.18L553.152 339.955L550.256 341.509L447.357 396.723C447.785 396.977 448.14 397.324 448.391 397.735C448.643 398.145 448.783 398.606 448.8 399.078L448.698 433.713C448.714 433.875 448.685 434.038 448.614 434.186C448.543 434.334 448.433 434.463 448.294 434.561L586.36 360.475C586.497 360.376 586.605 360.246 586.673 360.098C586.742 359.95 586.769 359.788 586.752 359.627L586.853 325.004C586.845 324.532 586.714 324.069 586.471 323.655C586.229 323.241 585.883 322.888 585.462 322.625Z" fill="black"/>
<path opacity="0.3" d="M448.824 399.043C448.807 398.571 448.667 398.11 448.416 397.699C448.164 397.289 447.81 396.942 447.382 396.688L340.006 339.001V342.098L445.94 399.019L445.838 430.547L339.904 373.625V376.721L447.281 434.408C447.431 434.51 447.608 434.572 447.793 434.587C447.978 434.601 448.164 434.568 448.331 434.491C448.47 434.393 448.58 434.264 448.651 434.116C448.722 433.967 448.751 433.805 448.735 433.643L448.824 399.043Z" fill="black"/>
<path d="M346.608 345.677V371.353L445.85 424.978L445.926 399.043L346.608 345.677Z" fill="#F5F5F5"/>
<path d="M339.893 373.649L346.61 369.964V371.353L445.852 424.978L445.827 430.57L339.893 373.649Z" fill="#FD7702"/>
<path opacity="0.4" d="M339.893 373.649L346.61 369.964V371.353L445.852 424.978L445.827 430.57L339.893 373.649Z" fill="black"/>
<path opacity="0.1" d="M585.46 322.626L478.084 264.939L340.005 339.025V342.122L445.94 399.043L445.838 430.57V424.966L346.596 371.353V369.964L339.879 373.649V376.745L447.255 434.432C447.405 434.534 447.583 434.595 447.768 434.61C447.953 434.624 448.139 434.591 448.305 434.514L586.359 360.475C586.496 360.376 586.604 360.247 586.672 360.098C586.741 359.95 586.768 359.788 586.751 359.628L586.852 325.004C586.844 324.532 586.713 324.07 586.47 323.656C586.228 323.242 585.881 322.888 585.46 322.626Z" fill="white"/>
<path d="M427.307 423.683L424.916 415.689L416.731 418.044C425.814 409.803 419.35 399.584 429.976 394.063L440.552 399.749C430.66 406.459 436.213 414.147 427.307 423.683Z" fill="#FD7702"/>
<g opacity="0.2">
<path opacity="0.2" d="M427.307 423.683L424.916 415.689L416.731 418.044C425.814 409.803 419.35 399.584 429.976 394.063L440.552 399.749C430.66 406.46 436.213 414.147 427.307 423.683Z" fill="white"/>
</g>
<path d="M490.167 392.367L590.256 338.59L571.686 328.547L490.104 372.377L490.167 392.367Z" fill="#0F2446"/>
<path d="M590.256 338.59L490.167 392.368L490.103 372.378L571.686 328.548L590.206 318.6L590.193 315.339L487.042 370.765L487.118 397.277L590.269 341.851L590.256 338.59Z" fill="#0F2446"/>
<path opacity="0.3" d="M590.256 338.59L490.167 392.368L490.103 372.378L571.686 328.548L590.206 318.6L590.193 315.339L487.042 370.765L487.118 397.277L590.269 341.851L590.256 338.59Z" fill="black"/>
<path opacity="0.1" d="M590.256 338.59L490.167 392.368L490.103 372.378L571.686 328.548L590.206 318.6L590.193 315.339L487.042 370.765L487.118 397.277L590.269 341.851L590.256 338.59Z" fill="white"/>
<path d="M487.041 370.764L338.463 290.415L338.551 316.928L487.117 397.277L487.041 370.764Z" fill="#0F2446"/>
<path opacity="0.2" d="M487.041 370.764L338.463 290.415L338.551 316.928L487.117 397.277L487.041 370.764Z" fill="black"/>
<path opacity="0.1" d="M487.041 370.764L338.463 290.415L338.551 316.928L487.117 397.277L487.041 370.764Z" fill="white"/>
<path d="M487.041 370.765L590.193 315.339L441.627 234.99L338.463 290.416L487.041 370.765Z" fill="#0F2446"/>
<path opacity="0.1" d="M487.041 370.765L590.193 315.339L441.627 234.99L338.463 290.416L487.041 370.765Z" fill="white"/>
<path d="M587.423 320.083V340.108L490.167 392.367L490.104 372.377L587.423 320.083Z" fill="#F5F5F5"/>
<path d="M438.311 253.626L373.68 288.355C373.284 288.569 372.955 288.877 372.726 289.247C372.497 289.617 372.377 290.036 372.377 290.462C372.377 290.889 372.497 291.308 372.726 291.678C372.955 292.048 373.284 292.355 373.68 292.57L408.773 311.571C409.768 312.108 410.898 312.392 412.049 312.392C413.2 312.392 414.33 312.108 415.325 311.571L480.007 276.889C480.403 276.674 480.732 276.367 480.961 275.997C481.19 275.627 481.31 275.208 481.31 274.781C481.31 274.355 481.19 273.935 480.961 273.565C480.732 273.196 480.403 272.888 480.007 272.674L444.864 253.673C443.872 253.13 442.745 252.84 441.594 252.832C440.444 252.824 439.312 253.098 438.311 253.626Z" fill="#0F2446"/>
<path d="M492.063 278.667L420.234 317.258L425.889 320.307L497.718 281.716L492.063 278.667Z" fill="#0F2446"/>
<path d="M428.572 322.378L434.227 325.439L472.317 304.967L466.662 301.917L428.572 322.378Z" fill="#0F2446"/>
<path d="M527.232 360.193L614.646 313.231L598.429 304.46L527.182 342.734L527.232 360.193Z" fill="#CFD3DA"/>
<path d="M614.646 313.231L527.232 360.193L527.182 342.734L598.429 304.461L614.583 295.772V292.935L524.5 341.333L524.576 364.478L614.646 316.08V313.231Z" fill="#CFD3DA"/>
<path opacity="0.3" d="M614.646 313.231L527.232 360.193L527.182 342.734L598.429 304.461L614.583 295.772V292.935L524.5 341.333L524.576 364.478L614.646 316.08V313.231Z" fill="black"/>
<path opacity="0.1" d="M614.646 313.231L527.232 360.193L527.182 342.734L598.429 304.461L614.583 295.772V292.935L524.5 341.333L524.576 364.478L614.646 316.08V313.231Z" fill="white"/>
<path d="M524.5 341.333L394.771 271.167L394.846 294.312L524.576 364.478L524.5 341.333Z" fill="#CFD3DA"/>
<path opacity="0.2" d="M524.5 341.333L394.771 271.167L394.846 294.312L524.576 364.478L524.5 341.333Z" fill="black"/>
<path opacity="0.1" d="M524.5 341.333L394.771 271.167L394.846 294.312L524.576 364.478L524.5 341.333Z" fill="white"/>
<path d="M524.5 341.332L614.583 292.935L484.854 222.769L394.771 271.167L524.5 341.332Z" fill="#CFD3DA"/>
<path opacity="0.1" d="M524.5 341.332L614.583 292.935L484.854 222.769L394.771 271.167L524.5 341.332Z" fill="white"/>
<path d="M612.167 297.079V314.561L527.232 360.193L527.182 342.734L612.167 297.079Z" fill="#F5F5F5"/>
<path d="M550.762 361.982L552.647 355.66L559.136 357.485C551.938 350.998 557.062 342.887 548.662 338.519L540.338 343.016C548.118 348.361 543.716 354.448 550.762 361.982Z" fill="#0F2446"/>
<g opacity="0.2">
<path opacity="0.2" d="M550.762 361.982L552.647 355.66L559.136 357.485C551.938 350.998 557.062 342.887 548.662 338.519L540.338 343.016C548.118 348.361 543.716 354.448 550.762 361.982Z" fill="white"/>
</g>
<path d="M481.968 239.039L425.522 269.366C425.176 269.553 424.888 269.822 424.688 270.145C424.488 270.469 424.383 270.835 424.383 271.208C424.383 271.581 424.488 271.948 424.688 272.271C424.888 272.594 425.176 272.863 425.522 273.051L456.212 289.638C457.08 290.11 458.066 290.359 459.071 290.359C460.076 290.359 461.062 290.11 461.93 289.638L518.376 259.312C518.723 259.126 519.011 258.858 519.211 258.536C519.412 258.214 519.517 257.848 519.517 257.475C519.517 257.103 519.412 256.737 519.211 256.415C519.011 256.092 518.723 255.825 518.376 255.639L487.686 239.039C486.817 238.571 485.831 238.324 484.827 238.324C483.823 238.324 482.837 238.571 481.968 239.039Z" fill="#CFD3DA"/>
<path d="M528.902 260.901L466.182 294.607L471.115 297.267L533.836 263.574L528.902 260.901Z" fill="#CFD3DA"/>
<path d="M473.455 299.08L478.389 301.753L511.646 283.882L506.713 281.209L473.455 299.08Z" fill="#CFD3DA"/>
<g opacity="0.1">
<path opacity="0.1" d="M481.968 239.039L425.522 269.366C425.176 269.553 424.888 269.822 424.688 270.145C424.488 270.469 424.383 270.835 424.383 271.208C424.383 271.581 424.488 271.948 424.688 272.271C424.888 272.595 425.176 272.863 425.522 273.051L456.212 289.639C457.08 290.11 458.066 290.359 459.071 290.359C460.076 290.359 461.062 290.11 461.93 289.639L518.376 259.312C518.723 259.126 519.011 258.859 519.211 258.536C519.412 258.214 519.517 257.848 519.517 257.475C519.517 257.103 519.412 256.737 519.211 256.415C519.011 256.092 518.723 255.825 518.376 255.639L487.686 239.039C486.817 238.571 485.831 238.324 484.827 238.324C483.823 238.324 482.837 238.571 481.968 239.039Z" fill="black"/>
<path opacity="0.1" d="M528.9 260.902L466.18 294.607L471.113 297.267L533.834 263.574L528.9 260.902Z" fill="black"/>
<path opacity="0.1" d="M473.453 299.081L478.387 301.753L511.645 283.882L506.711 281.209L473.453 299.081Z" fill="black"/>
</g>
<path d="M265.824 481.734C267.109 482.883 268.636 483.771 270.308 484.345C271.98 484.918 273.761 485.163 275.54 485.066C279.097 484.851 282.583 484.033 285.824 482.652C289.113 481.393 293.237 477.873 296.792 477.943C300.27 477.914 303.742 477.69 307.191 477.272C307.316 472.863 306.818 468.458 305.711 464.169L289.113 463.769C284.635 469.479 275.919 474.223 269.328 476.013C268.313 476.279 267.395 476.798 266.673 477.514C265.951 478.229 265.452 479.115 265.229 480.074C265.237 480.105 265.237 480.137 265.229 480.168C265.355 480.712 265.555 481.238 265.824 481.734Z" fill="#455A64"/>
<path d="M296.831 477.991C293.276 477.92 289.152 481.44 285.863 482.7C282.621 484.081 279.136 484.898 275.578 485.113C273.79 485.21 271.999 484.959 270.32 484.378C268.641 483.796 267.11 482.896 265.825 481.735C265.56 481.238 265.364 480.712 265.243 480.169C265.25 480.138 265.25 480.106 265.243 480.075C265.091 480.75 265.091 481.448 265.243 482.123C265.366 482.669 265.561 483.199 265.825 483.701C267.111 484.848 268.638 485.735 270.309 486.306C271.981 486.877 273.762 487.121 275.54 487.021C279.094 486.824 282.579 486.026 285.825 484.666C289.114 483.418 293.238 479.886 296.793 479.957C300.214 479.984 303.633 479.799 307.027 479.404C307.103 478.721 307.153 478.026 307.191 477.332C303.755 477.744 300.295 477.964 296.831 477.991Z" fill="#263238"/>
<path d="M347.951 490.387C347.965 492.076 347.787 493.761 347.42 495.414C346.85 498.355 345.082 500.978 342.486 502.737C340.098 504.007 337.394 504.677 334.643 504.68C332.223 504.922 329.775 504.689 327.458 503.997C325.708 503.41 324.226 502.284 323.258 500.806C323.258 500.806 323.258 500.865 323.258 500.889C323.59 501.98 324.205 502.98 325.047 503.801C325.889 504.621 326.934 505.238 328.09 505.598C330.403 506.29 332.847 506.523 335.263 506.281C338.014 506.278 340.718 505.609 343.106 504.338C345.697 502.583 347.467 499.971 348.053 497.039C348.42 495.385 348.598 493.7 348.584 492.012C348.591 490.858 348.852 489.717 349.35 488.661C349.848 487.604 350.573 486.653 351.481 485.866C351.924 485.494 352.346 485.101 352.746 484.689C353.023 484.39 353.233 484.042 353.364 483.666C353.494 483.29 353.542 482.893 353.505 482.499C353.505 482.193 353.505 481.887 353.404 481.581C352.758 482.287 351.215 483.936 350.874 484.324C349.974 485.1 349.252 486.037 348.749 487.079C348.247 488.121 347.976 489.246 347.951 490.387Z" fill="#263238"/>
<path d="M334.339 472.881C334.924 476.33 334.442 479.862 332.948 483.065C331.456 486.25 329.507 489.232 327.154 491.93C326.011 493.215 324.995 494.594 324.118 496.05C323.286 497.49 322.983 499.144 323.258 500.759C324.226 502.237 325.708 503.363 327.458 503.949C329.775 504.642 332.223 504.875 334.643 504.632C337.394 504.63 340.098 503.96 342.486 502.69C345.082 500.931 346.85 498.308 347.42 495.367C347.787 493.714 347.965 492.029 347.951 490.34C347.961 489.187 348.222 488.047 348.72 486.99C349.219 485.934 349.942 484.983 350.848 484.195C351.24 483.853 352.784 482.158 353.378 481.452C353.014 478.955 352.111 476.552 350.722 474.388L334.339 472.881Z" fill="#455A64"/>
<path d="M288.456 328.418C288.456 328.418 284.269 379.712 284.661 393.98C285.053 408.249 286.571 464.617 286.571 464.617C295.16 469.326 307.571 465.794 307.571 465.794C308.583 420.775 313.137 411.098 310.037 394.616C312.226 382.384 315.249 353.882 315.249 353.882C319.525 388.165 322.637 405.824 322.637 405.824L332.859 474.459C341.246 478.532 351.834 474.459 351.834 474.459C351.834 435.338 352.745 418.786 348.368 392.968C348.14 353.223 345.977 329.077 345.977 329.077L288.456 328.418Z" fill="#455A64"/>
<path opacity="0.5" d="M288.456 328.418C288.456 328.418 284.269 379.712 284.661 393.98C285.053 408.249 286.571 464.617 286.571 464.617C295.16 469.326 307.571 465.794 307.571 465.794C308.583 420.775 313.137 411.098 310.037 394.616C312.226 382.384 315.249 353.882 315.249 353.882C319.525 388.165 322.637 405.824 322.637 405.824L332.859 474.459C341.246 478.532 351.834 474.459 351.834 474.459C351.834 435.338 352.745 418.786 348.368 392.968C348.14 353.223 345.977 329.077 345.977 329.077L288.456 328.418Z" fill="white"/>
<path opacity="0.2" d="M298.615 341.639C301.537 348.326 310.734 348.326 310.734 348.326L312.379 355.919L311.759 382.997C313.53 369.858 315.213 353.965 315.213 353.965L314.074 345.83C308.558 346.115 303.104 344.636 298.615 341.639Z" fill="black"/>
<path d="M257.159 255.698L248.67 257.958L239.132 227.878C238.375 225.588 238.27 223.154 238.828 220.815L239.79 216.753C240.04 215.695 240.121 214.608 240.03 213.527C239.904 211.891 239.714 210.219 239.651 208.618C239.686 208.111 239.544 207.607 239.246 207.182C239.029 206.971 238.748 206.826 238.441 206.767C238.133 206.708 237.814 206.738 237.525 206.852C236.964 207.088 236.514 207.507 236.26 208.029C236.017 208.565 235.847 209.126 235.754 209.701C235.577 210.596 235.387 211.479 235.21 212.362C235.156 212.735 235.037 213.097 234.856 213.433C234.769 213.602 234.639 213.748 234.479 213.861C234.318 213.973 234.131 214.049 233.933 214.081C233.022 214.151 227.468 200.86 227.86 196.092C227.974 194.82 224.065 193.808 223.939 199.165C223.397 199.291 222.893 199.532 222.468 199.869C222.042 200.205 221.706 200.629 221.485 201.107C220.802 202.284 220.118 203.462 219.423 204.58C218.693 205.681 218.128 206.869 217.74 208.112C217.358 210.036 217.497 212.019 218.145 213.881C219.186 217.277 221.022 220.417 223.521 223.075C225.378 225.113 226.575 227.599 226.975 230.245L232.857 265.657C233.087 267.26 233.675 268.801 234.582 270.18C235.489 271.56 236.696 272.748 238.125 273.668C239.555 274.588 241.175 275.22 242.882 275.523C244.589 275.826 246.345 275.794 248.038 275.429L259.562 272.945L257.159 255.698Z" fill="#FFA8A7"/>
<path d="M296.248 247.998C287.62 246.032 280.308 247.998 272.92 250.164C265.533 252.33 255.476 255.368 255.476 255.368C254.296 258.501 253.983 261.859 254.565 265.135C255.146 268.41 256.603 271.496 258.803 274.11L288.278 269.942L296.248 247.998Z" fill="#455A64"/>
<path d="M347.419 332.303C347.419 332.303 314.085 343.651 287.013 329.512C287.013 329.512 288.658 311.453 289.138 300.928C289.619 290.403 285.736 270.095 285.141 264.645C284.546 259.194 285.343 249.776 292.238 248.339C305.027 245.82 329.076 248.339 329.076 248.339L343.434 263.102C349.481 291.946 348.443 322.237 347.419 332.303Z" fill="#455A64"/>
<path opacity="0.3" d="M347.419 332.303C347.419 332.303 314.085 343.651 287.013 329.512C287.013 329.512 288.658 311.453 289.138 300.928C289.619 290.403 285.736 270.095 285.141 264.645C284.546 259.194 285.343 249.776 292.238 248.339C305.027 245.82 329.076 248.339 329.076 248.339L343.434 263.102C349.481 291.946 348.443 322.237 347.419 332.303Z" fill="white"/>
<path opacity="0.15" d="M262.914 325.592C262.914 325.592 262.914 325.592 262.914 325.522C262.914 325.451 262.914 325.522 262.914 325.463C262.908 325.44 262.908 325.416 262.914 325.392C262.919 325.369 262.919 325.345 262.914 325.322V325.263L249.656 301.717L247.771 303.672L261.029 327.217C261.113 327.347 261.168 327.491 261.193 327.641C261.208 327.685 261.209 327.733 261.198 327.778C261.187 327.824 261.164 327.865 261.13 327.9L263.015 325.946C263.022 325.915 263.022 325.883 263.015 325.851C263.022 325.824 263.022 325.796 263.015 325.769C263.04 325.757 263.059 325.735 263.067 325.71C263.076 325.685 263.073 325.657 263.059 325.634C263.053 325.622 263.044 325.612 263.033 325.603C263.022 325.595 263.009 325.589 262.996 325.585C262.969 325.577 262.939 325.58 262.914 325.592Z" fill="white"/>
<path opacity="0.2" d="M249.454 301.47C249.45 301.447 249.45 301.423 249.454 301.399V301.329V301.258V301.176V301.105L249.39 301.023L249.327 300.952V300.881V300.811V300.752L249.137 300.587H249.074H248.998H248.91L248.834 300.528H248.745L233.274 292.216H233.185H233.097H233.008H232.92H232.844H232.755H232.679H232.591H232.515H232.224C232.135 292.214 232.049 292.243 231.983 292.299L227.872 292.193C227.948 292.099 228.112 292.075 228.327 292.122C228.631 292.194 228.922 292.309 229.188 292.464L244.659 300.775C244.962 300.942 245.254 301.127 245.532 301.329C245.823 301.541 246.114 301.776 246.38 302.012C246.641 302.244 246.886 302.492 247.113 302.753C247.306 302.969 247.476 303.202 247.619 303.448L249.504 301.494L249.454 301.47Z" fill="white"/>
<path d="M250.34 325.475C245.116 322.426 241.207 316.457 242.004 310.759C242.004 310.759 251.77 315.539 256.16 312.984L253.908 308.981C260.089 308.96 266.088 310.932 270.885 314.561C280.205 313.077 289.316 310.621 298.045 307.239C300.584 306.183 303.206 305.309 305.888 304.625C308.591 303.934 311.453 304.008 314.111 304.837C315.429 305.261 316.609 305.991 317.541 306.957C318.473 307.923 319.125 309.093 319.437 310.358C319.6 311.698 319.407 313.054 318.875 314.309C318.344 315.563 317.49 316.676 316.388 317.552C314.16 319.283 311.578 320.576 308.798 321.354C297.59 325.157 255.578 328.536 250.34 325.475Z" fill="#FFA8A7"/>
<path d="M281.713 224.77C278.962 222.94 277.047 220.218 276.344 217.139C275.642 214.06 276.203 210.848 277.918 208.136C276.38 207.5 275.122 206.395 274.351 205.004C274.029 204.332 273.931 203.586 274.07 202.862C274.21 202.138 274.579 201.47 275.131 200.943C275.683 200.417 276.392 200.057 277.166 199.91C277.941 199.763 278.745 199.835 279.474 200.118C279.066 199.031 279.061 197.848 279.46 196.757C279.859 195.667 280.639 194.732 281.675 194.102C282.729 193.563 283.952 193.38 285.134 193.584C286.317 193.788 287.388 194.366 288.165 195.221C288.142 194.513 288.364 193.817 288.8 193.236C289.235 192.655 289.859 192.22 290.581 191.995C292.073 191.628 293.653 191.718 295.085 192.254C296.527 192.713 297.893 193.431 299.36 193.82C301.87 194.395 304.442 194.699 307.027 194.726C309.62 194.747 312.166 195.379 314.427 196.563C316.603 197.87 318.513 200.919 317.349 203.556C317.717 203.115 318.181 202.751 318.711 202.489C319.241 202.228 319.825 202.073 320.423 202.037C321.015 202.025 321.604 202.129 322.149 202.344C322.694 202.56 323.184 202.88 323.586 203.285C321.967 204.215 320.411 205.216 318.791 206.146C320.411 205.463 322.84 206.534 323.712 207.971C324.473 209.479 324.775 211.153 324.585 212.809C324.37 219.111 323.168 225.349 321.018 231.328C319.917 234.412 318.323 237.685 315.173 239.11L281.713 224.77Z" fill="#37474F"/>
<path d="M298.815 239.639L299.524 247.021C299.554 247.591 299.4 248.157 299.081 248.645C298.639 249.416 298.468 250.297 298.592 251.163C298.717 252.029 299.132 252.837 299.777 253.472C300.802 254.181 302.042 254.569 303.319 254.579C305.737 254.703 308.156 254.347 310.416 253.535C312.675 252.724 314.724 251.474 316.425 249.87C316.768 249.532 317.037 249.135 317.215 248.7C317.393 248.266 317.477 247.803 317.462 247.339L316.943 228.62L298.815 239.639Z" fill="#FFA8A7"/>
<path opacity="0.3" d="M315.35 229.598L298.816 239.64L299.449 246.185C303.244 245.338 307.153 244.313 310.202 242.006C312.12 240.513 313.598 238.591 314.499 236.421C315.4 234.25 315.693 231.902 315.35 229.598Z" fill="black"/>
<path d="M280.791 209.561C279.577 218.122 280.184 226.822 282.574 235.166C283.053 236.996 283.802 238.756 284.801 240.393C285.803 242.053 287.376 243.351 289.266 244.078C291.594 244.891 294.187 244.502 296.642 244.078C301.132 243.337 305.737 242.571 309.634 240.37C313.53 238.168 316.629 234.201 316.25 229.974C317.357 230.615 318.62 230.987 319.922 231.054C321.224 231.122 322.523 230.885 323.701 230.363C324.854 229.774 325.833 228.928 326.548 227.901C327.263 226.874 327.693 225.697 327.799 224.477C327.964 222.122 326.534 219.473 324.004 219.014C323.231 218.909 322.442 218.96 321.691 219.163C320.94 219.366 320.245 219.717 319.653 220.191C318.484 221.148 317.466 222.254 316.629 223.476C316.243 224.072 315.726 224.586 315.111 224.983C314.806 225.179 314.445 225.285 314.074 225.285C313.703 225.285 313.341 225.179 313.036 224.983C312.775 224.695 312.586 224.356 312.483 223.992C312.38 223.627 312.366 223.246 312.442 222.876L312.708 217.519C312.724 217.108 312.614 216.701 312.39 216.346C312.165 215.991 311.837 215.704 311.443 215.518C310.273 214.909 309.376 213.932 308.912 212.763C308.497 211.727 308.25 210.64 308.179 209.537C308.17 209.326 308.108 209.121 307.996 208.937C307.885 208.754 307.728 208.598 307.538 208.483C307.348 208.367 307.132 208.296 306.907 208.275C306.681 208.253 306.454 208.282 306.243 208.36C298.4 211.338 288.76 211.468 280.791 209.561Z" fill="#FFA8A7"/>
<path d="M293.451 222.557L288.277 230.669L294.451 231.74L293.451 222.557Z" fill="#F28F8F"/>
<path d="M300.397 234.507L295.717 236.626C296.118 237.122 296.683 237.482 297.324 237.652C297.966 237.822 298.65 237.792 299.272 237.567C299.806 237.253 300.21 236.779 300.415 236.222C300.619 235.665 300.613 235.06 300.397 234.507Z" fill="#F28F8F"/>
<path opacity="0.3" d="M300.397 234.507L295.717 236.626C296.118 237.122 296.683 237.482 297.324 237.652C297.966 237.822 298.65 237.792 299.272 237.567C299.806 237.253 300.21 236.779 300.415 236.222C300.619 235.665 300.613 235.06 300.397 234.507Z" fill="black"/>
<path d="M297.641 237.744C298.188 237.847 298.755 237.798 299.273 237.603C299.701 237.377 300.048 237.039 300.273 236.631C300.498 236.223 300.59 235.763 300.538 235.307C299.868 235.302 299.217 235.51 298.691 235.896C298.095 236.361 297.719 237.025 297.641 237.744Z" fill="#F28F8F"/>
<path d="M302.396 222.875C302.42 223.091 302.399 223.309 302.333 223.517C302.266 223.725 302.157 223.919 302.01 224.087C301.863 224.256 301.682 224.395 301.476 224.499C301.271 224.602 301.046 224.666 300.814 224.688C300.346 224.728 299.879 224.595 299.515 224.317C299.15 224.04 298.917 223.64 298.866 223.205C298.819 222.769 298.96 222.334 299.258 221.995C299.556 221.657 299.986 221.442 300.454 221.398C300.922 221.354 301.39 221.485 301.754 221.762C302.118 222.039 302.349 222.44 302.396 222.875Z" fill="#263238"/>
<path d="M287.533 223.735C287.58 224.17 287.439 224.605 287.142 224.944C286.844 225.283 286.414 225.498 285.946 225.542C285.478 225.586 285.01 225.454 284.646 225.177C284.282 224.9 284.051 224.5 284.004 224.064C283.979 223.849 284.001 223.632 284.067 223.425C284.134 223.217 284.244 223.024 284.391 222.857C284.538 222.689 284.719 222.551 284.924 222.449C285.129 222.347 285.354 222.284 285.585 222.263C285.817 222.24 286.051 222.26 286.275 222.322C286.498 222.384 286.707 222.486 286.888 222.623C287.069 222.759 287.219 222.928 287.33 223.119C287.44 223.31 287.51 223.519 287.533 223.735Z" fill="#263238"/>
<path d="M285.103 217.365L281.459 220.238C281.244 219.804 281.176 219.319 281.264 218.848C281.352 218.377 281.592 217.942 281.953 217.601C282.401 217.29 282.934 217.103 283.491 217.061C284.048 217.02 284.607 217.125 285.103 217.365Z" fill="#263238"/>
<path d="M300.183 215.741L304.37 217.895C304.492 217.429 304.459 216.938 304.273 216.49C304.088 216.042 303.76 215.657 303.333 215.388C302.824 215.169 302.26 215.087 301.704 215.149C301.148 215.211 300.621 215.416 300.183 215.741Z" fill="#263238"/>
<path d="M311.847 287.943L303.864 307.097L312.72 319.871C325.547 314.444 322.916 315.986 331.784 296.031L311.847 287.943Z" fill="#FFA8A7"/>
<path d="M329.076 248.339C319.449 258.935 315.844 277.124 310.872 288.826C316.438 298.621 331.935 297.667 331.935 297.667C346.116 270.178 352.112 249.458 329.076 248.339Z" fill="#455A64"/>
<path d="M262.914 325.592C262.914 325.592 262.914 325.592 262.914 325.522C262.914 325.451 262.914 325.522 262.914 325.463C262.909 325.44 262.909 325.415 262.914 325.392C262.92 325.369 262.92 325.345 262.914 325.322V325.263L249.656 301.717V301.646C249.653 301.623 249.653 301.599 249.656 301.576V301.505V301.435V301.352V301.281L249.593 301.199L249.53 301.128V301.058V300.987V300.928L249.34 300.763H249.277H249.201H249.112L249.037 300.705H248.948L233.477 292.393H233.388H233.3H233.211H233.122H233.047H232.958H232.882H232.794H232.718H232.427C232.338 292.39 232.252 292.42 232.186 292.475L227.873 292.193C227.721 292.299 227.708 292.534 227.873 292.923L241.143 316.468C241.877 317.569 242.889 318.486 244.09 319.141L259.65 327.511C260.447 327.947 260.915 327.959 261.004 327.653C261.004 327.653 261.004 327.759 261.004 327.782L262.889 325.828C262.896 325.797 262.896 325.765 262.889 325.734C262.896 325.707 262.896 325.678 262.889 325.651C262.898 325.644 262.904 325.635 262.909 325.625C262.913 325.614 262.915 325.603 262.914 325.592ZM228.214 292.193C228.214 292.193 228.214 292.193 228.315 292.193H228.379H228.214ZM245.925 301.741C246.064 301.858 246.216 301.964 246.342 302.082C246.241 301.941 246.089 301.835 245.95 301.717L245.925 301.741ZM246.886 302.635L247.076 302.824L246.886 302.635ZM261.004 327.594C260.986 327.428 260.929 327.267 260.839 327.123C260.923 327.253 260.979 327.397 261.004 327.547C261.004 327.547 261.029 327.511 261.029 327.57L261.004 327.594Z" fill="#455A64"/>
</svg>
