<svg width="40" height="43" viewBox="0 0 40 43" fill="none" xmlns="http://www.w3.org/2000/svg">
<path fill-rule="evenodd" clip-rule="evenodd" d="M23.674 9.14191C22.4427 9.33899 21.2177 9.57671 20.0006 9.8547C18.7836 9.5767 17.5586 9.33898 16.3273 9.14191C17.3648 9.57151 18.419 10.0862 19.5315 10.6517C19.6721 10.7233 19.7906 10.8351 19.8736 10.9744C19.9566 11.1136 20.0006 11.2746 20.0006 11.439C20.0006 11.1032 20.1823 10.7972 20.4698 10.6517C21.5823 10.0862 22.6365 9.57063 23.674 9.14191ZM20.0006 31.0377C20.0006 31.5445 19.6065 31.9145 19.1673 31.9206V32.0933C13.9432 31.1631 10.2523 31.1043 5.00065 32.074V11.4267C5.55389 11.2934 6.10955 11.1715 6.66732 11.0611V9.27868C5.81232 9.44 4.91732 9.6399 3.96482 9.88188C3.78467 9.92794 3.62448 10.0364 3.51005 10.1899C3.39562 10.3434 3.33361 10.5329 3.33399 10.7279V33.1191C3.33399 33.6741 3.81982 34.0879 4.33732 33.9844C10.234 32.8008 13.9415 32.871 19.8406 33.9976C19.9464 34.018 20.0549 34.018 20.1606 33.9976C26.0598 32.871 29.7673 32.8008 35.664 33.9844C35.7856 34.0092 35.9109 34.0054 36.0309 33.9734C36.151 33.9415 36.2629 33.8821 36.3586 33.7995C36.4544 33.7169 36.5317 33.6131 36.5851 33.4955C36.6384 33.3779 36.6665 33.2494 36.6673 33.1191V10.7288C36.6679 10.5336 36.6059 10.3439 36.4915 10.1902C36.3771 10.0366 36.2168 9.92797 36.0365 9.88188C35.1415 9.65268 34.2403 9.45153 33.334 9.27868V11.0611C33.8706 11.1663 34.424 11.2891 35.0006 11.4267V32.074C29.749 31.1043 26.0581 31.1622 20.834 32.0933V31.9206C20.3948 31.9136 20.0006 31.5436 20.0006 31.0377Z" fill="#F29100"/>
<path fill-rule="evenodd" clip-rule="evenodd" d="M7.50065 9.21204V28.9809C7.50205 28.9836 7.50405 28.986 7.50648 28.9879C7.51259 28.9931 7.51972 28.9968 7.52736 28.9988C7.53499 29.0007 7.54295 29.0009 7.55065 28.9993C12.0007 28.1401 15.3448 29.1921 19.1465 31.0421C19.1486 31.043 19.1509 31.0436 19.1532 31.0438H19.1548C19.1584 31.0435 19.1618 31.0423 19.1648 31.0403C19.1657 31.0398 19.1665 31.0392 19.1673 31.0386V11.4398C15.0173 9.33215 11.889 8.03808 7.50065 9.21204ZM7.06232 7.51992C12.0782 6.16886 15.6848 7.72333 19.894 9.8617C20.1759 10.0051 20.4136 10.2293 20.5798 10.5085C20.7461 10.7876 20.8342 11.1104 20.834 11.4398V31.0368C20.834 32.3405 19.5448 33.1656 18.4473 32.6325C14.7973 30.8571 11.8223 29.9567 7.85148 30.7238C6.84315 30.9193 5.83398 30.1285 5.83398 28.9809V9.19889C5.83398 8.42735 6.31982 7.71982 7.06232 7.51992Z" fill="#F29100"/>
<path fill-rule="evenodd" clip-rule="evenodd" d="M32.4999 9.21204V28.9809C32.4983 28.9838 32.496 28.9863 32.4932 28.9879C32.4872 28.993 32.4802 28.9966 32.4727 28.9986C32.4652 29.0005 32.4574 29.0008 32.4499 28.9993C27.9999 28.1401 24.6565 29.1922 20.854 31.0421C20.8519 31.043 20.8497 31.0436 20.8474 31.0438H20.8457C20.8422 31.0435 20.8387 31.0423 20.8357 31.0403L20.8332 31.0368V11.439C24.9832 9.33127 28.1115 8.0372 32.4999 9.21204ZM32.9382 7.51992C27.9224 6.16886 24.3157 7.72333 20.1065 9.86171C19.8248 10.0053 19.5872 10.2295 19.4209 10.5086C19.2547 10.7877 19.1665 11.1105 19.1665 11.4398V31.0386C19.1665 32.3423 20.4557 33.1673 21.5532 32.6334C25.2032 30.858 28.1782 29.9576 32.149 30.7247C33.1574 30.9193 34.1665 30.1294 34.1665 28.9809V9.19889C34.1681 8.81525 34.0482 8.44198 33.8258 8.13797C33.6034 7.83396 33.2911 7.61651 32.9382 7.51992ZM9.17487 25.4283C12.2332 25.395 13.939 25.7194 17.1849 27.1143L17.8149 25.4905C14.3757 24.0132 12.4499 23.6389 9.1582 23.6748L9.17487 25.4283ZM9.17487 21.9213C12.2332 21.888 13.939 22.2124 17.1849 23.6073L17.8149 21.9836C14.3757 20.5063 12.4499 20.1319 9.1582 20.1678L9.17487 21.9213ZM9.17487 18.4143C12.2332 18.381 13.939 18.7054 17.1849 20.1003L17.8149 18.4766C14.3757 16.9993 12.4499 16.6249 9.1582 16.6609L9.17487 18.4143ZM11.2499 11.3978V14.028H9.5832V11.3978H11.2499ZM14.1665 12.2745V14.9047H12.4999V12.2745H14.1665ZM17.0832 13.1512V15.7815H15.4165V13.1512H17.0832Z" fill="#F29100"/>
<path fill-rule="evenodd" clip-rule="evenodd" d="M30.8255 25.4283C27.7672 25.395 26.0614 25.7194 22.8155 27.1143L22.1855 25.4906C25.6247 24.0132 27.5505 23.6389 30.8422 23.6748L30.8255 25.4283ZM30.8255 21.9213C27.7672 21.888 26.0614 22.2124 22.8155 23.6073L22.1855 21.9836C25.6247 20.5063 27.5505 20.1319 30.8422 20.1678L30.8255 21.9213ZM30.8255 18.4144C27.7672 18.381 26.0614 18.7054 22.8155 20.1003L22.1855 18.4766C25.6247 16.9993 27.5505 16.6249 30.8422 16.6609L30.8255 18.4144ZM28.7505 11.3978V14.028H30.4172V11.3978H28.7505ZM25.8339 12.2745V14.9047H27.5005V12.2745H25.8339ZM22.9172 13.1513V15.7815H24.5839V13.1513H22.9172Z" fill="#F29100"/>
</svg>
