<svg width="47" height="31" viewBox="0 0 47 31" fill="none" xmlns="http://www.w3.org/2000/svg">
<path d="M0.0320001 18.336C0.0320001 15.456 0.848 12.672 2.48 9.98399C4.112 7.29599 6.128 5.08799 8.528 3.35999C10.928 1.53599 13.376 0.623992 15.872 0.623992C16.736 0.623992 17.6 0.959993 18.464 1.632C19.328 2.20799 19.76 3.264 19.76 4.8C19.76 6.43199 19.232 7.39199 18.176 7.68C17.12 7.968 15.968 8.4 14.72 8.976C13.184 9.744 11.984 10.704 11.12 11.856C10.352 12.912 9.968 14.16 9.968 15.6C9.968 16.656 10.352 17.568 11.12 18.336C11.984 19.104 13.04 19.488 14.288 19.488C14.864 19.488 15.536 19.392 16.304 19.2C17.072 19.008 17.696 18.72 18.176 18.336C18.944 18.816 19.52 19.392 19.904 20.064C20.384 20.736 20.576 21.6 20.48 22.656C20.48 24.768 19.472 26.592 17.456 28.128C15.44 29.568 13.136 30.288 10.544 30.288C7.376 30.288 4.832 29.136 2.912 26.832C0.992 24.528 0.0320001 21.696 0.0320001 18.336ZM25.952 18.336C25.952 15.456 26.768 12.672 28.4 9.98399C30.032 7.29599 32.048 5.08799 34.448 3.35999C36.848 1.53599 39.296 0.623992 41.792 0.623992C42.656 0.623992 43.52 0.959993 44.384 1.632C45.248 2.20799 45.68 3.264 45.68 4.8C45.68 6.43199 45.152 7.39199 44.096 7.68C43.04 7.968 41.888 8.4 40.64 8.976C39.104 9.744 37.904 10.704 37.04 11.856C36.272 12.912 35.888 14.16 35.888 15.6C35.888 16.656 36.272 17.568 37.04 18.336C37.904 19.104 38.96 19.488 40.208 19.488C40.784 19.488 41.456 19.392 42.224 19.2C42.992 19.008 43.616 18.72 44.096 18.336C44.864 18.816 45.44 19.392 45.824 20.064C46.304 20.736 46.496 21.6 46.4 22.656C46.4 24.768 45.392 26.592 43.376 28.128C41.36 29.568 39.056 30.288 36.464 30.288C33.296 30.288 30.752 29.136 28.832 26.832C26.912 24.528 25.952 21.696 25.952 18.336Z" fill="white"/>
</svg>
